<?xml version="1.0" encoding="utf-8"?>
<!-- Generator: Adobe Illustrator 22.0.1, SVG Export Plug-In . SVG Version: 6.00 Build 0)  -->
<svg version="1.1" id="圖層_1" xmlns="http://www.w3.org/2000/svg" xmlns:xlink="http://www.w3.org/1999/xlink" x="0px" y="0px"
	 viewBox="0 0 128 128" style="enable-background:new 0 0 128 128;" xml:space="preserve">
<style type="text/css">
	.st0{opacity:0.4;}
	.st1{opacity:0.3;fill:url(#SVGID_1_);enable-background:new    ;}
	.st2{opacity:0.3;fill:url(#SVGID_2_);enable-background:new    ;}
	.st3{opacity:0.3;fill:url(#SVGID_3_);enable-background:new    ;}
	.st4{opacity:0.2;fill:url(#SVGID_4_);enable-background:new    ;}
	.st5{fill:url(#SVGID_5_);}
	.st6{fill:#4C5B66;}
	.st7{fill:url(#SVGID_6_);}
	.st8{opacity:0.2;fill:url(#SVGID_7_);enable-background:new    ;}
	.st9{opacity:0.2;fill:url(#SVGID_8_);enable-background:new    ;}
	.st10{fill:#FFFFFF;}
	.st11{fill:url(#SVGID_9_);stroke:url(#SVGID_10_);stroke-width:2.67;stroke-linecap:round;stroke-linejoin:round;}
	.st12{opacity:0.2;fill:url(#SVGID_11_);enable-background:new    ;}
	.st13{opacity:0.7;fill:none;stroke:#000000;enable-background:new    ;}
	.st14{opacity:0.15;fill:none;stroke:url(#SVGID_12_);stroke-linecap:round;stroke-linejoin:round;enable-background:new    ;}
	.st15{fill:url(#SVGID_13_);stroke:url(#SVGID_14_);stroke-width:2.67;stroke-linecap:round;stroke-linejoin:round;}
	.st16{opacity:0.35;fill:none;stroke:url(#SVGID_15_);stroke-width:2.67;enable-background:new    ;}
	.st17{opacity:0.24;fill:none;stroke:url(#SVGID_16_);stroke-width:2.67;enable-background:new    ;}
</style>
<title>phone-01</title>
<g class="st0">
	
		<linearGradient id="SVGID_1_" gradientUnits="userSpaceOnUse" x1="-580.7952" y1="1019.6758" x2="-580.7952" y2="1028.7258" gradientTransform="matrix(1.66 0 0 1.02 1016.97 -921.7)">
		<stop  offset="0" style="stop-color:#000000;stop-opacity:0"/>
		<stop  offset="0.5" style="stop-color:#000000"/>
		<stop  offset="1" style="stop-color:#000000;stop-opacity:0"/>
	</linearGradient>
	<rect x="24.7" y="118.8" class="st1" width="56.3" height="9.2"/>
	
		<radialGradient id="SVGID_2_" cx="-1148.2858" cy="497.1733" r="2.22" gradientTransform="matrix(4.6 0 0 2.07 5363.77 -905.8)" gradientUnits="userSpaceOnUse">
		<stop  offset="0" style="stop-color:#000000"/>
		<stop  offset="1" style="stop-color:#000000;stop-opacity:0"/>
	</radialGradient>
	<path class="st2" d="M81,118.8v9.2c5.6,0,10.2-2,10.2-4.6S86.6,118.8,81,118.8z"/>
	
		<radialGradient id="SVGID_3_" cx="-1808.5544" cy="497.1733" r="2.22" gradientTransform="matrix(-4.6 0 0 2.07 -8295.7695 -905.8)" gradientUnits="userSpaceOnUse">
		<stop  offset="0" style="stop-color:#000000"/>
		<stop  offset="1" style="stop-color:#000000;stop-opacity:0"/>
	</radialGradient>
	<path class="st3" d="M24.7,118.8v9.2c-5.6,0-10.2-2-10.2-4.6S19.1,118.8,24.7,118.8z"/>
</g>
<radialGradient id="SVGID_4_" cx="52.8" cy="15058.5098" r="34.8" gradientTransform="matrix(1 0 0 7.000000e-02 0 -939.14)" gradientUnits="userSpaceOnUse">
	<stop  offset="0" style="stop-color:#000000"/>
	<stop  offset="1" style="stop-color:#000000;stop-opacity:0"/>
</radialGradient>
<ellipse class="st4" cx="52.8" cy="122.9" rx="34.8" ry="2.6"/>
<linearGradient id="SVGID_5_" gradientUnits="userSpaceOnUse" x1="-439.6972" y1="325.1426" x2="-439.6972" y2="301.9926" gradientTransform="matrix(1.42 0 0 3.51 677.22 -1001.07)">
	<stop  offset="0" style="stop-color:#261E2B"/>
	<stop  offset="1" style="stop-color:#352F39"/>
</linearGradient>
<path class="st5" d="M24.7,6.2H81c2.8,0,5.1,2.3,5.1,5.1v106.4c0,2.8-2.3,5.1-5.1,5.1H24.7c-2.8,0-5.1-2.3-5.1-5.1V11.3
	C19.6,8.5,21.9,6.2,24.7,6.2z"/>
<rect x="24.7" y="22.5" class="st6" width="56.3" height="82.5"/>
<linearGradient id="SVGID_6_" gradientUnits="userSpaceOnUse" x1="52.9" y1="1099.9299" x2="52.9" y2="1126.13" gradientTransform="matrix(1 0 0 1 0 -1050)">
	<stop  offset="0" style="stop-color:#569914"/>
	<stop  offset="1" style="stop-color:#9CC94B"/>
</linearGradient>
<path class="st7" d="M39.6,41.2c-0.2,0-0.4,0.1-0.6,0.2c-0.7,0.4-0.9,1.3-0.5,2l0,0l4.8,8.3C29.6,57.4,29.6,75,29.6,76.2h46.6
	c0-1.2,0-18.8-13.7-24.5l4.8-8.3c0.4-0.7,0.1-1.6-0.6-2c-0.7-0.3-1.5-0.1-1.9,0.5l-5.1,8.7c-4.4-1.1-9.1-1.1-13.5,0L41,41.9
	C40.7,41.4,40.2,41.1,39.6,41.2z"/>
<linearGradient id="SVGID_7_" gradientUnits="userSpaceOnUse" x1="58.69" y1="1111.5399" x2="73.24" y2="1126.09" gradientTransform="matrix(1 0 0 1 0 -1050)">
	<stop  offset="0" style="stop-color:#000000"/>
	<stop  offset="1" style="stop-color:#000000;stop-opacity:0"/>
</linearGradient>
<path class="st8" d="M63.5,62.3l-4.1,4.1l9.7,9.7h7v-1.3L63.5,62.3z"/>
<linearGradient id="SVGID_8_" gradientUnits="userSpaceOnUse" x1="41.2" y1="1111.55" x2="55.76" y2="1126.11" gradientTransform="matrix(1 0 0 1 0 -1050)">
	<stop  offset="0" style="stop-color:#000000"/>
	<stop  offset="1" style="stop-color:#000000;stop-opacity:0"/>
</linearGradient>
<path class="st9" d="M46.1,62.3L42,66.5l9.7,9.7h8.2L46.1,62.3z"/>
<circle class="st10" cx="44.1" cy="64.5" r="2.9"/>
<circle class="st10" cx="61.6" cy="64.5" r="2.9"/>
<linearGradient id="SVGID_9_" gradientUnits="userSpaceOnUse" x1="-1779.35" y1="1067.5272" x2="-1691.26" y2="1067.5272" gradientTransform="matrix(0 0.56 -0.55 0 658.04 1048.97)">
	<stop  offset="0" style="stop-color:#ECB56C"/>
	<stop  offset="0.16" style="stop-color:#EA8B48"/>
	<stop  offset="0.65" style="stop-color:#E86225"/>
	<stop  offset="1" style="stop-color:#B07C0B;stop-opacity:0"/>
</linearGradient>
<linearGradient id="SVGID_10_" gradientUnits="userSpaceOnUse" x1="-1500.9304" y1="438.9146" x2="-1500.1204" y2="397.0345" gradientTransform="matrix(1.1 0 0 -1.11 1721.62 543.46)">
	<stop  offset="0" style="stop-color:#CC7032"/>
	<stop  offset="0.7" style="stop-color:#BB2D13"/>
	<stop  offset="1" style="stop-color:#A87300;stop-opacity:0"/>
</linearGradient>
<path class="st11" d="M88.2,72.1L70.9,52.7L53.6,72.1h9v31.4h16.6V72.1C79.2,72.1,88.2,72.1,88.2,72.1z"/>
<linearGradient id="SVGID_11_" gradientUnits="userSpaceOnUse" x1="-564.8729" y1="166.2895" x2="-554.6329" y2="181.6395" gradientTransform="matrix(1.6 0 0 6.07 948.4 -995.0001)">
	<stop  offset="0" style="stop-color:#FFFFFF"/>
	<stop  offset="1" style="stop-color:#FFFFFF;stop-opacity:0"/>
</linearGradient>
<path class="st12" d="M24.6,6.7C22,6.7,20,8.8,20,11.4l0,0v99.2l65.5-81.9V11.4c0.1-2.5-1.9-4.6-4.4-4.7H24.6z"/>
<path class="st13" d="M24.7,6.2H81c2.8,0,5.1,2.3,5.1,5.1v106.4c0,2.8-2.3,5.1-5.1,5.1H24.7c-2.8,0-5.1-2.3-5.1-5.1V11.3
	C19.6,8.5,21.9,6.2,24.7,6.2z"/>
<linearGradient id="SVGID_12_" gradientUnits="userSpaceOnUse" x1="-590.7048" y1="362.346" x2="-590.7048" y2="399.366" gradientTransform="matrix(1.66 0 0 2.95 1033.42 -1058.24)">
	<stop  offset="0" style="stop-color:#FFFFFF"/>
	<stop  offset="2.000000e-02" style="stop-color:#FFFFFF;stop-opacity:0.3"/>
	<stop  offset="0.98" style="stop-color:#FFFFFF;stop-opacity:0.25"/>
	<stop  offset="1" style="stop-color:#FFFFFF;stop-opacity:0.6"/>
</linearGradient>
<path class="st14" d="M24.7,7.2H81c2.2,0,4.1,1.8,4.1,4v0.1v106.4c0,2.2-1.8,4.1-4,4.1H81H24.7c-2.2,0-4.1-1.8-4.1-4v-0.1V11.3
	C20.6,9,22.4,7.2,24.7,7.2z"/>
<linearGradient id="SVGID_13_" gradientUnits="userSpaceOnUse" x1="-204.27" y1="1051" x2="-295.26" y2="1051" gradientTransform="matrix(-3.429011e-17 -0.56 -0.55 3.367779e-17 676.05 -43.27)">
	<stop  offset="0" style="stop-color:#8CAB2A;stop-opacity:0"/>
	<stop  offset="0.61" style="stop-color:#B1C948"/>
	<stop  offset="1" style="stop-color:#D7E866"/>
</linearGradient>
<linearGradient id="SVGID_14_" gradientUnits="userSpaceOnUse" x1="-1492.3909" y1="-325.1677" x2="-1492.3909" y2="-352.5477" gradientTransform="matrix(1.1 0 0 1.11 1739.63 462.25)">
	<stop  offset="0" style="stop-color:#548820"/>
	<stop  offset="1" style="stop-color:#548820;stop-opacity:0"/>
</linearGradient>
<path class="st15" d="M115.3,103.7L98,123.1l-17.3-19.4h9V72.3h16.6v31.4H115.3z"/>
<linearGradient id="SVGID_15_" gradientUnits="userSpaceOnUse" x1="-1677.6278" y1="986.2866" x2="-1696.3278" y2="986.2866" gradientTransform="matrix(0 -0.63 0.59 0 -510.9 -964.74)">
	<stop  offset="0" style="stop-color:#FFFFFF"/>
	<stop  offset="1" style="stop-color:#FFFFFF;stop-opacity:0"/>
</linearGradient>
<path class="st16" d="M57.2,70.6L70.9,55l13.9,15.6h-7.1V102l-13.5,0.1V70.6C64.2,70.6,57.2,70.6,57.2,70.6z"/>
<linearGradient id="SVGID_16_" gradientUnits="userSpaceOnUse" x1="-356.9322" y1="1001.7128" x2="-375.6222" y2="1001.7128" gradientTransform="matrix(3.857638e-17 0.63 0.59 -3.612708e-17 -492.89 310.63)">
	<stop  offset="0" style="stop-color:#FFFFFF"/>
	<stop  offset="1" style="stop-color:#FFFFFF;stop-opacity:0"/>
</linearGradient>
<path class="st17" d="M84.3,105.2L98,120.8l13.9-15.6h-7.1V73.8l-13.6-0.1v31.4L84.3,105.2L84.3,105.2z"/>
</svg>
