<svg xmlns="http://www.w3.org/2000/svg" xmlns:xlink="http://www.w3.org/1999/xlink" viewBox="0 0 128 128"><defs><style>.a{opacity:0.4;}.b,.c,.d{opacity:0.3;}.b,.c,.d,.e,.i,.j,.l,.m,.n,.p,.r{isolation:isolate;}.b{fill:url(#a);}.c{fill:url(#b);}.d{fill:url(#c);}.e,.i,.j,.l{opacity:0.2;}.e{fill:url(#d);}.f{fill:url(#e);}.g{fill:#4c5b66;}.h{fill:url(#f);}.i{fill:url(#g);}.j{fill:url(#h);}.k{fill:#fff;}.l{fill:url(#i);}.m,.n,.p,.r{fill:none;}.m{stroke:#000;opacity:0.7;}.n,.o,.q{stroke-linecap:round;stroke-linejoin:round;}.n{opacity:0.15;stroke:url(#j);}.o,.p,.q,.r{stroke-width:2.67px;}.o{fill:url(#k);stroke:url(#l);}.p{opacity:0.35;stroke:url(#m);}.q{fill:url(#n);stroke:url(#o);}.r{opacity:0.24;stroke:url(#p);}</style><linearGradient id="a" x1="-276.64" y1="-199.97" x2="-276.64" y2="-209.02" gradientTransform="matrix(1.66, 0, 0, -1.02, 512.07, -85.6)" gradientUnits="userSpaceOnUse"><stop offset="0" stop-opacity="0"/><stop offset="0.5"/><stop offset="1" stop-opacity="0"/></linearGradient><radialGradient id="b" cx="-549.59" cy="61.45" r="2.22" gradientTransform="matrix(4.6, 0, 0, -2.07, 2609.77, 250.55)" gradientUnits="userSpaceOnUse"><stop offset="0"/><stop offset="1" stop-opacity="0"/></radialGradient><radialGradient id="c" cx="-877.25" cy="61.45" r="2.22" gradientTransform="translate(-4011.77 250.55) rotate(180) scale(4.6 2.07)" xlink:href="#b"/><radialGradient id="d" cx="52.8" cy="-7253.51" r="34.8" gradientTransform="matrix(1, 0, 0, -0.07, 0, -392.79)" xlink:href="#b"/><linearGradient id="e" x1="-213.43" y1="129.43" x2="-213.43" y2="152.58" gradientTransform="matrix(1.42, 0, 0, -3.51, 355.92, 594.48)" gradientUnits="userSpaceOnUse"><stop offset="0" stop-color="#261e2b"/><stop offset="1" stop-color="#352f39"/></linearGradient><linearGradient id="f" x1="52.9" y1="-269.93" x2="52.9" y2="-296.13" gradientTransform="matrix(1, 0, 0, -1, 0, -220)" gradientUnits="userSpaceOnUse"><stop offset="0" stop-color="#569914"/><stop offset="1" stop-color="#9cc94b"/></linearGradient><linearGradient id="g" x1="58.69" y1="-281.54" x2="73.24" y2="-296.09" gradientTransform="matrix(1, 0, 0, -1, 0, -220)" xlink:href="#b"/><linearGradient id="h" x1="41.2" y1="-281.55" x2="55.76" y2="-296.11" gradientTransform="matrix(1, 0, 0, -1, 0, -220)" xlink:href="#b"/><linearGradient id="i" x1="-278" y1="225.2" x2="-267.76" y2="209.85" gradientTransform="matrix(1.6, 0, 0, -6.07, 489.4, 1381.35)" gradientUnits="userSpaceOnUse"><stop offset="0" stop-color="#fff"/><stop offset="1" stop-color="#fff" stop-opacity="0"/></linearGradient><linearGradient id="j" x1="-286.55" y1="120.62" x2="-286.55" y2="83.6" gradientTransform="matrix(1.66, 0, 0, -2.95, 528.52, 366.51)" gradientUnits="userSpaceOnUse"><stop offset="0" stop-color="#fff"/><stop offset="0.02" stop-color="#fff" stop-opacity="0.3"/><stop offset="0.98" stop-color="#fff" stop-opacity="0.25"/><stop offset="1" stop-color="#fff" stop-opacity="0.6"/></linearGradient><linearGradient id="k" x1="248.23" y1="-281.46" x2="157.24" y2="-281.46" gradientTransform="translate(-84.4 -34.33) rotate(90) scale(0.56 0.55)" gradientUnits="userSpaceOnUse"><stop offset="0" stop-color="#8cab2a" stop-opacity="0"/><stop offset="0.61" stop-color="#b1c948"/><stop offset="1" stop-color="#d7e866"/></linearGradient><linearGradient id="l" x1="-497.44" y1="472.51" x2="-497.44" y2="499.89" gradientTransform="matrix(-1.1, 0, 0, 1.11, -474.23, -450)" gradientUnits="userSpaceOnUse"><stop offset="0" stop-color="#548820"/><stop offset="1" stop-color="#548820" stop-opacity="0"/></linearGradient><linearGradient id="m" x1="-634.85" y1="-250.03" x2="-653.55" y2="-250.03" gradientTransform="matrix(0, -0.63, -0.59, 0, -75.95, -307.79)" xlink:href="#i"/><linearGradient id="n" x1="-701.85" y1="-297.95" x2="-613.76" y2="-297.95" gradientTransform="matrix(0, -0.56, -0.55, 0, -66.39, -269.77)" gradientUnits="userSpaceOnUse"><stop offset="0" stop-color="#ecb56c"/><stop offset="0.16" stop-color="#ea8b48"/><stop offset="0.65" stop-color="#e86225"/><stop offset="1" stop-color="#b07c0b" stop-opacity="0"/></linearGradient><linearGradient id="o" x1="-506.02" y1="23.78" x2="-505.21" y2="65.66" gradientTransform="translate(-456.22 145.89) rotate(180) scale(1.1 1.11)" gradientUnits="userSpaceOnUse"><stop offset="0" stop-color="#cc7032"/><stop offset="0.7" stop-color="#bb2d13"/><stop offset="1" stop-color="#a87300" stop-opacity="0"/></linearGradient><linearGradient id="p" x1="130.29" y1="-265.51" x2="111.6" y2="-265.51" gradientTransform="translate(-57.94 3.68) rotate(90) scale(0.63 0.59)" xlink:href="#i"/></defs><title>phone-01</title><g class="a"><rect class="b" x="24.7" y="118.8" width="56.3" height="9.2"/><path class="c" d="M81,118.8V128c5.6,0,10.2-2,10.2-4.6S86.6,118.8,81,118.8Z"/><path class="d" d="M24.7,118.8V128c-5.6,0-10.2-2-10.2-4.6S19.1,118.8,24.7,118.8Z"/></g><ellipse class="e" cx="52.8" cy="122.9" rx="34.8" ry="2.6"/><path class="f" d="M24.7,6.2H81a5.12,5.12,0,0,1,5.1,5.1V117.7a5.12,5.12,0,0,1-5.1,5.1H24.7a5.12,5.12,0,0,1-5.1-5.1V11.3A5.12,5.12,0,0,1,24.7,6.2Z"/><rect class="g" x="24.7" y="22.5" width="56.3" height="82.5"/><path class="h" d="M39.6,41.2a1.42,1.42,0,0,0-.6.2,1.46,1.46,0,0,0-.5,2h0l4.8,8.3C29.6,57.4,29.6,75,29.6,76.2H76.2c0-1.2,0-18.8-13.7-24.5l4.8-8.3a1.46,1.46,0,0,0-2.5-1.5l-5.1,8.7a28,28,0,0,0-13.5,0L41,41.9A1.42,1.42,0,0,0,39.6,41.2Z"/><path class="i" d="M63.5,62.3l-4.1,4.1,9.7,9.7h7V74.8Z"/><path class="j" d="M46.1,62.3,42,66.5l9.7,9.7h8.2Z"/><circle class="k" cx="44.1" cy="64.5" r="2.9"/><circle class="k" cx="61.6" cy="64.5" r="2.9"/><path class="l" d="M24.6,6.7A4.67,4.67,0,0,0,20,11.4h0v99.2L85.5,28.7V11.4a4.57,4.57,0,0,0-4.4-4.7H24.6Z"/><path class="m" d="M24.7,6.2H81a5.12,5.12,0,0,1,5.1,5.1V117.7a5.12,5.12,0,0,1-5.1,5.1H24.7a5.12,5.12,0,0,1-5.1-5.1V11.3A5.12,5.12,0,0,1,24.7,6.2Z"/><path class="n" d="M24.7,7.2H81a4.06,4.06,0,0,1,4.1,4.1V117.7a4.06,4.06,0,0,1-4.1,4.1H24.7a4.06,4.06,0,0,1-4.1-4.1V11.3A4.12,4.12,0,0,1,24.7,7.2Z"/><path class="o" d="M53.59,72.11,70.9,52.74,88.21,72.11h-9v31.42H62.62V72.11Z"/><path class="p" d="M57.16,70.61,70.9,55.05,84.81,70.61H77.67V102l-13.54.09V70.61Z"/><path class="q" d="M80.71,103.69,98,123.06l17.31-19.37h-9V72.27H89.74v31.42Z"/><path class="r" d="M84.27,105.19,98,120.75l13.91-15.56h-7.13V73.83l-13.55-.09v31.45Z"/></svg>