<?xml version="1.0" encoding="utf-8"?>
<!-- Generator: Adobe Illustrator 22.0.1, SVG Export Plug-In . SVG Version: 6.00 Build 0)  -->
<svg version="1.1"
	 id="svg2" inkscape:version="0.92.2 2405546, 2018-03-11" sodipodi:docname="usbprog.svg" xmlns:cc="http://creativecommons.org/ns#" xmlns:dc="http://purl.org/dc/elements/1.1/" xmlns:inkscape="http://www.inkscape.org/namespaces/inkscape" xmlns:rdf="http://www.w3.org/1999/02/22-rdf-syntax-ns#" xmlns:sodipodi="http://sodipodi.sourceforge.net/DTD/sodipodi-0.dtd" xmlns:svg="http://www.w3.org/2000/svg"
	 xmlns="http://www.w3.org/2000/svg" xmlns:xlink="http://www.w3.org/1999/xlink" x="0px" y="0px" viewBox="0 0 128 128"
	 style="enable-background:new 0 0 128 128;" xml:space="preserve">
<style type="text/css">
	.st0{opacity:0.3;fill:url(#rect2723_1_);enable-background:new    ;}
	.st1{opacity:0.3;fill:url(#path2725_1_);enable-background:new    ;}
	.st2{opacity:0.3;fill:url(#path2727_1_);enable-background:new    ;}
	.st3{fill:url(#rect6431_1_);stroke:#353537;stroke-width:0.928;stroke-linecap:round;stroke-linejoin:round;}
	.st4{fill:#D2D2D3;}
	.st5{fill:url(#path6345_1_);stroke:url(#path6345_2_);stroke-width:0.9958;stroke-linecap:round;stroke-linejoin:round;}
	.st6{opacity:0.4;fill:none;stroke:#FFFFFF;stroke-linecap:round;enable-background:new    ;}
	.st7{fill:#E1E1E1;}
	.st8{fill:url(#path9009_1_);}
	.st9{fill:#F0F0F0;}
	.st10{fill:url(#path9021_1_);}
	.st11{fill:url(#path9027_1_);}
	.st12{fill:url(#rect8993_1_);}
	.st13{opacity:0.8114;fill:url(#path8995_1_);enable-background:new    ;}
	.st14{fill:url(#path9093_1_);}
	.st15{opacity:0.3;fill:url(#rect6300-3_1_);enable-background:new    ;}
	.st16{opacity:0.7216;fill:#393939;}
	.st17{fill:url(#path4176_1_);stroke:#76A578;stroke-width:0.4099;stroke-linecap:round;stroke-linejoin:round;}
	.st18{fill:#FFFFFF;fill-opacity:0.2966;}
	.st19{fill-opacity:1.520913e-02;}
	.st20{fill-opacity:1.520912e-02;}
	.st21{fill:url(#path4169_1_);}
	.st22{fill:url(#path4297_1_);}
	.st23{fill-opacity:6.844106e-02;}
	.st24{fill:url(#rect4315_1_);}
</style>
<g id="layer1">
	
		<linearGradient id="rect2723_1_" gradientUnits="userSpaceOnUse" x1="1328.7212" y1="-3296.2139" x2="1328.7212" y2="-3533.2424" gradientTransform="matrix(0.2086 0 0 -5.625201e-02 -213.2036 -70.752)">
		<stop  offset="0" style="stop-color:#000000;stop-opacity:0"/>
		<stop  offset="0.5" style="stop-color:#000000"/>
		<stop  offset="1" style="stop-color:#000000;stop-opacity:0"/>
	</linearGradient>
	<rect id="rect2723" x="14.8" y="114.7" class="st0" width="98.3" height="13.3"/>
	
		<radialGradient id="path2725_1_" cx="2421.8406" cy="-3413.3342" r="114.3315" gradientTransform="matrix(0.1225 0 0 -5.625201e-02 -183.2815 -70.752)" gradientUnits="userSpaceOnUse">
		<stop  offset="0" style="stop-color:#000000"/>
		<stop  offset="1" style="stop-color:#000000;stop-opacity:0"/>
	</radialGradient>
	<path id="path2725" class="st1" d="M113.1,114.7V128c6.2,0,14.9-3,14.9-6.7C128,117.7,121.1,114.7,113.1,114.7z"/>
	
		<radialGradient id="path2727_1_" cx="-1740.2697" cy="-3413.3342" r="114.3315" gradientTransform="matrix(-0.1225 0 0 -5.625201e-02 -198.7185 -70.752)" gradientUnits="userSpaceOnUse">
		<stop  offset="0" style="stop-color:#000000"/>
		<stop  offset="1" style="stop-color:#000000;stop-opacity:0"/>
	</radialGradient>
	<path id="path2727" class="st2" d="M14.9,114.7V128C8.7,128,0,125,0,121.3C0,117.7,6.9,114.7,14.9,114.7z"/>
	
		<linearGradient id="rect6431_1_" gradientUnits="userSpaceOnUse" x1="-134.27" y1="173.3796" x2="-134.209" y2="164.5956" gradientTransform="matrix(2.7798 0 0 -2.0107 437.2335 453.2755)">
		<stop  offset="0" style="stop-color:#7A7A7A"/>
		<stop  offset="1" style="stop-color:#474747"/>
	</linearGradient>
	<path id="rect6431" class="st3" d="M3,105.6H125l-2.4,15.7H5.7L3,105.6C3,105.6,3,105.6,3,105.6z"/>
	<rect id="rect6381" x="3.2" y="103.5" class="st4" width="121.7" height="2.7"/>
	
		<radialGradient id="path6345_1_" cx="-170.7298" cy="280.3279" r="22.4947" gradientTransform="matrix(3.8158 1.955 1.2975 -2.592 319.6552 1101.719)" gradientUnits="userSpaceOnUse">
		<stop  offset="0" style="stop-color:#E6E6E6"/>
		<stop  offset="1" style="stop-color:#C8C8C8"/>
	</radialGradient>
	
		<linearGradient id="path6345_2_" gradientUnits="userSpaceOnUse" x1="-138.9007" y1="209.9657" x2="-138.6478" y2="229.3038" gradientTransform="matrix(2.7717 0 0 -2.8041 449.2654 673.3252)">
		<stop  offset="0" style="stop-color:#969696"/>
		<stop  offset="1" style="stop-color:#B4B4B4"/>
	</linearGradient>
	<path id="path6345" class="st5" d="M125,105.7l-18.4-70.5c-0.5-2-3.2-3.6-5.5-3.6H26.3c-3.5,0-5.5,0.5-6.3,3.6L3,105.6"/>
	<path id="path7046" class="st6" d="M124,105.7H4"/>
	<path id="path9007" class="st7" d="M16.2,99.3c-0.1,1.6-2,2.9-4.1,2.9c-2.2,0-3.8-1.3-3.7-2.9c0.1-1.6,2-2.9,4.1-2.9
		C14.7,96.4,16.3,97.7,16.2,99.3C16.2,99.3,16.2,99.3,16.2,99.3z"/>
	
		<radialGradient id="path9009_1_" cx="-396.4622" cy="20.5267" r="2.5021" fx="-395.8749" fy="20.929" gradientTransform="matrix(-1.0069 0 0 -0.9756 -386.9066 119.354)" gradientUnits="userSpaceOnUse">
		<stop  offset="0" style="stop-color:#EEEEEE"/>
		<stop  offset="0.16" style="stop-color:#CECECE"/>
		<stop  offset="0.4675" style="stop-color:#888888"/>
		<stop  offset="1" style="stop-color:#555555"/>
	</radialGradient>
	<path id="path9009" class="st8" d="M14.8,98.2c0.2,0.2,0.4,0.5,0.4,1c0,0,0,0.1,0,0.1c-0.1,1.1-1.5,2.1-3.2,2.1
		c-0.9,0-1.8-0.3-2.3-0.8c-0.2-0.2-0.5-0.6-0.4-1.1c0.1-1.1,1.5-2,3.2-2C13.4,97.4,14.3,97.7,14.8,98.2L14.8,98.2L14.8,98.2
		L14.8,98.2z"/>
	<path id="path9019" class="st9" d="M22.1,34.5c0.2,1,1.7,1.6,3.3,1.2c1.6-0.3,2.7-1.5,2.5-2.5c-0.2-1-1.7-1.6-3.3-1.2
		C22.9,32.4,21.8,33.5,22.1,34.5z"/>
	
		<radialGradient id="path9021_1_" cx="158.9423" cy="-160.3005" r="2.5022" fx="159.5296" fy="-159.8982" gradientTransform="matrix(0.7478 -0.1586 -8.422800e-02 -0.63 -107.3974 -41.8433)" gradientUnits="userSpaceOnUse">
		<stop  offset="0" style="stop-color:#EEEEEE"/>
		<stop  offset="0.16" style="stop-color:#CECECE"/>
		<stop  offset="0.4675" style="stop-color:#888888"/>
		<stop  offset="1" style="stop-color:#555555"/>
	</radialGradient>
	<path id="path9021" class="st10" d="M23,33.6c-0.1,0.2-0.3,0.4-0.2,0.7c0,0,0,0,0,0.1c0.2,0.7,1.3,1.1,2.5,0.8
		c0.7-0.1,1.3-0.5,1.6-0.9c0.1-0.2,0.3-0.5,0.2-0.8c-0.2-0.7-1.3-1.1-2.5-0.8C23.9,32.8,23.3,33.2,23,33.6L23,33.6
		C23,33.6,23,33.6,23,33.6z"/>
	<path id="path9025" class="st7" d="M98.2,33.4c0,1,1.3,2.1,2.9,2.4c1.6,0.3,3-0.3,3-1.3c0-1-1.3-2.1-2.9-2.4
		C99.5,31.8,98.2,32.4,98.2,33.4z"/>
	
		<radialGradient id="path9027_1_" cx="216.3549" cy="-10.158" r="2.5022" fx="216.9422" fy="-9.7557" gradientTransform="matrix(0.7565 0.1411 7.792703e-02 -0.613 -61.7915 -2.8251)" gradientUnits="userSpaceOnUse">
		<stop  offset="0" style="stop-color:#EEEEEE"/>
		<stop  offset="0.16" style="stop-color:#CECECE"/>
		<stop  offset="0.4675" style="stop-color:#888888"/>
		<stop  offset="1" style="stop-color:#555555"/>
	</radialGradient>
	<path id="path9027" class="st11" d="M99.3,32.9c-0.2,0.1-0.4,0.3-0.4,0.6c0,0,0,0,0,0.1c0,0.7,1,1.5,2.2,1.7
		c0.7,0.1,1.4,0.1,1.8-0.2c0.2-0.1,0.4-0.3,0.4-0.6c0-0.7-1-1.5-2.2-1.7C100.4,32.5,99.7,32.6,99.3,32.9L99.3,32.9L99.3,32.9
		L99.3,32.9z"/>
	
		<linearGradient id="rect8993_1_" gradientUnits="userSpaceOnUse" x1="-156.9927" y1="202.2345" x2="-139.7907" y2="202.2345" gradientTransform="matrix(2.8154 0 0 -2.6966 463.4241 658.8311)">
		<stop  offset="0" style="stop-color:#000000"/>
		<stop  offset="1" style="stop-color:#000000;stop-opacity:0"/>
	</linearGradient>
	<path id="rect8993" class="st12" d="M20.1,106.2h49.8v14.6H21.4L20.1,106.2z"/>
	
		<linearGradient id="path8995_1_" gradientUnits="userSpaceOnUse" x1="-148.7383" y1="207.0613" x2="-148.7926" y2="210.4257" gradientTransform="matrix(2.7759 0 0 -2.9914 451.1205 741.4863)">
		<stop  offset="0" style="stop-color:#EEEEEE"/>
		<stop  offset="1" style="stop-color:#EEEEEE;stop-opacity:0"/>
	</linearGradient>
	<path id="path8995" class="st13" d="M21.1,120.8l-1.1-11.7c5,9.3,23.5,11.7,36.1,11.7H21.1L21.1,120.8z"/>
	<path id="path9091" class="st7" d="M111.8,99.3c0.1,1.6,2,2.9,4.1,2.9c2.2,0,3.8-1.3,3.7-2.9c-0.1-1.6-2-2.9-4.1-2.9
		C113.3,96.4,111.7,97.7,111.8,99.3C111.8,99.3,111.8,99.3,111.8,99.3z"/>
	
		<radialGradient id="path9093_1_" cx="110.0657" cy="20.5267" r="2.5021" fx="110.653" fy="20.929" gradientTransform="matrix(1.0069 0 0 -0.9756 4.9066 119.354)" gradientUnits="userSpaceOnUse">
		<stop  offset="0" style="stop-color:#EEEEEE"/>
		<stop  offset="0.16" style="stop-color:#CECECE"/>
		<stop  offset="0.4675" style="stop-color:#888888"/>
		<stop  offset="1" style="stop-color:#555555"/>
	</radialGradient>
	<path id="path9093" class="st14" d="M113.2,98.2c-0.2,0.2-0.4,0.5-0.4,1c0,0,0,0.1,0,0.1c0.1,1.1,1.5,2.1,3.2,2.1
		c0.9,0,1.8-0.3,2.3-0.8c0.2-0.2,0.5-0.6,0.4-1.1c-0.1-1.1-1.5-2-3.2-2C114.6,97.4,113.7,97.7,113.2,98.2L113.2,98.2L113.2,98.2
		L113.2,98.2z"/>
	
		<radialGradient id="rect6300-3_1_" cx="-140.2373" cy="93.152" r="20.496" gradientTransform="matrix(2.8095 0 0 -1.0714 457.9999 213.2856)" gradientUnits="userSpaceOnUse">
		<stop  offset="0" style="stop-color:#FFFFFF"/>
		<stop  offset="1" style="stop-color:#FFFFFF;stop-opacity:0"/>
	</radialGradient>
	<rect id="rect6300-3" x="6.4" y="106.2" class="st15" width="115.2" height="14.6"/>
</g>
<g>
	<path class="st16" d="M83.8,58.4l-0.1-8h-11l0,8h3.6l0.1,1.9c0,0.2,0,0.4,0,0.7c0,0.2,0,0.4,0,0.7c0,0.2,0,0.4,0,0.6
		c0,0.2,0,0.4,0,0.6c0,0.2,0,0.4,0,0.5l-0.1,0.9l0,0c-0.5,0.4-1,0.9-1.7,1.3c-0.6,0.4-1.2,0.8-2.1,1.2c-0.7,0.4-1.3,0.7-2,1.1
		l-0.2,0.1c-0.8,0.4-1.5,0.8-2.3,1.2c-0.4,0.2-0.7,0.4-1.1,0.6c-0.3,0.2-0.7,0.4-1,0.7s-0.6,0.5-0.9,0.7l0-22.9h4.8l-6-9.5l-6.3,9.5
		h4.6l0,29.9c-0.1-0.1-0.2-0.2-0.4-0.3c-0.4-0.4-0.9-0.7-1.4-1.1c-0.5-0.3-1-0.7-1.5-1c-0.5-0.3-1-0.6-1.5-0.9l-1.3-0.8
		c-0.4-0.2-0.7-0.4-1.1-0.6c-0.4-0.2-0.7-0.4-1-0.6c-0.3-0.2-0.6-0.4-0.9-0.6c-0.3-0.2-0.5-0.4-0.7-0.6c-0.2-0.2-0.3-0.3-0.5-0.5
		c-0.1-0.1-0.2-0.3-0.3-0.4c0-0.1-0.1-0.2-0.1-0.3c0-0.4,0-0.8,0-1.1c0-0.3,0-0.7,0-1l0.1-1.5c0.7-0.1,1.3-0.2,1.9-0.4
		c0.7-0.3,1.4-0.6,1.9-1c0.6-0.4,1-0.9,1.3-1.5c0.3-0.6,0.5-1.2,0.5-1.8c0-0.7-0.2-1.3-0.5-1.9c-0.3-0.6-0.8-1.1-1.4-1.5
		c-0.6-0.4-1.3-0.8-2.1-1c-1.6-0.5-3.4-0.5-5,0c-0.8,0.2-1.5,0.6-2.1,1c-0.6,0.4-1.1,0.9-1.5,1.5c-0.4,0.6-0.6,1.2-0.6,1.9
		c0,0.6,0.1,1.1,0.4,1.7c0.3,0.5,0.6,1,1.1,1.4c0.5,0.4,1,0.7,1.6,1c0.5,0.2,1,0.4,1.6,0.5l-0.1,1.6c0,0.3,0,0.7,0,1
		c0,0.4,0,0.7,0,1.2c0,0.3,0.1,0.7,0.2,1c0.1,0.3,0.3,0.6,0.5,0.9c0.2,0.3,0.5,0.5,0.8,0.8c0.3,0.2,0.6,0.5,0.9,0.7
		c0.3,0.2,0.7,0.5,1,0.7c0.4,0.2,0.7,0.5,1.1,0.7c0.4,0.2,0.8,0.5,1.2,0.7l1.2,0.7c0.9,0.6,1.6,1,2.3,1.5c0.8,0.5,1.4,1.1,2,1.5
		c0.6,0.6,1.1,1.1,1.5,1.6c0.4,0.6,0.6,1.2,0.7,1.6l0,3.8c-0.7,0.1-1.3,0.3-2,0.5c-0.7,0.3-1.4,0.7-2,1.1c-0.6,0.5-1,1-1.3,1.6
		c-0.3,0.6-0.5,1.3-0.5,1.9c0,0.7,0.2,1.5,0.6,2.1c0.4,0.6,0.9,1.2,1.6,1.7c0.7,0.5,1.5,0.9,2.3,1.1c0.9,0.3,1.8,0.4,2.8,0.4
		c1,0,1.9-0.1,2.8-0.4c0.9-0.3,1.6-0.6,2.3-1.1c0.7-0.5,1.2-1.1,1.6-1.7c0.4-0.7,0.6-1.4,0.6-2.1c0-0.7-0.2-1.4-0.5-2
		c-0.3-0.6-0.8-1.1-1.4-1.6c-0.6-0.5-1.3-0.8-2-1.1c-0.6-0.2-1.3-0.4-2-0.5l0-3.9l0-6.3c0-0.6,0.1-1.2,0.3-1.7
		c0.2-0.5,0.5-0.9,0.9-1.4c0.4-0.4,0.9-0.8,1.5-1.3c0.5-0.4,1.1-0.8,1.9-1.2c0.7-0.4,1.4-0.8,2.2-1.2l0.1-0.1
		c0.7-0.4,1.5-0.8,2.2-1.2c0.9-0.5,1.6-0.9,2.3-1.4c0.8-0.5,1.5-1.1,2.1-1.7c0.1-0.1,0.2-0.2,0.2-0.3c0.1-0.1,0.1-0.2,0.1-0.3
		c0-0.1,0.1-0.2,0.1-0.2l0-0.2c0-0.1,0-0.2,0-0.2c0-0.1,0-0.2,0-0.3l0-0.6c0-0.2,0-0.4,0-0.6c0-0.2,0-0.4,0-0.7l-0.1-3.9H83.8z
		 M76.8,58.1L76.8,58.1L76.8,58.1L76.8,58.1z M76.8,64.5l-0.2,0l-0.1-0.1L76.8,64.5z"/>
	<path class="st16" d="M63.9,40.2l5.1,8.2h-4.4l0,24.8c0.3-0.3,0.5-0.5,0.8-0.8c0.3-0.2,0.6-0.5,0.9-0.7c0.3-0.2,0.6-0.4,1-0.7
		c0.3-0.2,0.7-0.4,1-0.6c0.7-0.4,1.5-0.8,2.3-1.2c0.8-0.4,1.5-0.8,2.3-1.2c0.7-0.4,1.4-0.8,2.1-1.3c0.7-0.4,1.3-0.9,1.8-1.4
		c0,0,0,0,0,0c0,0,0,0,0-0.1c0,0,0-0.1,0-0.1c0,0,0-0.1,0-0.1c0-0.1,0-0.1,0-0.2c0-0.1,0-0.1,0-0.2c0-0.1,0-0.2,0-0.2
		c0-0.1,0-0.2,0-0.3c0-0.2,0-0.4,0-0.6c0-0.2,0-0.4,0-0.6c0-0.2,0-0.4,0-0.7c0-0.2,0-0.4,0-0.7c0-0.2,0-0.5,0-0.7c0-0.2,0-0.4,0-0.7
		c0-0.2,0-0.4,0-0.6c0-0.2,0-0.4,0-0.6c0-0.1,0-0.1,0-0.2c0-0.1,0-0.1,0-0.2c0,0,0-0.1,0-0.1c0,0,0-0.1,0-0.1h-3.6l0-7.1h10l0.1,7.1
		h-4.6c0,0.1,0,0.1,0,0.1s0,0.1,0,0.1s0,0.1,0,0.1c0,0.1,0,0.1,0,0.2c0,0.2,0,0.4,0,0.6c0,0.2,0,0.4,0,0.6c0,0.2,0,0.4,0,0.7
		c0,0.2,0,0.5,0,0.7c0,0.2,0,0.5,0,0.7c0,0.2,0,0.5,0,0.7c0,0.2,0,0.4,0,0.6c0,0.2,0,0.4,0,0.6c0,0.1,0,0.2,0,0.3c0,0.1,0,0.2,0,0.3
		c0,0.1,0,0.2,0,0.2c0,0.1,0,0.2,0,0.2c0,0.1,0,0.1,0,0.2c0,0.1,0,0.1-0.1,0.2c0,0.1-0.1,0.1-0.1,0.2c0,0.1-0.1,0.1-0.2,0.2
		c-0.6,0.6-1.3,1.1-2,1.6c-0.7,0.5-1.5,1-2.3,1.4c-0.8,0.4-1.6,0.8-2.3,1.2c-0.8,0.4-1.5,0.8-2.2,1.2c-0.7,0.4-1.4,0.8-1.9,1.2
		C67,73.1,66.4,73.5,66,74c-0.4,0.5-0.8,1-1,1.6c-0.2,0.6-0.4,1.2-0.4,1.9l0,6.4l0,4.4c0.8,0.1,1.6,0.3,2.4,0.5
		c0.7,0.3,1.4,0.6,1.9,1.1c0.5,0.4,1,0.9,1.3,1.5c0.3,0.5,0.5,1.1,0.5,1.8c0,0.7-0.2,1.3-0.5,1.9c-0.3,0.6-0.8,1.1-1.5,1.6
		c-0.6,0.4-1.4,0.8-2.2,1.1c-0.8,0.2-1.7,0.4-2.7,0.4c-0.9,0-1.8-0.1-2.7-0.4c-0.8-0.2-1.6-0.6-2.2-1.1c-0.6-0.4-1.1-1-1.5-1.6
		c-0.3-0.6-0.5-1.2-0.5-1.9c0-0.6,0.2-1.2,0.5-1.7c0.3-0.5,0.7-1,1.2-1.5c0.5-0.4,1.1-0.8,1.8-1.1c0.7-0.3,1.5-0.5,2.3-0.6l0-4.3
		c-0.1-0.7-0.4-1.3-0.8-1.9c-0.4-0.6-0.9-1.2-1.5-1.8c-0.6-0.6-1.3-1.1-2-1.6c-0.7-0.5-1.5-1-2.3-1.5c-0.4-0.2-0.8-0.5-1.2-0.7
		c-0.4-0.2-0.8-0.5-1.2-0.7c-0.4-0.2-0.7-0.5-1.1-0.7c-0.4-0.2-0.7-0.5-1-0.7c-0.3-0.2-0.6-0.5-0.9-0.7c-0.3-0.2-0.5-0.5-0.7-0.7
		c-0.2-0.3-0.4-0.5-0.5-0.8c-0.1-0.3-0.2-0.5-0.2-0.8c0-0.4,0-0.8,0-1.2c0-0.4,0-0.7,0-1c0-0.3,0-0.6,0-1c0-0.3,0-0.7,0-1
		c-0.7-0.1-1.3-0.3-1.9-0.5C47,66.3,46.5,66,46,65.6c-0.4-0.4-0.8-0.8-1-1.3c-0.2-0.5-0.4-1-0.3-1.5c0-0.6,0.2-1.2,0.5-1.7
		c0.3-0.5,0.8-1,1.3-1.4c0.6-0.4,1.2-0.7,2-0.9c0.7-0.2,1.5-0.3,2.4-0.3c0.8,0,1.6,0.1,2.4,0.3c0.7,0.2,1.4,0.5,1.9,0.9
		c0.6,0.4,1,0.9,1.3,1.4c0.3,0.5,0.5,1.1,0.5,1.7c0,0.6-0.2,1.1-0.4,1.6c-0.3,0.5-0.7,0.9-1.2,1.3c-0.5,0.4-1.1,0.7-1.8,0.9
		c-0.7,0.2-1.4,0.4-2.2,0.4c0,0.4,0,0.7,0,1c0,0.3,0,0.6,0,1c0,0.3,0,0.6,0,1c0,0.3,0,0.7,0,1.1c0,0.2,0,0.3,0.1,0.5
		c0.1,0.2,0.2,0.3,0.3,0.5c0.1,0.2,0.3,0.4,0.5,0.6c0.2,0.2,0.5,0.4,0.7,0.6c0.3,0.2,0.6,0.4,0.9,0.6c0.3,0.2,0.7,0.4,1.1,0.7
		c0.4,0.2,0.8,0.5,1.2,0.7c0.4,0.2,0.8,0.5,1.2,0.7c0.5,0.3,1,0.6,1.5,0.9c0.5,0.3,1,0.6,1.5,1c0.5,0.3,0.9,0.7,1.4,1.1
		c0.4,0.4,0.8,0.8,1.2,1.2l0-32h-4.2L63.9,40.2z"/>
</g>
<radialGradient id="path4176_1_" cx="184.2935" cy="-45.7581" r="2.397" gradientTransform="matrix(0.8198 0 0 -0.8198 -57.8203 77.2461)" gradientUnits="userSpaceOnUse">
	<stop  offset="0" style="stop-color:#9AF590"/>
	<stop  offset="1" style="stop-color:#74CE6D"/>
</radialGradient>
<circle id="path4176" class="st17" cx="93.3" cy="114.8" r="2"/>
<circle id="path4188" class="st18" cx="93.3" cy="114.8" r="0.5"/>
<g id="g4195">
	<circle id="circle4183" class="st19" cx="94.9" cy="33.5" r="33.4"/>
	<path id="circle4187" class="st20" d="M74.2,7.2C65.8,13.5,60.8,23.4,60.8,34c0,18.4,14.9,33.4,33.4,33.4c0,0,0,0,0,0
		c4.8,0,9.5-1.1,13.9-3.1l-5.2-52.4c-0.3-2.6-2.1-4.7-4.7-4.7H74.2z"/>
	<path id="circle4191" class="st20" d="M74.7,7.2c-9.4,6.2-15,16.6-15,27.8c0,18.4,14.9,33.4,33.4,33.4c0,0,0,0,0,0
		c5.2,0,10.3-1.2,15-3.6l-5.2-53c-0.3-2.6-2.1-4.7-4.7-4.7H74.7z"/>
	<path id="circle4193" class="st20" d="M75.1,7.2c-10,6-16,16.8-16.1,28.5C59,54.1,74,69.1,92.4,69.1c5.5,0,10.9-1.4,15.7-3.9
		l-5.3-53.3c-0.3-2.6-2.1-4.7-4.7-4.7H75.1z"/>
</g>
<path id="circle4189" class="st20" d="M74.4,7.2c-8.9,6.2-14.2,16.4-14.2,27.3c0,18.4,14.9,33.4,33.4,33.4c5,0,10-1.2,14.5-3.3
	l-5.2-52.7c-0.3-2.6-2.1-4.7-4.7-4.7H74.4z"/>
<linearGradient id="path4169_1_" gradientUnits="userSpaceOnUse" x1="73.2493" y1="142.2117" x2="77.5639" y2="88.0401" gradientTransform="matrix(1.0976 0 0 -1.0976 12.4372 159.7092)">
	<stop  offset="0" style="stop-color:#EBEDEE"/>
	<stop  offset="1" style="stop-color:#D7DADC"/>
</linearGradient>
<circle id="path4169" class="st21" cx="95.2" cy="32.8" r="32.4"/>
<linearGradient id="path4297_1_" gradientUnits="userSpaceOnUse" x1="94.5348" y1="72.8191" x2="95.7288" y2="119.3204" gradientTransform="matrix(1 0 0 -1 0 130)">
	<stop  offset="0" style="stop-color:#E68B09"/>
	<stop  offset="1" style="stop-color:#FCB519"/>
</linearGradient>
<circle id="path4297" class="st22" cx="95.2" cy="32.8" r="27.2"/>
<path class="st23" d="M103.4,29.8v-9.6c0-1.4-1.1-2.5-2.5-2.5H89.3c-1.4,0-2.5,1.1-2.5,2.5v9.6h-8.1l16.7,20.8l16-20.8H103.4z"/>
<path id="circle4307" class="st23" d="M95.2,5.6C80.1,5.6,68,17.8,68,32.8C68,47.9,80.1,60,95.2,60c15,0,27.2-12.2,27.2-27.2
	C122.4,17.8,110.2,5.6,95.2,5.6z M95.2,7.8c13.8,0,25,11.2,25,25c0,0,0,0,0,0c0,13.8-11.2,25-25,25c0,0,0,0,0,0
	c-13.8,0-25-11.2-25-25c0,0,0,0,0,0C70.1,19,81.3,7.8,95.2,7.8C95.2,7.8,95.2,7.8,95.2,7.8z"/>
<path id="circle4311" class="st23" d="M95.2,5.6C80.1,5.6,68,17.8,68,32.8C68,47.9,80.1,60,95.2,60c15,0,27.2-12.2,27.2-27.2
	C122.4,17.8,110.2,5.6,95.2,5.6z M95.2,7C109.4,7,121,18.6,121,32.8c0,0,0,0,0,0c0,14.3-11.6,25.8-25.8,25.8c0,0,0,0,0,0
	c-14.3,0-25.8-11.6-25.8-25.8c0,0,0,0,0,0C69.3,18.6,80.9,7,95.2,7C95.2,7,95.2,7,95.2,7z"/>
<path class="st23" d="M102.9,29.8V19.7c0-1.1-0.9-2-2-2H89.3c-1.1,0-2,0.9-2,2v10.1h-7.6l15.7,19.5l15-19.5H102.9z"/>
<linearGradient id="rect4315_1_" gradientUnits="userSpaceOnUse" x1="95.1598" y1="47.9603" x2="95.1598" y2="17.7201">
	<stop  offset="0" style="stop-color:#D7DADC"/>
	<stop  offset="1" style="stop-color:#EBEBEB"/>
</linearGradient>
<path id="rect4315" class="st24" d="M89.3,17.7c-0.8,0-1.5,0.7-1.5,1.5v10.6h-7L95.5,48l14-18.2h-7V19.2c0-0.8-0.7-1.5-1.5-1.5H89.3
	z"/>
</svg>
