<?xml version="1.0" encoding="utf-8"?>
<!-- Generator: Adobe Illustrator 22.0.1, SVG Export Plug-In . SVG Version: 6.00 Build 0)  -->
<svg version="1.1"
	 id="svg2" inkscape:version="0.92.2 2405546, 2018-03-11" sodipodi:docname="usbprog.svg" xmlns:cc="http://creativecommons.org/ns#" xmlns:dc="http://purl.org/dc/elements/1.1/" xmlns:inkscape="http://www.inkscape.org/namespaces/inkscape" xmlns:rdf="http://www.w3.org/1999/02/22-rdf-syntax-ns#" xmlns:sodipodi="http://sodipodi.sourceforge.net/DTD/sodipodi-0.dtd" xmlns:svg="http://www.w3.org/2000/svg"
	 xmlns="http://www.w3.org/2000/svg" xmlns:xlink="http://www.w3.org/1999/xlink" x="0px" y="0px" viewBox="0 0 128 128"
	 style="enable-background:new 0 0 128 128;" xml:space="preserve">
<style type="text/css">
	.st0{opacity:0.3;fill:url(#rect2723_1_);enable-background:new    ;}
	.st1{opacity:0.3;fill:url(#path2725_1_);enable-background:new    ;}
	.st2{opacity:0.3;fill:url(#path2727_1_);enable-background:new    ;}
	.st3{fill:url(#rect6431_1_);stroke:#353537;stroke-width:0.928;stroke-linecap:round;stroke-linejoin:round;}
	.st4{fill:#D2D2D3;}
	.st5{fill:url(#path6345_1_);stroke:url(#path6345_2_);stroke-width:0.9958;stroke-linecap:round;stroke-linejoin:round;}
	.st6{opacity:0.4;fill:none;stroke:#FFFFFF;stroke-linecap:round;enable-background:new    ;}
	.st7{fill:#E1E1E1;}
	.st8{fill:url(#path9009_1_);}
	.st9{fill:#F0F0F0;}
	.st10{fill:url(#path9021_1_);}
	.st11{fill:url(#path9027_1_);}
	.st12{fill:url(#rect8993_1_);}
	.st13{opacity:0.8114;fill:url(#path8995_1_);enable-background:new    ;}
	.st14{fill:url(#path9093_1_);}
	.st15{opacity:0.3;fill:url(#rect6300-3_1_);enable-background:new    ;}
	.st16{opacity:0.72;}
	.st17{fill:#393939;}
	.st18{fill:url(#path4176_1_);stroke:#76A578;stroke-width:0.4099;stroke-linecap:round;stroke-linejoin:round;}
	.st19{fill:#FFFFFF;fill-opacity:0.2966;}
	.st20{fill-opacity:1.520913e-02;}
	.st21{fill-opacity:1.520912e-02;}
	.st22{fill:url(#path4169_1_);}
	.st23{fill:url(#path4297_1_);}
	.st24{fill-opacity:6.844106e-02;}
	.st25{opacity:0.1;}
	.st26{opacity:0.1;enable-background:new    ;}
	.st27{fill:url(#Backup_2_);}
</style>
<g id="layer1">
	
		<linearGradient id="rect2723_1_" gradientUnits="userSpaceOnUse" x1="5198.3774" y1="-15740.2139" x2="5198.3774" y2="-15977.2422" gradientTransform="matrix(0.2086 0 0 -5.625201e-02 -1020.4316 -770.752)">
		<stop  offset="0" style="stop-color:#000000;stop-opacity:0"/>
		<stop  offset="0.5" style="stop-color:#000000"/>
		<stop  offset="1" style="stop-color:#000000;stop-opacity:0"/>
	</linearGradient>
	<rect id="rect2723" x="14.8" y="114.7" class="st0" width="98.3" height="13.3"/>
	
		<radialGradient id="path2725_1_" cx="9728.3711" cy="-15857.334" r="114.3315" gradientTransform="matrix(0.1225 0 0 -5.625201e-02 -1078.3314 -770.752)" gradientUnits="userSpaceOnUse">
		<stop  offset="0" style="stop-color:#000000"/>
		<stop  offset="1" style="stop-color:#000000;stop-opacity:0"/>
	</radialGradient>
	<path id="path2725" class="st1" d="M113.1,114.7V128c6.2,0,14.9-3,14.9-6.7C128,117.7,121.1,114.7,113.1,114.7z"/>
	
		<radialGradient id="path2727_1_" cx="-11086.8008" cy="-15857.334" r="114.3315" gradientTransform="matrix(-0.1225 0 0 -5.625201e-02 -1343.6686 -770.752)" gradientUnits="userSpaceOnUse">
		<stop  offset="0" style="stop-color:#000000"/>
		<stop  offset="1" style="stop-color:#000000;stop-opacity:0"/>
	</radialGradient>
	<path id="path2727" class="st2" d="M14.9,114.7V128C8.7,128,0,125,0,121.3C0,117.7,6.9,114.7,14.9,114.7z"/>
	
		<linearGradient id="rect6431_1_" gradientUnits="userSpaceOnUse" x1="-787.3367" y1="-174.758" x2="-787.2758" y2="-183.542" gradientTransform="matrix(2.7798 0 0 -2.0107 2252.6294 -246.7245)">
		<stop  offset="0" style="stop-color:#7A7A7A"/>
		<stop  offset="1" style="stop-color:#474747"/>
	</linearGradient>
	<path id="rect6431" class="st3" d="M3,105.6h122l-2.4,15.7H5.7L3,105.6L3,105.6z"/>
	<rect id="rect6381" x="3.2" y="103.5" class="st4" width="121.7" height="2.7"/>
	
		<radialGradient id="path6345_1_" cx="-904.897" cy="225.8537" r="22.4947" gradientTransform="matrix(3.8158 1.955 1.2975 -2.592 3191.7712 2395.8191)" gradientUnits="userSpaceOnUse">
		<stop  offset="0" style="stop-color:#E6E6E6"/>
		<stop  offset="1" style="stop-color:#C8C8C8"/>
	</radialGradient>
	
		<linearGradient id="path6345_2_" gradientUnits="userSpaceOnUse" x1="-790.8961" y1="-39.6687" x2="-790.643" y2="-20.3306" gradientTransform="matrix(2.7717 0 0 -2.8041 2256.3994 -26.6748)">
		<stop  offset="0" style="stop-color:#969696"/>
		<stop  offset="1" style="stop-color:#B4B4B4"/>
	</linearGradient>
	<path id="path6345" class="st5" d="M125,105.7l-18.4-70.5c-0.5-2-3.2-3.6-5.5-3.6H26.3c-3.5,0-5.5,0.5-6.3,3.6L3,105.6"/>
	<path id="path7046" class="st6" d="M124,105.7H4"/>
	<path id="path9007" class="st7" d="M16.2,99.3c-0.1,1.6-2,2.9-4.1,2.9c-2.2,0-3.8-1.3-3.7-2.9s2-2.9,4.1-2.9
		C14.7,96.4,16.3,97.7,16.2,99.3L16.2,99.3z"/>
	
		<radialGradient id="path9009_1_" cx="-2429.4727" cy="-696.9805" r="2.5028" fx="-2428.8853" fy="-696.5781" gradientTransform="matrix(-1.0069 0 0 -0.9756 -2433.9446 -580.646)" gradientUnits="userSpaceOnUse">
		<stop  offset="0" style="stop-color:#EEEEEE"/>
		<stop  offset="0.16" style="stop-color:#CECECE"/>
		<stop  offset="0.4675" style="stop-color:#888888"/>
		<stop  offset="1" style="stop-color:#555555"/>
	</radialGradient>
	<path id="path9009" class="st8" d="M14.8,98.2c0.2,0.2,0.4,0.5,0.4,1v0.1c-0.1,1.1-1.5,2.1-3.2,2.1c-0.9,0-1.8-0.3-2.3-0.8
		c-0.2-0.2-0.5-0.6-0.4-1.1c0.1-1.1,1.5-2,3.2-2C13.4,97.4,14.3,97.7,14.8,98.2L14.8,98.2L14.8,98.2L14.8,98.2z"/>
	<path id="path9019" class="st9" d="M22.1,34.5c0.2,1,1.7,1.6,3.3,1.2c1.6-0.3,2.7-1.5,2.5-2.5s-1.7-1.6-3.3-1.2
		C22.9,32.4,21.8,33.5,22.1,34.5z"/>
	
		<radialGradient id="path9021_1_" cx="343.6347" cy="-1574.6881" r="2.5009" fx="344.2217" fy="-1574.286" gradientTransform="matrix(0.7478 -0.1586 -8.422800e-02 -0.63 -364.6414 -903.6154)" gradientUnits="userSpaceOnUse">
		<stop  offset="0" style="stop-color:#EEEEEE"/>
		<stop  offset="0.16" style="stop-color:#CECECE"/>
		<stop  offset="0.4675" style="stop-color:#888888"/>
		<stop  offset="1" style="stop-color:#555555"/>
	</radialGradient>
	<path id="path9021" class="st10" d="M23,33.6c-0.1,0.2-0.3,0.4-0.2,0.7c0,0,0,0,0,0.1c0.2,0.7,1.3,1.1,2.5,0.8
		c0.7-0.1,1.3-0.5,1.6-0.9c0.1-0.2,0.3-0.5,0.2-0.8c-0.2-0.7-1.3-1.1-2.5-0.8C23.9,32.8,23.3,33.2,23,33.6L23,33.6L23,33.6z"/>
	<path id="path9025" class="st7" d="M98.2,33.4c0,1,1.3,2.1,2.9,2.4c1.6,0.3,3-0.3,3-1.3s-1.3-2.1-2.9-2.4
		C99.5,31.8,98.2,32.4,98.2,33.4z"/>
	
		<radialGradient id="path9027_1_" cx="628.3457" cy="-822.468" r="2.5022" fx="628.9329" fy="-822.0657" gradientTransform="matrix(0.7565 0.1411 7.792703e-02 -0.613 -310.1615 -558.9031)" gradientUnits="userSpaceOnUse">
		<stop  offset="0" style="stop-color:#EEEEEE"/>
		<stop  offset="0.16" style="stop-color:#CECECE"/>
		<stop  offset="0.4675" style="stop-color:#888888"/>
		<stop  offset="1" style="stop-color:#555555"/>
	</radialGradient>
	<path id="path9027" class="st11" d="M99.3,32.9c-0.2,0.1-0.4,0.3-0.4,0.6c0,0,0,0,0,0.1c0,0.7,1,1.5,2.2,1.7
		c0.7,0.1,1.4,0.1,1.8-0.2c0.2-0.1,0.4-0.3,0.4-0.6c0-0.7-1-1.5-2.2-1.7C100.4,32.5,99.7,32.6,99.3,32.9L99.3,32.9L99.3,32.9
		L99.3,32.9z"/>
	
		<linearGradient id="rect8993_1_" gradientUnits="userSpaceOnUse" x1="-814.6995" y1="-57.357" x2="-797.4975" y2="-57.357" gradientTransform="matrix(2.8154 0 0 -2.6966 2315.1321 -41.1689)">
		<stop  offset="0" style="stop-color:#000000"/>
		<stop  offset="1" style="stop-color:#000000;stop-opacity:0"/>
	</linearGradient>
	<path id="rect8993" class="st12" d="M20.1,106.2h49.8v14.6H21.4L20.1,106.2z"/>
	
		<linearGradient id="path8995_1_" gradientUnits="userSpaceOnUse" x1="-801.3191" y1="-26.9432" x2="-801.3734" y2="-23.5788" gradientTransform="matrix(2.7759 0 0 -2.9914 2262.5383 41.4863)">
		<stop  offset="0" style="stop-color:#EEEEEE"/>
		<stop  offset="1" style="stop-color:#EEEEEE;stop-opacity:0"/>
	</linearGradient>
	<path id="path8995" class="st13" d="M21.1,120.8L20,109.1c5,9.3,23.5,11.7,36.1,11.7L21.1,120.8L21.1,120.8z"/>
	<path id="path9091" class="st7" d="M111.8,99.3c0.1,1.6,2,2.9,4.1,2.9c2.2,0,3.8-1.3,3.7-2.9c-0.1-1.6-2-2.9-4.1-2.9
		C113.3,96.4,111.7,97.7,111.8,99.3L111.8,99.3z"/>
	
		<radialGradient id="path9093_1_" cx="103.0761" cy="-696.9805" r="2.5021" fx="103.6634" fy="-696.5782" gradientTransform="matrix(1.0069 0 0 -0.9756 11.9446 -580.646)" gradientUnits="userSpaceOnUse">
		<stop  offset="0" style="stop-color:#EEEEEE"/>
		<stop  offset="0.16" style="stop-color:#CECECE"/>
		<stop  offset="0.4675" style="stop-color:#888888"/>
		<stop  offset="1" style="stop-color:#555555"/>
	</radialGradient>
	<path id="path9093" class="st14" d="M113.2,98.2c-0.2,0.2-0.4,0.5-0.4,1v0.1c0.1,1.1,1.5,2.1,3.2,2.1c0.9,0,1.8-0.3,2.3-0.8
		c0.2-0.2,0.5-0.6,0.4-1.1c-0.1-1.1-1.5-2-3.2-2C114.6,97.4,113.7,97.7,113.2,98.2L113.2,98.2L113.2,98.2L113.2,98.2z"/>
	
		<radialGradient id="rect6300-3_1_" cx="-797.1846" cy="-560.1988" r="20.497" gradientTransform="matrix(2.8095 0 0 -1.0714 2303.6899 -486.7144)" gradientUnits="userSpaceOnUse">
		<stop  offset="0" style="stop-color:#FFFFFF"/>
		<stop  offset="1" style="stop-color:#FFFFFF;stop-opacity:0"/>
	</radialGradient>
	<rect id="rect6300-3" x="6.4" y="106.2" class="st15" width="115.2" height="14.6"/>
</g>
<g class="st16">
	<path class="st17" d="M94.3,51.1l0.5,10.8l-6.6,10.2h7.1l0.6,11.5c0,0.4-0.1,0.8-0.3,1.2c-0.2,0.4-0.6,0.7-1,1s-0.9,0.5-1.5,0.7
		s-1.2,0.2-1.9,0.2H36.8c-0.7,0-1.3-0.1-1.9-0.2c-0.6-0.2-1.1-0.4-1.5-0.7c-0.4-0.3-0.8-0.6-1-1s-0.3-0.8-0.3-1.2l0.6-11.5l7.5-10.2
		h-7l0.5-10.8c0-0.4,0.2-0.8,0.4-1.1c0.3-0.3,0.6-0.6,1-0.9c0.4-0.3,0.9-0.5,1.5-0.6s1.2-0.2,1.8-0.2h51.2c0.6,0,1.3,0.1,1.8,0.2
		c0.6,0.1,1.1,0.3,1.5,0.6s0.8,0.6,1,0.9C94.2,50.3,94.3,50.7,94.3,51.1z M71.8,82.1c0.3-0.2,0.5-0.4,0.6-0.6s0.2-0.5,0.2-0.7
		s-0.1-0.5-0.2-0.7s-0.4-0.4-0.7-0.6c-0.1-0.1-0.3-0.2-0.5-0.2c-0.2-0.1-0.3-0.1-0.5-0.2c-0.2,0-0.4-0.1-0.5-0.1c-0.2,0-0.4,0-0.6,0
		s-0.4,0-0.6,0s-0.3,0-0.4,0c-0.2,0-0.3,0.1-0.5,0.2s-0.3,0.1-0.5,0.2c-0.3,0.2-0.5,0.4-0.6,0.6s-0.2,0.5-0.2,0.7s0.1,0.5,0.2,0.7
		s0.4,0.4,0.7,0.6c0.1,0.1,0.3,0.2,0.5,0.2c0.2,0.1,0.3,0.1,0.5,0.2c0.2,0,0.4,0.1,0.6,0.1s0.4,0,0.6,0s0.4,0,0.6,0s0.4-0.1,0.5-0.1
		c0.2,0,0.4-0.1,0.5-0.2C71.4,82.3,71.7,82.2,71.8,82.1 M61.9,68.9c-0.3,0.2-0.5,0.4-0.6,0.6s-0.2,0.4-0.2,0.7
		c0,0.2,0.1,0.5,0.2,0.7s0.4,0.4,0.6,0.6c0.1,0.1,0.3,0.2,0.5,0.2c0.2,0.1,0.3,0.1,0.5,0.2c0.2,0,0.4,0.1,0.5,0.1c0.2,0,0.4,0,0.6,0
		s0.4,0,0.6,0s0.4-0.1,0.5-0.1c0.2,0,0.3-0.1,0.5-0.2s0.3-0.1,0.5-0.2c0.3-0.2,0.5-0.4,0.6-0.6s0.2-0.4,0.2-0.7
		c0-0.2-0.1-0.5-0.2-0.7s-0.4-0.4-0.6-0.6c-0.1-0.1-0.3-0.2-0.5-0.2c-0.2-0.1-0.3-0.1-0.5-0.2c-0.2,0-0.4-0.1-0.5-0.1
		c-0.2,0-0.4,0-0.6,0s-0.4,0-0.6,0s-0.4,0.1-0.5,0.1c-0.2,0-0.3,0.1-0.5,0.2C62.2,68.7,62.1,68.8,61.9,68.9 M83.2,82.1
		c0.3-0.2,0.5-0.4,0.6-0.6S84,81,84,80.8s-0.1-0.5-0.2-0.7c-0.2-0.2-0.4-0.4-0.7-0.6c-0.1-0.1-0.3-0.2-0.5-0.2
		c-0.2-0.1-0.3-0.1-0.5-0.2c-0.2,0-0.4-0.1-0.5-0.1c-0.2,0-0.4,0-0.6,0s-0.4,0-0.6,0s-0.4,0.1-0.5,0.1c-0.2,0-0.3,0.1-0.5,0.2
		s-0.3,0.1-0.5,0.2c-0.3,0.2-0.5,0.4-0.6,0.6s-0.2,0.5-0.2,0.7s0.1,0.5,0.2,0.7s0.4,0.4,0.7,0.6c0.1,0.1,0.3,0.2,0.5,0.2
		c0.2,0.1,0.3,0.1,0.5,0.2c0.2,0,0.4,0.1,0.6,0.1s0.4,0,0.6,0s0.4,0,0.6,0s0.4-0.1,0.5-0.1c0.2,0,0.3-0.1,0.5-0.2
		C82.8,82.3,83.1,82.2,83.2,82.1 M60.3,82.1c0.3-0.2,0.5-0.4,0.7-0.6c0.1-0.2,0.2-0.5,0.2-0.7s-0.1-0.5-0.2-0.7s-0.4-0.4-0.6-0.6
		c-0.1-0.1-0.3-0.2-0.5-0.2c-0.2-0.1-0.3-0.1-0.5-0.2c-0.2,0-0.4-0.1-0.5-0.1c-0.2,0-0.4,0-0.6,0c-0.2,0-0.4,0-0.6,0
		c-0.2,0-0.4,0.1-0.5,0.1c-0.2,0-0.4,0.1-0.5,0.2c-0.2,0.1-0.3,0.1-0.5,0.2c-0.3,0.2-0.5,0.4-0.7,0.6c-0.1,0.2-0.2,0.5-0.2,0.7
		s0.1,0.5,0.2,0.7s0.4,0.4,0.6,0.6c0.1,0.1,0.3,0.2,0.5,0.2c0.2,0.1,0.3,0.1,0.5,0.2c0.2,0,0.4,0.1,0.5,0.1c0.2,0,0.4,0,0.6,0
		c0.2,0,0.4,0,0.6,0c0.2,0,0.4-0.1,0.6-0.1c0.2,0,0.4-0.1,0.5-0.2C60.1,82.3,60.2,82.2,60.3,82.1 M60.3,74.9
		c0.3-0.2,0.5-0.4,0.6-0.6s0.2-0.5,0.2-0.7s-0.1-0.5-0.2-0.7c-0.1-0.2-0.4-0.4-0.6-0.6c-0.1-0.1-0.3-0.2-0.5-0.2
		c-0.1,0-0.2-0.1-0.4-0.1s-0.4-0.1-0.5-0.1c-0.2,0-0.4,0-0.6,0s-0.4,0-0.6,0S57.3,72,57.2,72c-0.2,0-0.3,0.1-0.5,0.2
		s-0.3,0.1-0.5,0.2c-0.3,0.2-0.5,0.4-0.6,0.6s-0.2,0.5-0.2,0.7s0.1,0.5,0.2,0.7s0.4,0.4,0.6,0.6c0.1,0.1,0.3,0.2,0.5,0.2
		c0.2,0.1,0.3,0.1,0.5,0.2c0.2,0,0.4,0.1,0.5,0.1c0.2,0,0.4,0,0.6,0s0.4,0,0.6,0c0.2,0,0.4-0.1,0.5-0.1c0.2,0,0.3-0.1,0.5-0.2
		C60.1,75.1,60.2,75,60.3,74.9 M63.9,79c0.2,0,0.4,0,0.6,0s0.4-0.1,0.5-0.1c0.2,0,0.3-0.1,0.5-0.2s0.3-0.1,0.5-0.2
		c0.3-0.2,0.5-0.4,0.6-0.6s0.2-0.5,0.2-0.7s-0.1-0.5-0.2-0.7s-0.4-0.4-0.6-0.6c-0.1-0.1-0.3-0.2-0.5-0.2c-0.2-0.1-0.3-0.1-0.5-0.2
		c-0.2,0-0.4-0.1-0.5-0.1c-0.2,0-0.4,0-0.6,0s-0.4,0-0.6,0s-0.4,0.1-0.5,0.1c-0.2,0-0.3,0.1-0.5,0.2s-0.3,0.1-0.5,0.2
		c-0.3,0.2-0.5,0.4-0.6,0.6S61,77,61,77.2s0.1,0.5,0.2,0.7s0.4,0.4,0.6,0.6c0.1,0.1,0.3,0.2,0.5,0.2c0.2,0.1,0.3,0.1,0.5,0.2
		c0.2,0,0.4,0.1,0.5,0.1C63.6,79,63.8,79,63.9,79 M75.2,79c0.2,0,0.4,0,0.6,0s0.4-0.1,0.5-0.1c0.2,0,0.3-0.1,0.5-0.2
		s0.3-0.1,0.5-0.2c0.3-0.2,0.5-0.4,0.6-0.6s0.2-0.5,0.2-0.7s-0.1-0.5-0.2-0.7s-0.4-0.4-0.7-0.6c-0.1-0.1-0.3-0.2-0.5-0.2
		c-0.2-0.1-0.3-0.1-0.5-0.2c-0.2,0-0.4-0.1-0.5-0.1c-0.2,0-0.4,0-0.6,0s-0.4,0-0.6,0s-0.4,0.1-0.5,0.1c-0.2,0-0.3,0.1-0.5,0.2
		s-0.3,0.1-0.5,0.2c-0.3,0.2-0.5,0.4-0.6,0.6s-0.2,0.5-0.2,0.7s0.1,0.5,0.2,0.7s0.4,0.4,0.7,0.6c0.1,0.1,0.3,0.2,0.5,0.2
		c0.2,0.1,0.3,0.1,0.5,0.2c0.2,0,0.4,0.1,0.5,0.1C74.9,79,75.2,79,75.2,79 M67.6,72.4c-0.3,0.2-0.5,0.4-0.6,0.6s-0.2,0.5-0.2,0.7
		s0.1,0.5,0.2,0.7s0.4,0.4,0.6,0.6c0.1,0.1,0.3,0.2,0.5,0.2c0.2,0.1,0.3,0.1,0.5,0.2c0.2,0,0.4,0.1,0.5,0.1c0.2,0,0.4,0,0.6,0
		s0.4,0,0.6,0s0.4-0.1,0.5-0.1c0.2,0,0.3-0.1,0.5-0.2s0.3-0.1,0.5-0.2c0.3-0.2,0.5-0.4,0.6-0.6s0.2-0.5,0.2-0.7s-0.1-0.5-0.2-0.7
		s-0.4-0.4-0.6-0.6c-0.1-0.1-0.3-0.2-0.5-0.2c-0.2-0.1-0.3-0.1-0.5-0.2c-0.2,0-0.4-0.1-0.5-0.1c-0.2,0-0.4,0-0.6,0s-0.4,0-0.6,0
		S68.7,72,68.6,72c-0.2,0-0.3,0.1-0.5,0.2C67.8,72.2,67.7,72.3,67.6,72.4 M48.8,82.1c0.3-0.2,0.5-0.4,0.7-0.6
		c0.2-0.3,0.2-0.5,0.2-0.7s-0.1-0.5-0.2-0.7s-0.4-0.4-0.6-0.6c-0.1-0.1-0.3-0.2-0.5-0.2c-0.2-0.1-0.3-0.1-0.5-0.2
		c-0.2,0-0.4-0.1-0.5-0.1c-0.2,0-0.4,0-0.6,0c-0.2,0-0.4,0-0.6,0c-0.1,0-0.3,0-0.5,0s-0.4,0.1-0.5,0.2c-0.2,0.1-0.3,0.1-0.5,0.2
		c-0.3,0.2-0.5,0.4-0.7,0.6s-0.2,0.5-0.2,0.7s0.1,0.5,0.2,0.7s0.3,0.4,0.6,0.6c0.1,0.1,0.3,0.2,0.5,0.2c0.2,0.1,0.3,0.1,0.5,0.2
		c0.2,0,0.4,0.1,0.5,0.1c0.2,0,0.4,0,0.6,0c0.2,0,0.4,0,0.6,0c0.2,0,0.4-0.1,0.6-0.1c0.2,0,0.4-0.1,0.5-0.2
		C48.6,82.2,48.8,82.2,48.8,82.1 M52.6,79c0.2,0,0.4,0,0.6,0s0.4-0.1,0.5-0.1c0.2,0,0.4-0.1,0.5-0.2c0.2-0.1,0.3-0.1,0.5-0.2
		c0.3-0.2,0.5-0.4,0.7-0.6c0.1-0.2,0.2-0.5,0.2-0.7s-0.1-0.5-0.2-0.7c-0.1-0.2-0.4-0.4-0.6-0.6c-0.1-0.1-0.3-0.2-0.5-0.2
		c-0.2-0.1-0.3-0.1-0.5-0.2c-0.2,0-0.4-0.1-0.5-0.1c-0.2,0-0.4,0-0.6,0s-0.4,0-0.6,0s-0.4,0.1-0.5,0.1c-0.2,0-0.4,0.1-0.5,0.2
		c-0.2,0.1-0.3,0.1-0.5,0.2c-0.3,0.2-0.5,0.4-0.7,0.6c-0.1,0.2-0.2,0.5-0.2,0.7s0.1,0.5,0.2,0.7c0.1,0.2,0.4,0.4,0.6,0.6
		c0.1,0.1,0.3,0.2,0.5,0.2c0.2,0.1,0.3,0.1,0.5,0.2c0.2,0,0.4,0.1,0.5,0.1C52.2,79,52.3,79,52.6,79 M62.8,58.6
		c-0.2,0.1-0.3,0.2-0.4,0.3s-0.1,0.2-0.1,0.4c0,0.1,0,0.3,0.1,0.4c0.1,0.1,0.2,0.2,0.4,0.3c0.1,0,0.2,0.1,0.3,0.1s0.2,0.1,0.3,0.1
		s0.2,0,0.3,0.1c0.1,0,0.2,0,0.3,0c0.1,0,0.2,0,0.3,0s0.2,0,0.3-0.1c0.1,0,0.2-0.1,0.3-0.1c0.1,0,0.2-0.1,0.3-0.1
		c0.2-0.1,0.3-0.2,0.4-0.3s0.1-0.2,0.1-0.4c0-0.1,0-0.3-0.1-0.4c-0.1-0.1-0.2-0.2-0.4-0.3c-0.1,0-0.2-0.1-0.3-0.1
		c-0.1,0-0.2-0.1-0.3-0.1c-0.1,0-0.2,0-0.3-0.1c-0.1,0-0.2,0-0.3,0s-0.2,0-0.3,0s-0.2,0-0.3,0.1c-0.1,0-0.2,0.1-0.3,0.1
		C62.9,58.5,62.8,58.6,62.8,58.6 M48.8,54.3c-0.2,0.1-0.3,0.2-0.4,0.3c-0.1,0.1-0.1,0.2-0.1,0.4c0,0.1,0,0.3,0.1,0.4
		c0.1,0.1,0.2,0.2,0.4,0.3c0.1,0,0.2,0.1,0.3,0.1s0.2,0.1,0.3,0.1s0.2,0,0.3,0.1c0.1,0,0.2,0,0.3,0s0.2,0,0.3,0s0.2,0,0.3-0.1
		c0.1,0,0.2-0.1,0.3-0.1s0.2-0.1,0.3-0.1c0.2-0.1,0.3-0.2,0.4-0.3s0.1-0.2,0.1-0.4c0-0.1,0-0.3-0.1-0.4c-0.1-0.1-0.2-0.2-0.4-0.3
		c-0.1,0-0.2-0.1-0.3-0.1s-0.2-0.1-0.3-0.1s-0.2,0-0.3-0.1c-0.1,0-0.2,0-0.3,0s-0.2,0-0.3,0s-0.2,0-0.3,0.1c-0.1,0-0.2,0.1-0.3,0.1
		C48.8,54.2,48.8,54.3,48.8,54.3 M52.2,52.2c-0.2,0.1-0.3,0.2-0.4,0.3c-0.1,0.1-0.1,0.2-0.1,0.4c0,0.1,0,0.3,0.1,0.4
		c0.1,0.1,0.2,0.2,0.4,0.3c0.1,0,0.2,0.1,0.3,0.1s0.2,0.1,0.3,0.1s0.2,0,0.3,0.1c0.1,0,0.2,0,0.3,0s0.2,0,0.3,0s0.2,0,0.3-0.1
		c0.1,0,0.2-0.1,0.3-0.1s0.2-0.1,0.3-0.1c0.2-0.1,0.3-0.2,0.4-0.3s0.1-0.2,0.1-0.4c0-0.1,0-0.3-0.1-0.4c-0.1-0.1-0.2-0.2-0.4-0.3
		c-0.1,0-0.2-0.1-0.3-0.1S54.2,52,54.1,52c-0.1,0-0.2,0-0.3-0.1c-0.1,0-0.2,0-0.3,0s-0.2,0-0.3,0s-0.2,0-0.3,0.1
		c-0.1,0-0.2,0.1-0.3,0.1S52.3,52.1,52.2,52.2 M52.2,56.5c-0.2,0.1-0.3,0.2-0.4,0.3c-0.1,0.1-0.1,0.2-0.1,0.4c0,0.1,0,0.3,0.1,0.4
		c0.1,0.1,0.2,0.2,0.4,0.3c0.1,0,0.2,0.1,0.3,0.1s0.2,0.1,0.3,0.1s0.2,0,0.3,0.1s0.2,0,0.3,0s0.2,0,0.3,0s0.2,0,0.3-0.1
		c0.1,0,0.2-0.1,0.3-0.1s0.2-0.1,0.3-0.1c0.2-0.1,0.3-0.2,0.4-0.3s0.1-0.2,0.1-0.4c0-0.1,0-0.3-0.1-0.4c-0.1-0.1-0.2-0.2-0.4-0.3
		c-0.1,0-0.2-0.1-0.3-0.1s-0.2-0.1-0.3-0.1s-0.2,0-0.3-0.1c-0.1,0-0.2,0-0.3,0s-0.2,0-0.3,0s-0.2,0-0.3,0.1c-0.1,0-0.2,0.1-0.3,0.1
		C52.3,56.4,52.2,56.4,52.2,56.5 M55.8,58.6c-0.2,0.1-0.3,0.2-0.4,0.3c-0.1,0.1-0.1,0.2-0.1,0.4c0,0.1,0,0.3,0.1,0.4
		c0.1,0.1,0.2,0.2,0.4,0.3c0.1,0,0.2,0.1,0.3,0.1s0.2,0.1,0.3,0.1s0.2,0,0.3,0.1s0.2,0,0.3,0s0.2,0,0.3,0s0.2,0,0.3-0.1
		c0.1,0,0.2-0.1,0.3-0.1S58,60,58.1,60c0.2-0.1,0.3-0.2,0.4-0.3s0.1-0.2,0.1-0.4c0-0.1,0-0.3-0.1-0.4c-0.1-0.1-0.2-0.2-0.4-0.3
		c-0.1,0-0.2-0.1-0.3-0.1s-0.2-0.1-0.3-0.1s-0.2,0-0.3-0.1c-0.1,0-0.2,0-0.3,0s-0.2,0-0.3,0s-0.2,0-0.3,0.1c-0.1,0-0.2,0.1-0.3,0.1
		C55.8,58.5,55.8,58.6,55.8,58.6 M59.2,60.7c-0.2,0.1-0.3,0.2-0.4,0.3c-0.1,0.2-0.1,0.3-0.1,0.4c0,0.1,0,0.3,0.1,0.4
		c0.1,0.1,0.2,0.2,0.4,0.3c0.1,0,0.2,0.1,0.3,0.1s0.2,0.1,0.3,0.1s0.2,0,0.3,0.1c0.1,0,0.2,0,0.3,0s0.2,0,0.3,0s0.2,0,0.3-0.1
		c0.1,0,0.2-0.1,0.3-0.1s0.2-0.1,0.3-0.1c0.2-0.1,0.3-0.2,0.4-0.3s0.1-0.3,0.1-0.4c0-0.1,0-0.3-0.1-0.4c-0.1-0.1-0.2-0.2-0.4-0.3
		c-0.1,0-0.2-0.1-0.3-0.1s-0.2-0.1-0.3-0.1s-0.2,0-0.3-0.1c-0.1,0-0.2,0-0.3,0s-0.2,0-0.3,0s-0.2,0-0.3,0.1c-0.1,0-0.2,0.1-0.3,0.1
		C59.5,60.6,59.3,60.7,59.2,60.7 M69.8,54.3c-0.2,0.1-0.3,0.2-0.4,0.3s-0.1,0.2-0.1,0.4c0,0.1,0,0.3,0.1,0.4
		c0.1,0.1,0.2,0.2,0.4,0.3c0.1,0,0.2,0.1,0.3,0.1s0.2,0.1,0.3,0.1c0.1,0,0.2,0,0.3,0.1c0.1,0,0.2,0,0.3,0c0.1,0,0.2,0,0.3,0
		c0.1,0,0.2,0,0.3-0.1c0.1,0,0.2-0.1,0.3-0.1c0.1,0,0.2-0.1,0.3-0.1c0.2-0.1,0.3-0.2,0.4-0.3s0.1-0.2,0.1-0.4c0-0.1,0-0.3-0.1-0.4
		c-0.1-0.1-0.2-0.2-0.4-0.3c-0.1,0-0.2-0.1-0.3-0.1c-0.1,0-0.2-0.1-0.3-0.1s-0.2,0-0.3-0.1c-0.1,0-0.2,0-0.3,0c-0.1,0-0.2,0-0.3,0
		c-0.1,0-0.2,0-0.3,0.1s-0.2,0.1-0.3,0.1C70.1,54.2,69.9,54.2,69.8,54.3 M62.8,62.9c-0.2,0.1-0.3,0.2-0.4,0.3s-0.1,0.3-0.1,0.4
		c0,0.1,0,0.3,0.1,0.4s0.2,0.2,0.4,0.3c0.1,0,0.2,0.1,0.3,0.1s0.2,0.1,0.3,0.1s0.2,0,0.3,0.1c0.1,0,0.2,0,0.3,0c0.1,0,0.2,0,0.3,0
		s0.2,0,0.3-0.1c0.1,0,0.2-0.1,0.3-0.1c0.1,0,0.2-0.1,0.3-0.1c0.2-0.1,0.3-0.2,0.4-0.3c0.1-0.1,0.1-0.3,0.1-0.4c0-0.1,0-0.3-0.1-0.4
		c-0.1-0.1-0.2-0.2-0.4-0.3c-0.1,0-0.2-0.1-0.3-0.1c-0.1,0-0.2-0.1-0.3-0.1s-0.2,0-0.3-0.1c-0.1,0-0.2,0-0.3,0c-0.1,0-0.2,0-0.3,0
		s-0.2,0-0.3,0.1s-0.2,0.1-0.3,0.1S62.8,62.9,62.8,62.9 M62.8,54.3c-0.2,0.1-0.3,0.2-0.4,0.3s-0.1,0.2-0.1,0.4c0,0.1,0,0.3,0.1,0.4
		c0.1,0.1,0.2,0.2,0.4,0.3c0.1,0,0.2,0.1,0.3,0.1s0.2,0.1,0.3,0.1s0.2,0,0.3,0.1c0.1,0,0.2,0,0.3,0c0.1,0,0.2,0,0.3,0s0.2,0,0.3-0.1
		c0.1,0,0.2-0.1,0.3-0.1c0.1,0,0.2-0.1,0.3-0.1c0.2-0.1,0.3-0.2,0.4-0.3s0.1-0.2,0.1-0.4c0-0.1,0-0.3-0.1-0.4
		c-0.1-0.1-0.2-0.2-0.4-0.3c-0.1,0-0.2-0.1-0.3-0.1c-0.1,0-0.2-0.1-0.3-0.1c-0.1,0-0.2,0-0.3-0.1c-0.1,0-0.2,0-0.3,0
		c-0.1,0-0.2,0-0.3,0s-0.2,0-0.3,0.1c-0.1,0-0.2,0.1-0.3,0.1C62.9,54.2,62.9,54.3,62.8,54.3 M55.8,54.3c-0.2,0.1-0.3,0.2-0.4,0.3
		c-0.1,0.1-0.1,0.2-0.1,0.4c0,0.1,0,0.3,0.1,0.4c0.1,0.1,0.2,0.2,0.4,0.3c0.1,0,0.2,0.1,0.3,0.1s0.2,0.1,0.3,0.1s0.2,0,0.3,0.1
		c0.1,0,0.2,0,0.3,0s0.2,0,0.3,0s0.2,0,0.3-0.1c0.1,0,0.2-0.1,0.3-0.1s0.2-0.1,0.3-0.1c0.2-0.1,0.3-0.2,0.4-0.3s0.1-0.2,0.1-0.4
		c0-0.1,0-0.3-0.1-0.4c-0.1-0.1-0.2-0.2-0.4-0.3c-0.1,0-0.2-0.1-0.3-0.1s-0.2-0.1-0.3-0.1s-0.2,0-0.3-0.1s-0.2,0-0.3,0s-0.2,0-0.3,0
		s-0.2,0-0.3,0.1c-0.1,0-0.2,0.1-0.3,0.1S55.8,54.3,55.8,54.3 M59.2,56.4c-0.2,0.1-0.3,0.2-0.4,0.3c0,0.2-0.1,0.3-0.1,0.4
		s0,0.3,0.1,0.4c0.1,0.1,0.2,0.2,0.4,0.3c0.1,0,0.2,0.1,0.3,0.1s0.2,0.1,0.3,0.1s0.2,0,0.3,0.1c0.1,0,0.2,0,0.3,0s0.2,0,0.3,0
		s0.2,0,0.3-0.1c0.1,0,0.2-0.1,0.3-0.1s0.2-0.1,0.3-0.1c0.2-0.1,0.3-0.2,0.4-0.3s0.1-0.2,0.1-0.4c0-0.1,0-0.3-0.1-0.4
		c-0.1-0.1-0.2-0.2-0.4-0.3c-0.1,0-0.2-0.1-0.3-0.1s-0.2-0.1-0.3-0.1s-0.2,0-0.3-0.1s-0.2,0-0.3,0s-0.2,0-0.3,0s-0.2,0-0.3,0.1
		c-0.1,0-0.2,0.1-0.3,0.1S59.3,56.4,59.2,56.4 M73.3,52.1c-0.2,0.1-0.3,0.2-0.3,0.3c-0.1,0.1-0.1,0.2-0.1,0.4c0,0.1,0,0.3,0.1,0.4
		c0.1,0.1,0.2,0.2,0.4,0.3c0.1,0,0.2,0.1,0.3,0.1c0.1,0,0.2,0.1,0.3,0.1c0.1,0,0.2,0,0.3,0.1c0.1,0,0.2,0,0.3,0c0.1,0,0.2,0,0.3,0
		c0.1,0,0.2,0,0.3-0.1c0.1,0,0.2-0.1,0.3-0.1s0.2-0.1,0.3-0.1c0.2-0.1,0.3-0.2,0.4-0.3s0.1-0.2,0.1-0.4c0-0.1,0-0.2-0.1-0.4
		c-0.1-0.1-0.2-0.2-0.4-0.3c-0.1,0-0.2-0.1-0.3-0.1c-0.1,0-0.2-0.1-0.3-0.1c-0.1,0-0.2,0-0.3-0.1s-0.2,0-0.3,0c-0.1,0-0.2,0-0.3,0
		s-0.2,0-0.3,0.1C73.8,52,73.8,52,73.7,52C73.6,52.1,73.4,52.1,73.3,52.1 M76.9,54.3c-0.2,0.1-0.3,0.2-0.4,0.3s-0.1,0.2-0.1,0.4
		c0,0.1,0,0.3,0.1,0.4c0.1,0.1,0.2,0.2,0.4,0.3c0.1,0,0.2,0.1,0.3,0.1c0.1,0,0.2,0.1,0.3,0.1c0.1,0,0.2,0,0.3,0.1c0.1,0,0.2,0,0.3,0
		s0.2,0,0.3,0s0.2,0,0.3-0.1c0.1,0,0.2-0.1,0.3-0.1c0.1,0,0.2-0.1,0.3-0.1c0.2-0.1,0.3-0.2,0.4-0.3s0.1-0.2,0.1-0.4
		c0-0.1,0-0.3-0.1-0.4c-0.1-0.1-0.2-0.2-0.4-0.3c-0.1,0-0.2-0.1-0.3-0.1c-0.1,0-0.2-0.1-0.3-0.1c-0.1,0-0.2,0-0.3-0.1
		c-0.1,0-0.2,0-0.3,0c-0.1,0-0.2,0-0.3,0c-0.1,0-0.2,0-0.3,0.1c-0.1,0-0.2,0.1-0.3,0.1S77.1,54.2,76.9,54.3 M45.2,52.2
		c-0.2,0.1-0.3,0.2-0.4,0.3c-0.1,0.1-0.1,0.3-0.1,0.4c0,0.1,0,0.3,0.1,0.4c0.1,0.1,0.2,0.2,0.3,0.3c0.1,0,0.2,0.1,0.3,0.1
		s0.2,0.1,0.3,0.1s0.2,0,0.3,0.1c0.1,0,0.2,0,0.3,0s0.2,0,0.3,0s0.2,0,0.3-0.1c0.1,0,0.2-0.1,0.3-0.1s0.2-0.1,0.3-0.1
		c0.2-0.1,0.3-0.2,0.4-0.3c0.1-0.1,0.1-0.2,0.1-0.4c0-0.1,0-0.3-0.1-0.4c-0.1-0.1-0.2-0.2-0.3-0.3c-0.1,0-0.2-0.1-0.3-0.1
		S47.2,52,47.1,52c-0.1,0-0.2,0-0.3-0.1c-0.1,0-0.2,0-0.3,0s-0.2,0-0.3,0s-0.2,0-0.3,0.1c-0.1,0-0.2,0.1-0.3,0.1
		S45.3,52.1,45.2,52.2 M82.7,53.5c0.2-0.1,0.3-0.2,0.3-0.3c0.1-0.1,0.1-0.2,0.1-0.4c0-0.1,0-0.3-0.1-0.4c-0.1-0.1-0.2-0.2-0.4-0.3
		c-0.1,0-0.2-0.1-0.3-0.1c-0.1,0-0.2-0.1-0.3-0.1c-0.1,0-0.2,0-0.3-0.1s-0.2,0-0.3,0c-0.1,0-0.2,0-0.3,0c-0.1,0-0.2,0-0.3,0.1
		c-0.1,0-0.2,0.1-0.3,0.1c-0.1,0-0.2,0.1-0.2,0.1c-0.2,0.1-0.3,0.2-0.3,0.3c-0.1,0.1-0.1,0.2-0.1,0.4c0,0.1,0,0.3,0.1,0.4
		c0.1,0.1,0.2,0.2,0.4,0.3c0.1,0,0.2,0.1,0.3,0.1c0.1,0,0.2,0.1,0.3,0.1c0.1,0,0.2,0,0.3,0.1c0.1,0,0.2,0,0.3,0c0.1,0,0.2,0,0.3,0
		s0.2,0,0.3-0.1c0.1,0,0.2-0.1,0.3-0.1C82.6,53.5,82.7,53.5,82.7,53.5 M66.3,56.4c-0.2,0.1-0.3,0.2-0.4,0.3s-0.1,0.2-0.1,0.4
		c0,0.1,0,0.3,0.1,0.4c0.1,0.1,0.2,0.2,0.4,0.3c0.1,0,0.2,0.1,0.3,0.1c0.1,0,0.2,0.1,0.3,0.1c0.1,0,0.2,0,0.3,0.1s0.2,0,0.3,0
		c0.1,0,0.2,0,0.3,0c0.1,0,0.2,0,0.3-0.1c0.1,0,0.2-0.1,0.3-0.1c0.1,0,0.2-0.1,0.3-0.1c0.2-0.1,0.3-0.2,0.4-0.3s0.1-0.2,0.1-0.4
		c0-0.1,0-0.3-0.1-0.4c-0.1-0.1-0.2-0.2-0.4-0.3c-0.1,0-0.2-0.1-0.3-0.1c-0.1,0-0.2-0.1-0.3-0.1c-0.1,0-0.2,0-0.3-0.1
		c-0.1,0-0.2,0-0.3,0s-0.2,0-0.3,0c-0.1,0-0.2,0-0.3,0.1c-0.1,0-0.2,0.1-0.3,0.1C66.6,56.3,66.4,56.4,66.3,56.4 M73.4,56.4
		c-0.2,0.1-0.3,0.2-0.4,0.3s-0.1,0.2-0.1,0.4c0,0.1,0,0.3,0.1,0.4c0.1,0.1,0.2,0.2,0.4,0.3c0.1,0,0.2,0.1,0.3,0.1
		c0.1,0,0.2,0.1,0.3,0.1c0.1,0,0.2,0,0.3,0.1c0.1,0,0.2,0,0.3,0c0.1,0,0.2,0,0.3,0c0.1,0,0.2,0,0.3-0.1c0.1,0,0.2-0.1,0.3-0.1
		c0.1,0,0.2-0.1,0.3-0.1c0.2-0.1,0.3-0.2,0.4-0.3s0.1-0.2,0.1-0.4c0-0.1,0-0.3-0.1-0.4c-0.1-0.1-0.2-0.2-0.4-0.3
		c-0.1,0-0.2-0.1-0.3-0.1c-0.1,0-0.2-0.1-0.3-0.1c-0.1,0-0.2,0-0.3-0.1c-0.1,0-0.2,0-0.3,0c-0.1,0-0.2,0-0.3,0c-0.1,0-0.2,0-0.3,0.1
		s-0.2,0.1-0.3,0.1C73.6,56.3,73.6,56.4,73.4,56.4 M66.3,60.7c-0.2,0.1-0.3,0.2-0.4,0.3s-0.1,0.2-0.1,0.4c0,0.1,0,0.3,0.1,0.4
		c0.1,0.1,0.2,0.2,0.4,0.3c0.1,0,0.2,0.1,0.3,0.1c0.1,0,0.2,0.1,0.3,0.1c0.1,0,0.2,0,0.3,0.1c0.1,0,0.2,0,0.3,0c0.1,0,0.2,0,0.3,0
		c0.1,0,0.2,0,0.3-0.1c0.1,0,0.2-0.1,0.3-0.1c0.1,0,0.2-0.1,0.3-0.1c0.2-0.1,0.3-0.2,0.4-0.3s0.1-0.2,0.1-0.4c0-0.1,0-0.3-0.1-0.4
		c-0.1-0.1-0.2-0.2-0.4-0.3c-0.1,0-0.2-0.1-0.3-0.1c-0.1,0-0.2-0.1-0.3-0.1c-0.1,0-0.2,0-0.3-0.1c-0.1,0-0.2,0-0.3,0
		c-0.1,0-0.2,0-0.3,0c-0.1,0-0.2,0-0.3,0.1c-0.1,0-0.2,0.1-0.3,0.1C66.6,60.6,66.4,60.7,66.3,60.7 M69.9,58.6
		c-0.2,0.1-0.3,0.2-0.4,0.3s-0.1,0.2-0.1,0.4c0,0.1,0,0.3,0.1,0.4c0.1,0.1,0.2,0.2,0.4,0.3c0.1,0,0.2,0.1,0.3,0.1
		c0.1,0,0.2,0.1,0.3,0.1c0.1,0,0.2,0,0.3,0.1c0.1,0,0.2,0,0.3,0s0.2,0,0.3,0c0.1,0,0.2,0,0.3-0.1c0.1,0,0.2-0.1,0.3-0.1
		c0.1,0,0.2-0.1,0.3-0.1c0.2-0.1,0.3-0.2,0.4-0.3s0.1-0.2,0.1-0.4c0-0.1,0-0.3-0.1-0.4c-0.1-0.1-0.2-0.2-0.4-0.3
		c-0.1,0-0.2-0.1-0.3-0.1c-0.1,0-0.2-0.1-0.3-0.1c-0.1,0-0.2,0-0.3-0.1c-0.1,0-0.2,0-0.3,0s-0.2,0-0.3,0c-0.1,0-0.2,0-0.3,0.1
		c-0.1,0-0.2,0.1-0.3,0.1S69.9,58.5,69.9,58.6 M66.3,52.2c-0.2,0.1-0.3,0.2-0.4,0.3s-0.1,0.2-0.1,0.4c0,0.1,0,0.3,0.1,0.4
		c0.1,0.1,0.2,0.2,0.4,0.3c0.1,0,0.2,0.1,0.3,0.1c0.1,0,0.2,0.1,0.3,0.1c0.1,0,0.2,0,0.3,0.1s0.2,0,0.3,0c0.1,0,0.2,0,0.3,0
		c0.1,0,0.2,0,0.3-0.1c0.1,0,0.2-0.1,0.3-0.1c0.1,0,0.2-0.1,0.3-0.1c0.2-0.1,0.3-0.2,0.4-0.3s0.1-0.2,0.1-0.4c0-0.1,0-0.3-0.1-0.4
		c-0.1-0.1-0.2-0.2-0.4-0.3c-0.1,0-0.2-0.1-0.3-0.1c-0.1,0-0.2-0.1-0.3-0.1c-0.1,0-0.2,0-0.3-0.1c-0.1,0-0.2,0-0.3,0
		c-0.1,0-0.2,0-0.3,0c-0.1,0-0.2,0-0.3,0.1c-0.1,0-0.2,0.1-0.3,0.1C66.6,52.1,66.4,52.1,66.3,52.2 M59.3,52.2
		c-0.2,0.1-0.3,0.2-0.4,0.3c-0.1,0.1-0.1,0.2-0.1,0.4c0,0.1,0,0.3,0.1,0.4c0.1,0.1,0.2,0.2,0.4,0.3c0.1,0,0.2,0.1,0.3,0.1
		s0.2,0.1,0.3,0.1s0.2,0,0.3,0.1s0.2,0,0.3,0s0.2,0,0.3,0s0.2,0,0.3-0.1c0.1,0,0.2-0.1,0.3-0.1s0.2-0.1,0.3-0.1
		c0.2-0.1,0.3-0.2,0.4-0.3s0.1-0.2,0.1-0.4c0-0.1,0-0.3-0.1-0.4c-0.1-0.1-0.2-0.2-0.4-0.3c-0.1,0-0.2-0.1-0.3-0.1S61.2,52,61.2,52
		s-0.2,0-0.3-0.1c-0.1,0-0.2,0-0.3,0s-0.2,0-0.3,0s-0.2,0-0.3,0.1c-0.1,0-0.2,0.1-0.3,0.1C59.5,52.1,59.3,52.1,59.3,52.2"/>
</g>
<path class="st17" d="M94.3,52.1l0.5,10.8l-6.6,10.2h7.1l0.6,11.5c0,0.4-0.1,0.8-0.3,1.2c-0.2,0.4-0.6,0.7-1,1s-0.9,0.5-1.5,0.7
	s-1.2,0.2-1.9,0.2H36.8c-0.7,0-1.3-0.1-1.9-0.2c-0.6-0.2-1.1-0.4-1.5-0.7c-0.4-0.3-0.8-0.6-1-1s-0.3-0.8-0.3-1.2l0.6-11.5l7.5-10.2
	h-7l0.5-10.8c0-0.4,0.2-0.8,0.4-1.1c0.3-0.3,0.6-0.6,1-0.9c0.4-0.3,0.9-0.5,1.5-0.6s1.2-0.2,1.8-0.2h51.2c0.6,0,1.3,0.1,1.8,0.2
	c0.6,0.1,1.1,0.3,1.5,0.6s0.8,0.6,1,0.9C94.2,51.3,94.3,51.7,94.3,52.1z M71.8,83.1c0.3-0.2,0.5-0.4,0.6-0.6s0.2-0.5,0.2-0.7
	s-0.1-0.5-0.2-0.7s-0.4-0.4-0.7-0.6c-0.1-0.1-0.3-0.2-0.5-0.2c-0.2-0.1-0.3-0.1-0.5-0.2c-0.2,0-0.4-0.1-0.5-0.1c-0.2,0-0.4,0-0.6,0
	s-0.4,0-0.6,0s-0.3,0-0.4,0c-0.2,0-0.3,0.1-0.5,0.2s-0.3,0.1-0.5,0.2c-0.3,0.2-0.5,0.4-0.6,0.6s-0.2,0.5-0.2,0.7s0.1,0.5,0.2,0.7
	s0.4,0.4,0.7,0.6c0.1,0.1,0.3,0.2,0.5,0.2c0.2,0.1,0.3,0.1,0.5,0.2c0.2,0,0.4,0.1,0.6,0.1s0.4,0,0.6,0s0.4,0,0.6,0s0.4-0.1,0.5-0.1
	c0.2,0,0.4-0.1,0.5-0.2C71.4,83.3,71.7,83.2,71.8,83.1 M61.9,69.9c-0.3,0.2-0.5,0.4-0.6,0.6s-0.2,0.4-0.2,0.7c0,0.2,0.1,0.5,0.2,0.7
	s0.4,0.4,0.6,0.6c0.1,0.1,0.3,0.2,0.5,0.2c0.2,0.1,0.3,0.1,0.5,0.2c0.2,0,0.4,0.1,0.5,0.1c0.2,0,0.4,0,0.6,0s0.4,0,0.6,0
	s0.4-0.1,0.5-0.1c0.2,0,0.3-0.1,0.5-0.2s0.3-0.1,0.5-0.2c0.3-0.2,0.5-0.4,0.6-0.6s0.2-0.4,0.2-0.7c0-0.2-0.1-0.5-0.2-0.7
	s-0.4-0.4-0.6-0.6c-0.1-0.1-0.3-0.2-0.5-0.2c-0.2-0.1-0.3-0.1-0.5-0.2c-0.2,0-0.4-0.1-0.5-0.1c-0.2,0-0.4,0-0.6,0s-0.4,0-0.6,0
	s-0.4,0.1-0.5,0.1c-0.2,0-0.3,0.1-0.5,0.2C62.2,69.7,62.1,69.8,61.9,69.9 M83.2,83.1c0.3-0.2,0.5-0.4,0.6-0.6S84,82,84,81.8
	s-0.1-0.5-0.2-0.7c-0.2-0.2-0.4-0.4-0.7-0.6c-0.1-0.1-0.3-0.2-0.5-0.2c-0.2-0.1-0.3-0.1-0.5-0.2c-0.2,0-0.4-0.1-0.5-0.1
	c-0.2,0-0.4,0-0.6,0s-0.4,0-0.6,0s-0.4,0.1-0.5,0.1c-0.2,0-0.3,0.1-0.5,0.2s-0.3,0.1-0.5,0.2c-0.3,0.2-0.5,0.4-0.6,0.6
	s-0.2,0.5-0.2,0.7s0.1,0.5,0.2,0.7s0.4,0.4,0.7,0.6c0.1,0.1,0.3,0.2,0.5,0.2c0.2,0.1,0.3,0.1,0.5,0.2c0.2,0,0.4,0.1,0.6,0.1
	s0.4,0,0.6,0s0.4,0,0.6,0s0.4-0.1,0.5-0.1c0.2,0,0.3-0.1,0.5-0.2C82.8,83.3,83.1,83.2,83.2,83.1 M60.3,83.1c0.3-0.2,0.5-0.4,0.7-0.6
	c0.1-0.2,0.2-0.5,0.2-0.7s-0.1-0.5-0.2-0.7s-0.4-0.4-0.6-0.6c-0.1-0.1-0.3-0.2-0.5-0.2c-0.2-0.1-0.3-0.1-0.5-0.2
	c-0.2,0-0.4-0.1-0.5-0.1c-0.2,0-0.4,0-0.6,0c-0.2,0-0.4,0-0.6,0c-0.2,0-0.4,0.1-0.5,0.1c-0.2,0-0.4,0.1-0.5,0.2
	c-0.2,0.1-0.3,0.1-0.5,0.2c-0.3,0.2-0.5,0.4-0.7,0.6c-0.1,0.2-0.2,0.5-0.2,0.7s0.1,0.5,0.2,0.7s0.4,0.4,0.6,0.6
	c0.1,0.1,0.3,0.2,0.5,0.2c0.2,0.1,0.3,0.1,0.5,0.2c0.2,0,0.4,0.1,0.5,0.1c0.2,0,0.4,0,0.6,0c0.2,0,0.4,0,0.6,0
	c0.2,0,0.4-0.1,0.6-0.1c0.2,0,0.4-0.1,0.5-0.2C60.1,83.3,60.2,83.2,60.3,83.1 M60.3,75.9c0.3-0.2,0.5-0.4,0.6-0.6s0.2-0.5,0.2-0.7
	s-0.1-0.5-0.2-0.7c-0.1-0.2-0.4-0.4-0.6-0.6c-0.1-0.1-0.3-0.2-0.5-0.2c-0.1,0-0.2-0.1-0.4-0.1s-0.4-0.1-0.5-0.1c-0.2,0-0.4,0-0.6,0
	s-0.4,0-0.6,0S57.3,73,57.2,73c-0.2,0-0.3,0.1-0.5,0.2s-0.3,0.1-0.5,0.2c-0.3,0.2-0.5,0.4-0.6,0.6s-0.2,0.5-0.2,0.7s0.1,0.5,0.2,0.7
	s0.4,0.4,0.6,0.6c0.1,0.1,0.3,0.2,0.5,0.2c0.2,0.1,0.3,0.1,0.5,0.2c0.2,0,0.4,0.1,0.5,0.1c0.2,0,0.4,0,0.6,0s0.4,0,0.6,0
	c0.2,0,0.4-0.1,0.5-0.1c0.2,0,0.3-0.1,0.5-0.2C60.1,76.1,60.2,76,60.3,75.9 M63.9,80c0.2,0,0.4,0,0.6,0s0.4-0.1,0.5-0.1
	c0.2,0,0.3-0.1,0.5-0.2s0.3-0.1,0.5-0.2c0.3-0.2,0.5-0.4,0.6-0.6s0.2-0.5,0.2-0.7s-0.1-0.5-0.2-0.7s-0.4-0.4-0.6-0.6
	c-0.1-0.1-0.3-0.2-0.5-0.2c-0.2-0.1-0.3-0.1-0.5-0.2c-0.2,0-0.4-0.1-0.5-0.1c-0.2,0-0.4,0-0.6,0s-0.4,0-0.6,0s-0.4,0.1-0.5,0.1
	c-0.2,0-0.3,0.1-0.5,0.2s-0.3,0.1-0.5,0.2c-0.3,0.2-0.5,0.4-0.6,0.6S61,78,61,78.2s0.1,0.5,0.2,0.7s0.4,0.4,0.6,0.6
	c0.1,0.1,0.3,0.2,0.5,0.2c0.2,0.1,0.3,0.1,0.5,0.2c0.2,0,0.4,0.1,0.5,0.1C63.6,80,63.8,80,63.9,80 M75.2,80c0.2,0,0.4,0,0.6,0
	s0.4-0.1,0.5-0.1c0.2,0,0.3-0.1,0.5-0.2s0.3-0.1,0.5-0.2c0.3-0.2,0.5-0.4,0.6-0.6s0.2-0.5,0.2-0.7s-0.1-0.5-0.2-0.7
	s-0.4-0.4-0.7-0.6c-0.1-0.1-0.3-0.2-0.5-0.2c-0.2-0.1-0.3-0.1-0.5-0.2c-0.2,0-0.4-0.1-0.5-0.1c-0.2,0-0.4,0-0.6,0s-0.4,0-0.6,0
	s-0.4,0.1-0.5,0.1c-0.2,0-0.3,0.1-0.5,0.2s-0.3,0.1-0.5,0.2c-0.3,0.2-0.5,0.4-0.6,0.6s-0.2,0.5-0.2,0.7s0.1,0.5,0.2,0.7
	s0.4,0.4,0.7,0.6c0.1,0.1,0.3,0.2,0.5,0.2c0.2,0.1,0.3,0.1,0.5,0.2c0.2,0,0.4,0.1,0.5,0.1C74.9,80,75.2,80,75.2,80 M67.6,73.4
	c-0.3,0.2-0.5,0.4-0.6,0.6s-0.2,0.5-0.2,0.7s0.1,0.5,0.2,0.7s0.4,0.4,0.6,0.6c0.1,0.1,0.3,0.2,0.5,0.2c0.2,0.1,0.3,0.1,0.5,0.2
	c0.2,0,0.4,0.1,0.5,0.1c0.2,0,0.4,0,0.6,0s0.4,0,0.6,0s0.4-0.1,0.5-0.1c0.2,0,0.3-0.1,0.5-0.2s0.3-0.1,0.5-0.2
	c0.3-0.2,0.5-0.4,0.6-0.6s0.2-0.5,0.2-0.7s-0.1-0.5-0.2-0.7s-0.4-0.4-0.6-0.6c-0.1-0.1-0.3-0.2-0.5-0.2c-0.2-0.1-0.3-0.1-0.5-0.2
	c-0.2,0-0.4-0.1-0.5-0.1c-0.2,0-0.4,0-0.6,0s-0.4,0-0.6,0S68.7,73,68.6,73c-0.2,0-0.3,0.1-0.5,0.2C67.8,73.2,67.7,73.3,67.6,73.4
	 M48.8,83.1c0.3-0.2,0.5-0.4,0.7-0.6c0.2-0.3,0.2-0.5,0.2-0.7s-0.1-0.5-0.2-0.7s-0.4-0.4-0.6-0.6c-0.1-0.1-0.3-0.2-0.5-0.2
	c-0.2-0.1-0.3-0.1-0.5-0.2c-0.2,0-0.4-0.1-0.5-0.1c-0.2,0-0.4,0-0.6,0c-0.2,0-0.4,0-0.6,0c-0.1,0-0.3,0-0.5,0s-0.4,0.1-0.5,0.2
	c-0.2,0.1-0.3,0.1-0.5,0.2c-0.3,0.2-0.5,0.4-0.7,0.6s-0.2,0.5-0.2,0.7s0.1,0.5,0.2,0.7s0.3,0.4,0.6,0.6c0.1,0.1,0.3,0.2,0.5,0.2
	c0.2,0.1,0.3,0.1,0.5,0.2c0.2,0,0.4,0.1,0.5,0.1c0.2,0,0.4,0,0.6,0c0.2,0,0.4,0,0.6,0c0.2,0,0.4-0.1,0.6-0.1c0.2,0,0.4-0.1,0.5-0.2
	C48.6,83.2,48.8,83.2,48.8,83.1 M52.6,80c0.2,0,0.4,0,0.6,0s0.4-0.1,0.5-0.1c0.2,0,0.4-0.1,0.5-0.2c0.2-0.1,0.3-0.1,0.5-0.2
	c0.3-0.2,0.5-0.4,0.7-0.6c0.1-0.2,0.2-0.5,0.2-0.7s-0.1-0.5-0.2-0.7c-0.1-0.2-0.4-0.4-0.6-0.6c-0.1-0.1-0.3-0.2-0.5-0.2
	c-0.2-0.1-0.3-0.1-0.5-0.2c-0.2,0-0.4-0.1-0.5-0.1c-0.2,0-0.4,0-0.6,0s-0.4,0-0.6,0s-0.4,0.1-0.5,0.1c-0.2,0-0.4,0.1-0.5,0.2
	c-0.2,0.1-0.3,0.1-0.5,0.2c-0.3,0.2-0.5,0.4-0.7,0.6c-0.1,0.2-0.2,0.5-0.2,0.7s0.1,0.5,0.2,0.7c0.1,0.2,0.4,0.4,0.6,0.6
	c0.1,0.1,0.3,0.2,0.5,0.2c0.2,0.1,0.3,0.1,0.5,0.2c0.2,0,0.4,0.1,0.5,0.1C52.2,80,52.3,80,52.6,80 M62.8,59.6
	c-0.2,0.1-0.3,0.2-0.4,0.3s-0.1,0.2-0.1,0.4c0,0.1,0,0.3,0.1,0.4c0.1,0.1,0.2,0.2,0.4,0.3c0.1,0,0.2,0.1,0.3,0.1s0.2,0.1,0.3,0.1
	s0.2,0,0.3,0.1c0.1,0,0.2,0,0.3,0c0.1,0,0.2,0,0.3,0s0.2,0,0.3-0.1c0.1,0,0.2-0.1,0.3-0.1c0.1,0,0.2-0.1,0.3-0.1
	c0.2-0.1,0.3-0.2,0.4-0.3s0.1-0.2,0.1-0.4c0-0.1,0-0.3-0.1-0.4c-0.1-0.1-0.2-0.2-0.4-0.3c-0.1,0-0.2-0.1-0.3-0.1
	c-0.1,0-0.2-0.1-0.3-0.1c-0.1,0-0.2,0-0.3-0.1c-0.1,0-0.2,0-0.3,0s-0.2,0-0.3,0s-0.2,0-0.3,0.1c-0.1,0-0.2,0.1-0.3,0.1
	C62.9,59.5,62.8,59.6,62.8,59.6 M48.8,55.3c-0.2,0.1-0.3,0.2-0.4,0.3c-0.1,0.1-0.1,0.2-0.1,0.4c0,0.1,0,0.3,0.1,0.4
	c0.1,0.1,0.2,0.2,0.4,0.3c0.1,0,0.2,0.1,0.3,0.1s0.2,0.1,0.3,0.1s0.2,0,0.3,0.1c0.1,0,0.2,0,0.3,0s0.2,0,0.3,0s0.2,0,0.3-0.1
	c0.1,0,0.2-0.1,0.3-0.1s0.2-0.1,0.3-0.1c0.2-0.1,0.3-0.2,0.4-0.3s0.1-0.2,0.1-0.4c0-0.1,0-0.3-0.1-0.4c-0.1-0.1-0.2-0.2-0.4-0.3
	c-0.1,0-0.2-0.1-0.3-0.1s-0.2-0.1-0.3-0.1s-0.2,0-0.3-0.1c-0.1,0-0.2,0-0.3,0s-0.2,0-0.3,0s-0.2,0-0.3,0.1c-0.1,0-0.2,0.1-0.3,0.1
	C48.8,55.2,48.8,55.3,48.8,55.3 M52.2,53.2c-0.2,0.1-0.3,0.2-0.4,0.3c-0.1,0.1-0.1,0.2-0.1,0.4c0,0.1,0,0.3,0.1,0.4
	c0.1,0.1,0.2,0.2,0.4,0.3c0.1,0,0.2,0.1,0.3,0.1s0.2,0.1,0.3,0.1s0.2,0,0.3,0.1c0.1,0,0.2,0,0.3,0s0.2,0,0.3,0s0.2,0,0.3-0.1
	c0.1,0,0.2-0.1,0.3-0.1s0.2-0.1,0.3-0.1c0.2-0.1,0.3-0.2,0.4-0.3s0.1-0.2,0.1-0.4c0-0.1,0-0.3-0.1-0.4c-0.1-0.1-0.2-0.2-0.4-0.3
	c-0.1,0-0.2-0.1-0.3-0.1S54.2,53,54.1,53c-0.1,0-0.2,0-0.3-0.1c-0.1,0-0.2,0-0.3,0s-0.2,0-0.3,0s-0.2,0-0.3,0.1
	c-0.1,0-0.2,0.1-0.3,0.1S52.3,53.1,52.2,53.2 M52.2,57.5c-0.2,0.1-0.3,0.2-0.4,0.3c-0.1,0.1-0.1,0.2-0.1,0.4c0,0.1,0,0.3,0.1,0.4
	c0.1,0.1,0.2,0.2,0.4,0.3c0.1,0,0.2,0.1,0.3,0.1s0.2,0.1,0.3,0.1s0.2,0,0.3,0.1s0.2,0,0.3,0s0.2,0,0.3,0s0.2,0,0.3-0.1
	c0.1,0,0.2-0.1,0.3-0.1s0.2-0.1,0.3-0.1c0.2-0.1,0.3-0.2,0.4-0.3s0.1-0.2,0.1-0.4c0-0.1,0-0.3-0.1-0.4c-0.1-0.1-0.2-0.2-0.4-0.3
	c-0.1,0-0.2-0.1-0.3-0.1s-0.2-0.1-0.3-0.1s-0.2,0-0.3-0.1c-0.1,0-0.2,0-0.3,0s-0.2,0-0.3,0s-0.2,0-0.3,0.1c-0.1,0-0.2,0.1-0.3,0.1
	C52.3,57.4,52.2,57.4,52.2,57.5 M55.8,59.6c-0.2,0.1-0.3,0.2-0.4,0.3c-0.1,0.1-0.1,0.2-0.1,0.4c0,0.1,0,0.3,0.1,0.4
	c0.1,0.1,0.2,0.2,0.4,0.3c0.1,0,0.2,0.1,0.3,0.1s0.2,0.1,0.3,0.1s0.2,0,0.3,0.1s0.2,0,0.3,0s0.2,0,0.3,0s0.2,0,0.3-0.1
	c0.1,0,0.2-0.1,0.3-0.1S58,61,58.1,61c0.2-0.1,0.3-0.2,0.4-0.3s0.1-0.2,0.1-0.4c0-0.1,0-0.3-0.1-0.4c-0.1-0.1-0.2-0.2-0.4-0.3
	c-0.1,0-0.2-0.1-0.3-0.1s-0.2-0.1-0.3-0.1s-0.2,0-0.3-0.1c-0.1,0-0.2,0-0.3,0s-0.2,0-0.3,0s-0.2,0-0.3,0.1c-0.1,0-0.2,0.1-0.3,0.1
	C55.8,59.5,55.8,59.6,55.8,59.6 M59.2,61.7c-0.2,0.1-0.3,0.2-0.4,0.3c-0.1,0.2-0.1,0.3-0.1,0.4c0,0.1,0,0.3,0.1,0.4
	c0.1,0.1,0.2,0.2,0.4,0.3c0.1,0,0.2,0.1,0.3,0.1s0.2,0.1,0.3,0.1s0.2,0,0.3,0.1c0.1,0,0.2,0,0.3,0s0.2,0,0.3,0s0.2,0,0.3-0.1
	c0.1,0,0.2-0.1,0.3-0.1s0.2-0.1,0.3-0.1c0.2-0.1,0.3-0.2,0.4-0.3s0.1-0.3,0.1-0.4c0-0.1,0-0.3-0.1-0.4c-0.1-0.1-0.2-0.2-0.4-0.3
	c-0.1,0-0.2-0.1-0.3-0.1s-0.2-0.1-0.3-0.1s-0.2,0-0.3-0.1c-0.1,0-0.2,0-0.3,0s-0.2,0-0.3,0s-0.2,0-0.3,0.1c-0.1,0-0.2,0.1-0.3,0.1
	C59.5,61.6,59.3,61.7,59.2,61.7 M69.8,55.3c-0.2,0.1-0.3,0.2-0.4,0.3s-0.1,0.2-0.1,0.4c0,0.1,0,0.3,0.1,0.4c0.1,0.1,0.2,0.2,0.4,0.3
	c0.1,0,0.2,0.1,0.3,0.1s0.2,0.1,0.3,0.1c0.1,0,0.2,0,0.3,0.1c0.1,0,0.2,0,0.3,0c0.1,0,0.2,0,0.3,0c0.1,0,0.2,0,0.3-0.1
	c0.1,0,0.2-0.1,0.3-0.1c0.1,0,0.2-0.1,0.3-0.1c0.2-0.1,0.3-0.2,0.4-0.3s0.1-0.2,0.1-0.4c0-0.1,0-0.3-0.1-0.4
	c-0.1-0.1-0.2-0.2-0.4-0.3c-0.1,0-0.2-0.1-0.3-0.1c-0.1,0-0.2-0.1-0.3-0.1s-0.2,0-0.3-0.1c-0.1,0-0.2,0-0.3,0c-0.1,0-0.2,0-0.3,0
	c-0.1,0-0.2,0-0.3,0.1s-0.2,0.1-0.3,0.1C70.1,55.2,69.9,55.2,69.8,55.3 M62.8,63.9c-0.2,0.1-0.3,0.2-0.4,0.3
	c-0.1,0.1-0.1,0.3-0.1,0.4s0,0.3,0.1,0.4s0.2,0.2,0.4,0.3c0.1,0,0.2,0.1,0.3,0.1s0.2,0.1,0.3,0.1s0.2,0,0.3,0.1c0.1,0,0.2,0,0.3,0
	c0.1,0,0.2,0,0.3,0s0.2,0,0.3-0.1c0.1,0,0.2-0.1,0.3-0.1c0.1,0,0.2-0.1,0.3-0.1c0.2-0.1,0.3-0.2,0.4-0.3c0.1-0.1,0.1-0.3,0.1-0.4
	s0-0.3-0.1-0.4s-0.2-0.2-0.4-0.3c-0.1,0-0.2-0.1-0.3-0.1c-0.1,0-0.2-0.1-0.3-0.1s-0.2,0-0.3-0.1c-0.1,0-0.2,0-0.3,0
	c-0.1,0-0.2,0-0.3,0s-0.2,0-0.3,0.1s-0.2,0.1-0.3,0.1C62.9,63.8,62.8,63.9,62.8,63.9 M62.8,55.3c-0.2,0.1-0.3,0.2-0.4,0.3
	s-0.1,0.2-0.1,0.4c0,0.1,0,0.3,0.1,0.4c0.1,0.1,0.2,0.2,0.4,0.3c0.1,0,0.2,0.1,0.3,0.1s0.2,0.1,0.3,0.1s0.2,0,0.3,0.1
	c0.1,0,0.2,0,0.3,0c0.1,0,0.2,0,0.3,0s0.2,0,0.3-0.1c0.1,0,0.2-0.1,0.3-0.1c0.1,0,0.2-0.1,0.3-0.1c0.2-0.1,0.3-0.2,0.4-0.3
	s0.1-0.2,0.1-0.4c0-0.1,0-0.3-0.1-0.4c-0.1-0.1-0.2-0.2-0.4-0.3c-0.1,0-0.2-0.1-0.3-0.1c-0.1,0-0.2-0.1-0.3-0.1
	c-0.1,0-0.2,0-0.3-0.1c-0.1,0-0.2,0-0.3,0c-0.1,0-0.2,0-0.3,0s-0.2,0-0.3,0.1c-0.1,0-0.2,0.1-0.3,0.1C62.9,55.2,62.9,55.3,62.8,55.3
	 M55.8,55.3c-0.2,0.1-0.3,0.2-0.4,0.3c-0.1,0.1-0.1,0.2-0.1,0.4c0,0.1,0,0.3,0.1,0.4c0.1,0.1,0.2,0.2,0.4,0.3c0.1,0,0.2,0.1,0.3,0.1
	s0.2,0.1,0.3,0.1s0.2,0,0.3,0.1c0.1,0,0.2,0,0.3,0s0.2,0,0.3,0s0.2,0,0.3-0.1c0.1,0,0.2-0.1,0.3-0.1s0.2-0.1,0.3-0.1
	c0.2-0.1,0.3-0.2,0.4-0.3s0.1-0.2,0.1-0.4c0-0.1,0-0.3-0.1-0.4c-0.1-0.1-0.2-0.2-0.4-0.3c-0.1,0-0.2-0.1-0.3-0.1s-0.2-0.1-0.3-0.1
	s-0.2,0-0.3-0.1s-0.2,0-0.3,0s-0.2,0-0.3,0s-0.2,0-0.3,0.1c-0.1,0-0.2,0.1-0.3,0.1S55.8,55.3,55.8,55.3 M59.2,57.4
	c-0.2,0.1-0.3,0.2-0.4,0.3c0,0.2-0.1,0.3-0.1,0.4s0,0.3,0.1,0.4c0.1,0.1,0.2,0.2,0.4,0.3c0.1,0,0.2,0.1,0.3,0.1s0.2,0.1,0.3,0.1
	s0.2,0,0.3,0.1c0.1,0,0.2,0,0.3,0s0.2,0,0.3,0s0.2,0,0.3-0.1c0.1,0,0.2-0.1,0.3-0.1s0.2-0.1,0.3-0.1c0.2-0.1,0.3-0.2,0.4-0.3
	s0.1-0.2,0.1-0.4c0-0.1,0-0.3-0.1-0.4c-0.1-0.1-0.2-0.2-0.4-0.3c-0.1,0-0.2-0.1-0.3-0.1s-0.2-0.1-0.3-0.1s-0.2,0-0.3-0.1
	s-0.2,0-0.3,0s-0.2,0-0.3,0s-0.2,0-0.3,0.1c-0.1,0-0.2,0.1-0.3,0.1S59.3,57.4,59.2,57.4 M73.3,53.1c-0.2,0.1-0.3,0.2-0.3,0.3
	c-0.1,0.1-0.1,0.2-0.1,0.4c0,0.1,0,0.3,0.1,0.4c0.1,0.1,0.2,0.2,0.4,0.3c0.1,0,0.2,0.1,0.3,0.1c0.1,0,0.2,0.1,0.3,0.1
	c0.1,0,0.2,0,0.3,0.1c0.1,0,0.2,0,0.3,0c0.1,0,0.2,0,0.3,0c0.1,0,0.2,0,0.3-0.1c0.1,0,0.2-0.1,0.3-0.1s0.2-0.1,0.3-0.1
	c0.2-0.1,0.3-0.2,0.4-0.3s0.1-0.2,0.1-0.4c0-0.1,0-0.2-0.1-0.4c-0.1-0.1-0.2-0.2-0.4-0.3c-0.1,0-0.2-0.1-0.3-0.1
	c-0.1,0-0.2-0.1-0.3-0.1c-0.1,0-0.2,0-0.3-0.1s-0.2,0-0.3,0c-0.1,0-0.2,0-0.3,0s-0.2,0-0.3,0.1C73.8,53,73.8,53,73.7,53
	C73.6,53.1,73.4,53.1,73.3,53.1 M76.9,55.3c-0.2,0.1-0.3,0.2-0.4,0.3s-0.1,0.2-0.1,0.4c0,0.1,0,0.3,0.1,0.4c0.1,0.1,0.2,0.2,0.4,0.3
	c0.1,0,0.2,0.1,0.3,0.1c0.1,0,0.2,0.1,0.3,0.1c0.1,0,0.2,0,0.3,0.1c0.1,0,0.2,0,0.3,0s0.2,0,0.3,0s0.2,0,0.3-0.1
	c0.1,0,0.2-0.1,0.3-0.1c0.1,0,0.2-0.1,0.3-0.1c0.2-0.1,0.3-0.2,0.4-0.3s0.1-0.2,0.1-0.4c0-0.1,0-0.3-0.1-0.4
	c-0.1-0.1-0.2-0.2-0.4-0.3c-0.1,0-0.2-0.1-0.3-0.1c-0.1,0-0.2-0.1-0.3-0.1c-0.1,0-0.2,0-0.3-0.1c-0.1,0-0.2,0-0.3,0
	c-0.1,0-0.2,0-0.3,0c-0.1,0-0.2,0-0.3,0.1c-0.1,0-0.2,0.1-0.3,0.1S77.1,55.2,76.9,55.3 M45.2,53.2c-0.2,0.1-0.3,0.2-0.4,0.3
	c-0.1,0.1-0.1,0.3-0.1,0.4c0,0.1,0,0.3,0.1,0.4c0.1,0.1,0.2,0.2,0.3,0.3c0.1,0,0.2,0.1,0.3,0.1s0.2,0.1,0.3,0.1s0.2,0,0.3,0.1
	c0.1,0,0.2,0,0.3,0s0.2,0,0.3,0s0.2,0,0.3-0.1c0.1,0,0.2-0.1,0.3-0.1s0.2-0.1,0.3-0.1c0.2-0.1,0.3-0.2,0.4-0.3
	c0.1-0.1,0.1-0.2,0.1-0.4c0-0.1,0-0.3-0.1-0.4c-0.1-0.1-0.2-0.2-0.3-0.3c-0.1,0-0.2-0.1-0.3-0.1S47.2,53,47.1,53
	c-0.1,0-0.2,0-0.3-0.1c-0.1,0-0.2,0-0.3,0s-0.2,0-0.3,0s-0.2,0-0.3,0.1c-0.1,0-0.2,0.1-0.3,0.1S45.3,53.1,45.2,53.2 M82.7,54.5
	c0.2-0.1,0.3-0.2,0.3-0.3c0.1-0.1,0.1-0.2,0.1-0.4c0-0.1,0-0.3-0.1-0.4c-0.1-0.1-0.2-0.2-0.4-0.3c-0.1,0-0.2-0.1-0.3-0.1
	c-0.1,0-0.2-0.1-0.3-0.1c-0.1,0-0.2,0-0.3-0.1s-0.2,0-0.3,0c-0.1,0-0.2,0-0.3,0c-0.1,0-0.2,0-0.3,0.1c-0.1,0-0.2,0.1-0.3,0.1
	c-0.1,0-0.2,0.1-0.2,0.1c-0.2,0.1-0.3,0.2-0.3,0.3c-0.1,0.1-0.1,0.2-0.1,0.4c0,0.1,0,0.3,0.1,0.4c0.1,0.1,0.2,0.2,0.4,0.3
	c0.1,0,0.2,0.1,0.3,0.1c0.1,0,0.2,0.1,0.3,0.1c0.1,0,0.2,0,0.3,0.1c0.1,0,0.2,0,0.3,0c0.1,0,0.2,0,0.3,0s0.2,0,0.3-0.1
	c0.1,0,0.2-0.1,0.3-0.1C82.6,54.5,82.7,54.5,82.7,54.5 M66.3,57.4c-0.2,0.1-0.3,0.2-0.4,0.3s-0.1,0.2-0.1,0.4c0,0.1,0,0.3,0.1,0.4
	c0.1,0.1,0.2,0.2,0.4,0.3c0.1,0,0.2,0.1,0.3,0.1c0.1,0,0.2,0.1,0.3,0.1c0.1,0,0.2,0,0.3,0.1s0.2,0,0.3,0c0.1,0,0.2,0,0.3,0
	c0.1,0,0.2,0,0.3-0.1c0.1,0,0.2-0.1,0.3-0.1c0.1,0,0.2-0.1,0.3-0.1c0.2-0.1,0.3-0.2,0.4-0.3s0.1-0.2,0.1-0.4c0-0.1,0-0.3-0.1-0.4
	c-0.1-0.1-0.2-0.2-0.4-0.3c-0.1,0-0.2-0.1-0.3-0.1c-0.1,0-0.2-0.1-0.3-0.1c-0.1,0-0.2,0-0.3-0.1c-0.1,0-0.2,0-0.3,0s-0.2,0-0.3,0
	c-0.1,0-0.2,0-0.3,0.1c-0.1,0-0.2,0.1-0.3,0.1C66.6,57.3,66.4,57.4,66.3,57.4 M73.4,57.4c-0.2,0.1-0.3,0.2-0.4,0.3s-0.1,0.2-0.1,0.4
	c0,0.1,0,0.3,0.1,0.4c0.1,0.1,0.2,0.2,0.4,0.3c0.1,0,0.2,0.1,0.3,0.1c0.1,0,0.2,0.1,0.3,0.1c0.1,0,0.2,0,0.3,0.1c0.1,0,0.2,0,0.3,0
	c0.1,0,0.2,0,0.3,0c0.1,0,0.2,0,0.3-0.1c0.1,0,0.2-0.1,0.3-0.1c0.1,0,0.2-0.1,0.3-0.1c0.2-0.1,0.3-0.2,0.4-0.3s0.1-0.2,0.1-0.4
	c0-0.1,0-0.3-0.1-0.4c-0.1-0.1-0.2-0.2-0.4-0.3c-0.1,0-0.2-0.1-0.3-0.1c-0.1,0-0.2-0.1-0.3-0.1c-0.1,0-0.2,0-0.3-0.1
	c-0.1,0-0.2,0-0.3,0c-0.1,0-0.2,0-0.3,0c-0.1,0-0.2,0-0.3,0.1s-0.2,0.1-0.3,0.1C73.6,57.3,73.6,57.4,73.4,57.4 M66.3,61.7
	c-0.2,0.1-0.3,0.2-0.4,0.3s-0.1,0.2-0.1,0.4c0,0.1,0,0.3,0.1,0.4c0.1,0.1,0.2,0.2,0.4,0.3c0.1,0,0.2,0.1,0.3,0.1
	c0.1,0,0.2,0.1,0.3,0.1c0.1,0,0.2,0,0.3,0.1c0.1,0,0.2,0,0.3,0c0.1,0,0.2,0,0.3,0c0.1,0,0.2,0,0.3-0.1c0.1,0,0.2-0.1,0.3-0.1
	c0.1,0,0.2-0.1,0.3-0.1c0.2-0.1,0.3-0.2,0.4-0.3s0.1-0.2,0.1-0.4c0-0.1,0-0.3-0.1-0.4c-0.1-0.1-0.2-0.2-0.4-0.3
	c-0.1,0-0.2-0.1-0.3-0.1c-0.1,0-0.2-0.1-0.3-0.1c-0.1,0-0.2,0-0.3-0.1c-0.1,0-0.2,0-0.3,0c-0.1,0-0.2,0-0.3,0c-0.1,0-0.2,0-0.3,0.1
	c-0.1,0-0.2,0.1-0.3,0.1C66.6,61.6,66.4,61.7,66.3,61.7 M69.9,59.6c-0.2,0.1-0.3,0.2-0.4,0.3s-0.1,0.2-0.1,0.4c0,0.1,0,0.3,0.1,0.4
	c0.1,0.1,0.2,0.2,0.4,0.3c0.1,0,0.2,0.1,0.3,0.1c0.1,0,0.2,0.1,0.3,0.1c0.1,0,0.2,0,0.3,0.1c0.1,0,0.2,0,0.3,0s0.2,0,0.3,0
	c0.1,0,0.2,0,0.3-0.1c0.1,0,0.2-0.1,0.3-0.1c0.1,0,0.2-0.1,0.3-0.1c0.2-0.1,0.3-0.2,0.4-0.3s0.1-0.2,0.1-0.4c0-0.1,0-0.3-0.1-0.4
	c-0.1-0.1-0.2-0.2-0.4-0.3c-0.1,0-0.2-0.1-0.3-0.1c-0.1,0-0.2-0.1-0.3-0.1c-0.1,0-0.2,0-0.3-0.1c-0.1,0-0.2,0-0.3,0s-0.2,0-0.3,0
	c-0.1,0-0.2,0-0.3,0.1c-0.1,0-0.2,0.1-0.3,0.1S69.9,59.5,69.9,59.6 M66.3,53.2c-0.2,0.1-0.3,0.2-0.4,0.3s-0.1,0.2-0.1,0.4
	c0,0.1,0,0.3,0.1,0.4c0.1,0.1,0.2,0.2,0.4,0.3c0.1,0,0.2,0.1,0.3,0.1c0.1,0,0.2,0.1,0.3,0.1c0.1,0,0.2,0,0.3,0.1s0.2,0,0.3,0
	c0.1,0,0.2,0,0.3,0c0.1,0,0.2,0,0.3-0.1c0.1,0,0.2-0.1,0.3-0.1c0.1,0,0.2-0.1,0.3-0.1c0.2-0.1,0.3-0.2,0.4-0.3s0.1-0.2,0.1-0.4
	c0-0.1,0-0.3-0.1-0.4c-0.1-0.1-0.2-0.2-0.4-0.3c-0.1,0-0.2-0.1-0.3-0.1c-0.1,0-0.2-0.1-0.3-0.1c-0.1,0-0.2,0-0.3-0.1
	c-0.1,0-0.2,0-0.3,0c-0.1,0-0.2,0-0.3,0c-0.1,0-0.2,0-0.3,0.1c-0.1,0-0.2,0.1-0.3,0.1C66.6,53.1,66.4,53.1,66.3,53.2 M59.3,53.2
	c-0.2,0.1-0.3,0.2-0.4,0.3c-0.1,0.1-0.1,0.2-0.1,0.4c0,0.1,0,0.3,0.1,0.4c0.1,0.1,0.2,0.2,0.4,0.3c0.1,0,0.2,0.1,0.3,0.1
	s0.2,0.1,0.3,0.1s0.2,0,0.3,0.1s0.2,0,0.3,0s0.2,0,0.3,0s0.2,0,0.3-0.1c0.1,0,0.2-0.1,0.3-0.1s0.2-0.1,0.3-0.1
	c0.2-0.1,0.3-0.2,0.4-0.3s0.1-0.2,0.1-0.4c0-0.1,0-0.3-0.1-0.4c-0.1-0.1-0.2-0.2-0.4-0.3c-0.1,0-0.2-0.1-0.3-0.1S61.2,53,61.2,53
	s-0.2,0-0.3-0.1c-0.1,0-0.2,0-0.3,0s-0.2,0-0.3,0s-0.2,0-0.3,0.1c-0.1,0-0.2,0.1-0.3,0.1C59.5,53.1,59.3,53.1,59.3,53.2"/>
<radialGradient id="path4176_1_" cx="408.4995" cy="-899.6249" r="2.397" gradientTransform="matrix(0.8198 0 0 -0.8198 -241.6243 -622.7539)" gradientUnits="userSpaceOnUse">
	<stop  offset="0" style="stop-color:#9AF590"/>
	<stop  offset="1" style="stop-color:#74CE6D"/>
</radialGradient>
<circle id="path4176" class="st18" cx="93.3" cy="114.8" r="2"/>
<circle id="path4188" class="st19" cx="93.3" cy="114.8" r="0.5"/>
<g id="g4195">
	
		<ellipse id="circle4183" transform="matrix(0.9655 -0.2604 0.2604 0.9655 -5.4043 25.759)" class="st20" cx="94.5" cy="33.3" rx="31.7" ry="31.9"/>
	<path id="circle4187" class="st21" d="M69,14.2c-6.1,7.9-8.3,18.2-5.6,28c4.6,16.9,22,27.1,38.9,22.5l0,0c4.4-1.2,8.4-3.4,12-6.3
		l-17.8-47c-0.9-2.3-3.1-3.8-5.5-3.2C91,8.2,69,14.2,69,14.2z"/>
	<path id="circle4191" class="st21" d="M69.5,14.1c-7.1,8-9.6,19-6.9,29.3c4.6,16.9,22,27.1,38.9,22.5l0,0c4.8-1.3,9.1-3.7,12.9-7
		L96.5,11.3C95.6,9,93.4,7.5,91,8.2L69.5,14.1L69.5,14.1z"/>
	<path id="circle4193" class="st21" d="M69.8,14c-7.7,8-10.5,19.4-7.7,30.2c4.6,16.9,22.1,27,38.9,22.5c5-1.4,9.7-4,13.4-7.5
		L96.4,11.4c-0.9-2.3-3.1-3.8-5.5-3.2C90.9,8.3,69.8,14,69.8,14z"/>
</g>
<path id="circle4189" class="st21" d="M69.2,14.1c-6.6,7.9-9,18.6-6.2,28.7c4.6,16.9,22,27.1,38.9,22.5c4.6-1.2,8.9-3.6,12.5-6.6
	L96.5,11.4c-0.9-2.3-3.1-3.8-5.5-3.2C91,8.2,69.2,14.1,69.2,14.1z"/>
<linearGradient id="path4169_1_" gradientUnits="userSpaceOnUse" x1="27.9357" y1="-176.663" x2="32.2503" y2="-230.8346" gradientTransform="matrix(1.0976 0 0 -1.0976 62.2132 -190.2908)">
	<stop  offset="0" style="stop-color:#EBEDEE"/>
	<stop  offset="1" style="stop-color:#D7DADC"/>
</linearGradient>
<circle id="path4169" class="st22" cx="95.2" cy="32.8" r="32.4"/>
<radialGradient id="path4297_1_" cx="95.2" cy="382.8" r="27.2" gradientTransform="matrix(1 0 0 1 0 -350)" gradientUnits="userSpaceOnUse">
	<stop  offset="0" style="stop-color:#2A667F"/>
	<stop  offset="1" style="stop-color:#1E495A"/>
</radialGradient>
<circle id="path4297" class="st23" cx="95.2" cy="32.8" r="27.2"/>
<path id="circle4307" class="st24" d="M95.2,5.6C80.1,5.6,68,17.8,68,32.8C68,47.9,80.1,60,95.2,60c15,0,27.2-12.2,27.2-27.2
	C122.4,17.8,110.2,5.6,95.2,5.6z M95.2,7.8c13.8,0,25,11.2,25,25l0,0c0,13.8-11.2,25-25,25l0,0c-13.8,0-25-11.2-25-25l0,0
	C70.1,19,81.3,7.8,95.2,7.8L95.2,7.8z"/>
<path id="circle4311" class="st24" d="M95.2,5.6C80.1,5.6,68,17.8,68,32.8C68,47.9,80.1,60,95.2,60c15,0,27.2-12.2,27.2-27.2
	C122.4,17.8,110.2,5.6,95.2,5.6z M95.2,7C109.4,7,121,18.6,121,32.8l0,0c0,14.3-11.6,25.8-25.8,25.8l0,0
	c-14.3,0-25.8-11.6-25.8-25.8l0,0C69.3,18.6,80.9,7,95.2,7L95.2,7z"/>
<g class="st25">
	<path d="M95.7,16.6c-9,0-16.5,7.2-16.8,16.2h-5.7l9.3,9.3l9.3-9.3h-6.6c0.3-5.5,4.9-10,10.6-10c2.8,0,5.4,1.1,7.4,3.1
		s3.1,4.7,3.1,7.5s-1.1,5.5-3.1,7.5S98.5,44,95.7,44h-1.3v5.3l0.2,0.9h0.9c0.1,0,0.1,0,0.2,0c9.3,0,16.8-7.5,16.8-16.8
		S105,16.6,95.7,16.6z"/>
	<path d="M101,36.1c0.1,0,0.2,0,0.3,0c0.2,0,0.3,0,0.5-0.1c0.5-0.1,1-0.5,1.3-0.9c0.3-0.5,0.4-1,0.2-1.5c-0.1-0.5-0.5-1-0.9-1.3
		s-1-0.4-1.4-0.3h-3.9v-6.8c0-0.1,0-0.3,0-0.4l0.2-0.2L96.8,24c-0.1-0.1-0.1-0.2-0.2-0.2c-0.4-0.4-1-0.7-1.5-0.7l0,0
		c-1.1,0-2,1-2,2.1v9c0,1.1,0.9,2,2,2L101,36.1L101,36.1z"/>
</g>
<path id="Backup_1_" class="st26" d="M95.9,24.4c-0.2-0.2-0.5-0.3-0.8-0.3c-0.6,0-1,0.5-1,1.1v8.9c0,0.6,0.5,1,1,1h6
	c0.2,0,0.3,0,0.5,0c0.6-0.1,0.9-0.7,0.8-1.3s-0.7-0.9-1.3-0.8h-4.9v-7.9c0-0.2,0-0.4-0.1-0.6l0,0C96,24.5,95.9,24.4,95.9,24.4
	L95.9,24.4z M95.7,17.6c8.7,0,15.8,7.1,15.8,15.8s-7.1,15.8-15.8,15.8c-0.1,0-0.2,0-0.3,0V45c0.1,0,0.2,0,0.3,0c0,0,0,0,0.1,0
	c6.4,0,11.5-5.2,11.5-11.6c0,0,0,0,0-0.1c0-6.4-5.2-11.5-11.6-11.5c0,0,0,0-0.1,0c-6.4,0-11.5,5.2-11.5,11.6c0,0,0,0,0,0.1
	s0,0.2,0,0.3h5.2l-6.9,6.9l-6.9-6.9H80c0-0.1,0-0.3,0-0.4C79.9,24.7,87,17.6,95.7,17.6z"/>
<linearGradient id="Backup_2_" gradientUnits="userSpaceOnUse" x1="93.5" y1="398.1654" x2="93.5" y2="366.5654" gradientTransform="matrix(1 0 0 1 0 -350)">
	<stop  offset="0" style="stop-color:#D7DADC"/>
	<stop  offset="1" style="stop-color:#EBEBEB"/>
</linearGradient>
<path id="Backup" class="st27" d="M95.9,23.4c-0.2-0.2-0.5-0.3-0.8-0.3c-0.6,0-1,0.5-1,1.1v8.9c0,0.6,0.5,1,1,1h6c0.2,0,0.3,0,0.5,0
	c0.6-0.1,0.9-0.7,0.8-1.3s-0.7-0.9-1.3-0.8h-4.9v-7.9c0-0.2,0-0.4-0.1-0.6l0,0C96,23.5,95.9,23.4,95.9,23.4L95.9,23.4z M95.7,16.6
	c8.7,0,15.8,7.1,15.8,15.8s-7.1,15.8-15.8,15.8c-0.1,0-0.2,0-0.3,0V44c0.1,0,0.2,0,0.3,0c0,0,0,0,0.1,0c6.4,0,11.5-5.2,11.5-11.6
	c0,0,0,0,0-0.1c0-6.4-5.2-11.5-11.6-11.5c0,0,0,0-0.1,0c-6.4,0-11.5,5.2-11.5,11.6c0,0,0,0,0,0.1s0,0.2,0,0.3h5.2l-6.9,6.9l-6.9-6.9
	H80c0-0.1,0-0.3,0-0.4C79.9,23.7,87,16.6,95.7,16.6z"/>
</svg>
