<?xml version="1.0" encoding="utf-8"?>
<!-- Generator: Adobe Illustrator 22.0.1, SVG Export Plug-In . SVG Version: 6.00 Build 0)  -->
<svg version="1.1"
	 id="svg2" inkscape:version="0.92.2 2405546, 2018-03-11" sodipodi:docname="usbprog.svg" xmlns:cc="http://creativecommons.org/ns#" xmlns:dc="http://purl.org/dc/elements/1.1/" xmlns:inkscape="http://www.inkscape.org/namespaces/inkscape" xmlns:rdf="http://www.w3.org/1999/02/22-rdf-syntax-ns#" xmlns:sodipodi="http://sodipodi.sourceforge.net/DTD/sodipodi-0.dtd" xmlns:svg="http://www.w3.org/2000/svg"
	 xmlns="http://www.w3.org/2000/svg" xmlns:xlink="http://www.w3.org/1999/xlink" x="0px" y="0px" viewBox="0 0 128 128"
	 style="enable-background:new 0 0 128 128;" xml:space="preserve">
<style type="text/css">
	.st0{opacity:0.3;fill:url(#rect2723_1_);enable-background:new    ;}
	.st1{opacity:0.3;fill:url(#path2725_1_);enable-background:new    ;}
	.st2{opacity:0.3;fill:url(#path2727_1_);enable-background:new    ;}
	.st3{fill:url(#rect6431_1_);stroke:#353537;stroke-width:0.928;stroke-linecap:round;stroke-linejoin:round;}
	.st4{fill:#D2D2D3;}
	.st5{fill:url(#path6345_1_);stroke:url(#path6345_2_);stroke-width:0.9958;stroke-linecap:round;stroke-linejoin:round;}
	.st6{opacity:0.4;fill:none;stroke:#FFFFFF;stroke-linecap:round;enable-background:new    ;}
	.st7{fill:#E1E1E1;}
	.st8{fill:url(#path9009_1_);}
	.st9{fill:#F0F0F0;}
	.st10{fill:url(#path9021_1_);}
	.st11{fill:url(#path9027_1_);}
	.st12{fill:url(#rect8993_1_);}
	.st13{opacity:0.8114;fill:url(#path8995_1_);enable-background:new    ;}
	.st14{fill:url(#path9093_1_);}
	.st15{opacity:0.3;fill:url(#rect6300-3_1_);enable-background:new    ;}
	.st16{opacity:0.72;}
	.st17{fill:#393939;}
	.st18{fill:url(#path4176_1_);stroke:#76A578;stroke-width:0.4099;stroke-linecap:round;stroke-linejoin:round;}
	.st19{fill:#FFFFFF;fill-opacity:0.2966;}
	.st20{opacity:0.7216;enable-background:new    ;}
	.st21{opacity:0.7216;fill:#393939;enable-background:new    ;}
	.st22{fill-opacity:1.520913e-02;}
	.st23{fill-opacity:1.520912e-02;}
	.st24{fill:url(#path4169_1_);}
	.st25{fill:url(#path4297_1_);}
	.st26{fill-opacity:6.844106e-02;}
	.st27{opacity:0.1;}
	.st28{fill:url(#Backup_2_);}
</style>
<g id="layer1">
	
		<linearGradient id="rect2723_1_" gradientUnits="userSpaceOnUse" x1="3263.5071" y1="-9518.2139" x2="3263.5071" y2="-9755.2422" gradientTransform="matrix(0.2086 0 0 -5.625201e-02 -616.8176 -420.752)">
		<stop  offset="0" style="stop-color:#000000;stop-opacity:0"/>
		<stop  offset="0.5" style="stop-color:#000000"/>
		<stop  offset="1" style="stop-color:#000000;stop-opacity:0"/>
	</linearGradient>
	<rect id="rect2723" x="14.8" y="114.7" class="st0" width="98.3" height="13.3"/>
	
		<radialGradient id="path2725_1_" cx="6075.106" cy="-9635.334" r="114.3315" gradientTransform="matrix(0.1225 0 0 -5.625201e-02 -630.8065 -420.752)" gradientUnits="userSpaceOnUse">
		<stop  offset="0" style="stop-color:#000000"/>
		<stop  offset="1" style="stop-color:#000000;stop-opacity:0"/>
	</radialGradient>
	<path id="path2725" class="st1" d="M113.1,114.7V128c6.2,0,14.9-3,14.9-6.7C128,117.7,121.1,114.7,113.1,114.7z"/>
	
		<radialGradient id="path2727_1_" cx="-6413.5352" cy="-9635.334" r="114.3315" gradientTransform="matrix(-0.1225 0 0 -5.625201e-02 -771.1935 -420.752)" gradientUnits="userSpaceOnUse">
		<stop  offset="0" style="stop-color:#000000"/>
		<stop  offset="1" style="stop-color:#000000;stop-opacity:0"/>
	</radialGradient>
	<path id="path2727" class="st2" d="M14.9,114.7V128C8.7,128,0,125,0,121.3C0,117.7,6.9,114.7,14.9,114.7z"/>
	
		<linearGradient id="rect6431_1_" gradientUnits="userSpaceOnUse" x1="-460.8031" y1="-0.6892" x2="-460.7422" y2="-9.4732" gradientTransform="matrix(2.7798 0 0 -2.0107 1344.9315 103.2755)">
		<stop  offset="0" style="stop-color:#7A7A7A"/>
		<stop  offset="1" style="stop-color:#474747"/>
	</linearGradient>
	<path id="rect6431" class="st3" d="M3,105.6h122l-2.4,15.7H5.7L3,105.6L3,105.6z"/>
	<rect id="rect6381" x="3.2" y="103.5" class="st4" width="121.7" height="2.7"/>
	
		<radialGradient id="path6345_1_" cx="-537.8134" cy="253.0909" r="22.4947" gradientTransform="matrix(3.8158 1.955 1.2975 -2.592 1755.7133 1748.769)" gradientUnits="userSpaceOnUse">
		<stop  offset="0" style="stop-color:#E6E6E6"/>
		<stop  offset="1" style="stop-color:#C8C8C8"/>
	</radialGradient>
	
		<linearGradient id="path6345_2_" gradientUnits="userSpaceOnUse" x1="-464.8987" y1="85.1485" x2="-464.6458" y2="104.4866" gradientTransform="matrix(2.7717 0 0 -2.8041 1352.8324 323.3252)">
		<stop  offset="0" style="stop-color:#969696"/>
		<stop  offset="1" style="stop-color:#B4B4B4"/>
	</linearGradient>
	<path id="path6345" class="st5" d="M125,105.7l-18.4-70.5c-0.5-2-3.2-3.6-5.5-3.6H26.3c-3.5,0-5.5,0.5-6.3,3.6L3,105.6"/>
	<path id="path7046" class="st6" d="M124,105.7H4"/>
	<path id="path9007" class="st7" d="M16.2,99.3c-0.1,1.6-2,2.9-4.1,2.9c-2.2,0-3.8-1.3-3.7-2.9s2-2.9,4.1-2.9
		C14.7,96.4,16.3,97.7,16.2,99.3L16.2,99.3z"/>
	
		<radialGradient id="path9009_1_" cx="-1412.9674" cy="-338.2269" r="2.5028" fx="-1412.38" fy="-337.8245" gradientTransform="matrix(-1.0069 0 0 -0.9756 -1410.4255 -230.646)" gradientUnits="userSpaceOnUse">
		<stop  offset="0" style="stop-color:#EEEEEE"/>
		<stop  offset="0.16" style="stop-color:#CECECE"/>
		<stop  offset="0.4675" style="stop-color:#888888"/>
		<stop  offset="1" style="stop-color:#555555"/>
	</radialGradient>
	<path id="path9009" class="st8" d="M14.8,98.2c0.2,0.2,0.4,0.5,0.4,1v0.1c-0.1,1.1-1.5,2.1-3.2,2.1c-0.9,0-1.8-0.3-2.3-0.8
		c-0.2-0.2-0.5-0.6-0.4-1.1c0.1-1.1,1.5-2,3.2-2C13.4,97.4,14.3,97.7,14.8,98.2L14.8,98.2L14.8,98.2L14.8,98.2z"/>
	<path id="path9019" class="st9" d="M22.1,34.5c0.2,1,1.7,1.6,3.3,1.2c1.6-0.3,2.7-1.5,2.5-2.5s-1.7-1.6-3.3-1.2
		C22.9,32.4,21.8,33.5,22.1,34.5z"/>
	
		<radialGradient id="path9021_1_" cx="251.2885" cy="-867.4943" r="2.5009" fx="251.8755" fy="-867.0922" gradientTransform="matrix(0.7478 -0.1586 -8.422800e-02 -0.63 -236.0194 -472.7293)" gradientUnits="userSpaceOnUse">
		<stop  offset="0" style="stop-color:#EEEEEE"/>
		<stop  offset="0.16" style="stop-color:#CECECE"/>
		<stop  offset="0.4675" style="stop-color:#888888"/>
		<stop  offset="1" style="stop-color:#555555"/>
	</radialGradient>
	<path id="path9021" class="st10" d="M23,33.6c-0.1,0.2-0.3,0.4-0.2,0.7c0,0,0,0,0,0.1c0.2,0.7,1.3,1.1,2.5,0.8
		c0.7-0.1,1.3-0.5,1.6-0.9c0.1-0.2,0.3-0.5,0.2-0.8c-0.2-0.7-1.3-1.1-2.5-0.8C23.9,32.8,23.3,33.2,23,33.6L23,33.6L23,33.6z"/>
	<path id="path9025" class="st7" d="M98.2,33.4c0,1,1.3,2.1,2.9,2.4c1.6,0.3,3-0.3,3-1.3s-1.3-2.1-2.9-2.4
		C99.5,31.8,98.2,32.4,98.2,33.4z"/>
	
		<radialGradient id="path9027_1_" cx="422.3503" cy="-416.313" r="2.5022" fx="422.9376" fy="-415.9107" gradientTransform="matrix(0.7565 0.1411 7.792703e-02 -0.613 -185.9765 -280.8641)" gradientUnits="userSpaceOnUse">
		<stop  offset="0" style="stop-color:#EEEEEE"/>
		<stop  offset="0.16" style="stop-color:#CECECE"/>
		<stop  offset="0.4675" style="stop-color:#888888"/>
		<stop  offset="1" style="stop-color:#555555"/>
	</radialGradient>
	<path id="path9027" class="st11" d="M99.3,32.9c-0.2,0.1-0.4,0.3-0.4,0.6c0,0,0,0,0,0.1c0,0.7,1,1.5,2.2,1.7
		c0.7,0.1,1.4,0.1,1.8-0.2c0.2-0.1,0.4-0.3,0.4-0.6c0-0.7-1-1.5-2.2-1.7C100.4,32.5,99.7,32.6,99.3,32.9L99.3,32.9L99.3,32.9
		L99.3,32.9z"/>
	
		<linearGradient id="rect8993_1_" gradientUnits="userSpaceOnUse" x1="-485.8461" y1="72.4361" x2="-468.6441" y2="72.4361" gradientTransform="matrix(2.8154 0 0 -2.6966 1389.2781 308.8311)">
		<stop  offset="0" style="stop-color:#000000"/>
		<stop  offset="1" style="stop-color:#000000;stop-opacity:0"/>
	</linearGradient>
	<path id="rect8993" class="st12" d="M20.1,106.2h49.8v14.6H21.4L20.1,106.2z"/>
	
		<linearGradient id="path8995_1_" gradientUnits="userSpaceOnUse" x1="-475.0433" y1="90.0588" x2="-475.0976" y2="93.4232" gradientTransform="matrix(2.7759 0 0 -2.9914 1356.8295 391.4863)">
		<stop  offset="0" style="stop-color:#EEEEEE"/>
		<stop  offset="1" style="stop-color:#EEEEEE;stop-opacity:0"/>
	</linearGradient>
	<path id="path8995" class="st13" d="M21.1,120.8L20,109.1c5,9.3,23.5,11.7,36.1,11.7L21.1,120.8L21.1,120.8z"/>
	<path id="path9091" class="st7" d="M111.8,99.3c0.1,1.6,2,2.9,4.1,2.9c2.2,0,3.8-1.3,3.7-2.9c-0.1-1.6-2-2.9-4.1-2.9
		C113.3,96.4,111.7,97.7,111.8,99.3L111.8,99.3z"/>
	
		<radialGradient id="path9093_1_" cx="106.5709" cy="-338.2269" r="2.5021" fx="107.1582" fy="-337.8246" gradientTransform="matrix(1.0069 0 0 -0.9756 8.4256 -230.646)" gradientUnits="userSpaceOnUse">
		<stop  offset="0" style="stop-color:#EEEEEE"/>
		<stop  offset="0.16" style="stop-color:#CECECE"/>
		<stop  offset="0.4675" style="stop-color:#888888"/>
		<stop  offset="1" style="stop-color:#555555"/>
	</radialGradient>
	<path id="path9093" class="st14" d="M113.2,98.2c-0.2,0.2-0.4,0.5-0.4,1v0.1c0.1,1.1,1.5,2.1,3.2,2.1c0.9,0,1.8-0.3,2.3-0.8
		c0.2-0.2,0.5-0.6,0.4-1.1c-0.1-1.1-1.5-2-3.2-2C114.6,97.4,113.7,97.7,113.2,98.2L113.2,98.2L113.2,98.2L113.2,98.2z"/>
	
		<radialGradient id="rect6300-3_1_" cx="-468.7115" cy="-233.5234" r="20.497" gradientTransform="matrix(2.8095 0 0 -1.0714 1380.845 -136.7144)" gradientUnits="userSpaceOnUse">
		<stop  offset="0" style="stop-color:#FFFFFF"/>
		<stop  offset="1" style="stop-color:#FFFFFF;stop-opacity:0"/>
	</radialGradient>
	<rect id="rect6300-3" x="6.4" y="106.2" class="st15" width="115.2" height="14.6"/>
</g>
<g class="st16">
	<path class="st17" d="M96.6,51.1l0.5,10.8l-6.6,10.2h7.1l0.6,11.5c0,0.4-0.1,0.8-0.3,1.2c-0.2,0.4-0.6,0.7-1,1s-0.9,0.5-1.5,0.7
		s-1.2,0.2-1.9,0.2H39c-0.7,0-1.3-0.1-1.9-0.2c-0.6-0.2-1.1-0.4-1.5-0.7c-0.4-0.3-0.8-0.6-1-1s-0.3-0.8-0.3-1.2l0.6-11.5l7.5-10.2
		h-7l0.5-10.8c0-0.4,0.2-0.8,0.4-1.1c0.3-0.3,0.6-0.6,1-0.9c0.4-0.3,0.9-0.5,1.5-0.6s1.2-0.2,1.8-0.2h51.2c0.6,0,1.3,0.1,1.8,0.2
		c0.6,0.1,1.1,0.3,1.5,0.6s0.8,0.6,1,0.9C96.4,50.3,96.6,50.7,96.6,51.1z M74,82.1c0.3-0.2,0.5-0.4,0.6-0.6s0.2-0.5,0.2-0.7
		s-0.1-0.5-0.2-0.7s-0.4-0.4-0.7-0.6c-0.1-0.1-0.3-0.2-0.5-0.2c-0.2-0.1-0.3-0.1-0.5-0.2c-0.2,0-0.4-0.1-0.5-0.1c-0.2,0-0.4,0-0.6,0
		s-0.4,0-0.6,0s-0.3,0-0.4,0c-0.2,0-0.3,0.1-0.5,0.2s-0.3,0.1-0.5,0.2c-0.3,0.2-0.5,0.4-0.6,0.6S69,80.5,69,80.7s0.1,0.5,0.2,0.7
		s0.4,0.4,0.7,0.6c0.1,0.1,0.3,0.2,0.5,0.2c0.2,0.1,0.3,0.1,0.5,0.2c0.2,0,0.4,0.1,0.6,0.1s0.4,0,0.6,0s0.4,0,0.6,0s0.4-0.1,0.5-0.1
		c0.2,0,0.4-0.1,0.5-0.2C73.7,82.3,73.9,82.2,74,82.1 M64.2,68.9c-0.3,0.2-0.5,0.4-0.6,0.6s-0.2,0.4-0.2,0.7c0,0.2,0.1,0.5,0.2,0.7
		c0.1,0.2,0.4,0.4,0.6,0.6c0.1,0.1,0.3,0.2,0.5,0.2c0.2,0.1,0.3,0.1,0.5,0.2c0.2,0,0.4,0.1,0.5,0.1c0.2,0,0.4,0,0.6,0s0.4,0,0.6,0
		s0.4-0.1,0.5-0.1c0.2,0,0.3-0.1,0.5-0.2s0.3-0.1,0.5-0.2c0.3-0.2,0.5-0.4,0.6-0.6s0.2-0.4,0.2-0.7c0-0.2-0.1-0.5-0.2-0.7
		s-0.4-0.4-0.6-0.6c-0.1-0.1-0.3-0.2-0.5-0.2c-0.2-0.1-0.3-0.1-0.5-0.2c-0.2,0-0.4-0.1-0.5-0.1c-0.2,0-0.4,0-0.6,0s-0.4,0-0.6,0
		s-0.4,0.1-0.5,0.1c-0.2,0-0.3,0.1-0.5,0.2C64.5,68.7,64.3,68.8,64.2,68.9 M85.4,82.1c0.3-0.2,0.5-0.4,0.6-0.6s0.2-0.5,0.2-0.7
		s-0.1-0.5-0.2-0.7c-0.2-0.2-0.4-0.4-0.7-0.6c-0.1-0.1-0.3-0.2-0.5-0.2c-0.2-0.1-0.3-0.1-0.5-0.2c-0.2,0-0.4-0.1-0.5-0.1
		c-0.2,0-0.4,0-0.6,0s-0.4,0-0.6,0s-0.4,0.1-0.5,0.1c-0.2,0-0.3,0.1-0.5,0.2s-0.3,0.1-0.5,0.2c-0.3,0.2-0.5,0.4-0.6,0.6
		s-0.2,0.5-0.2,0.7s0.1,0.5,0.2,0.7s0.4,0.4,0.7,0.6c0.1,0.1,0.3,0.2,0.5,0.2c0.2,0.1,0.3,0.1,0.5,0.2c0.2,0,0.4,0.1,0.6,0.1
		s0.4,0,0.6,0s0.4,0,0.6,0s0.4-0.1,0.5-0.1c0.2,0,0.3-0.1,0.5-0.2C85.1,82.3,85.3,82.2,85.4,82.1 M62.6,82.1
		c0.3-0.2,0.5-0.4,0.7-0.6c0.1-0.2,0.2-0.5,0.2-0.7s-0.1-0.5-0.2-0.7c-0.1-0.2-0.4-0.4-0.6-0.6c-0.1-0.1-0.3-0.2-0.5-0.2
		c-0.2-0.1-0.3-0.1-0.5-0.2c-0.2,0-0.4-0.1-0.5-0.1c-0.2,0-0.4,0-0.6,0c-0.2,0-0.4,0-0.6,0c-0.2,0-0.4,0.1-0.5,0.1
		c-0.2,0-0.4,0.1-0.5,0.2c-0.2,0.1-0.3,0.1-0.5,0.2c-0.3,0.2-0.5,0.4-0.7,0.6c-0.1,0.2-0.2,0.5-0.2,0.7s0.1,0.5,0.2,0.7
		c0.1,0.2,0.4,0.4,0.6,0.6c0.1,0.1,0.3,0.2,0.5,0.2c0.2,0.1,0.3,0.1,0.5,0.2c0.2,0,0.4,0.1,0.5,0.1c0.2,0,0.4,0,0.6,0
		c0.2,0,0.4,0,0.6,0c0.2,0,0.4-0.1,0.6-0.1c0.2,0,0.4-0.1,0.5-0.2C62.3,82.3,62.4,82.2,62.6,82.1 M62.6,74.9
		c0.3-0.2,0.5-0.4,0.6-0.6s0.2-0.5,0.2-0.7s-0.1-0.5-0.2-0.7c-0.1-0.2-0.4-0.4-0.6-0.6c-0.1-0.1-0.3-0.2-0.5-0.2
		c-0.1,0-0.2-0.1-0.4-0.1s-0.4-0.1-0.5-0.1c-0.2,0-0.4,0-0.6,0c-0.2,0-0.4,0-0.6,0c-0.2,0-0.4,0.1-0.5,0.1c-0.2,0-0.3,0.1-0.5,0.2
		s-0.3,0.1-0.5,0.2c-0.3,0.2-0.5,0.4-0.6,0.6s-0.2,0.5-0.2,0.7s0.1,0.5,0.2,0.7c0.1,0.2,0.4,0.4,0.6,0.6c0.1,0.1,0.3,0.2,0.5,0.2
		c0.2,0.1,0.3,0.1,0.5,0.2c0.2,0,0.4,0.1,0.5,0.1c0.2,0,0.4,0,0.6,0s0.4,0,0.6,0c0.2,0,0.4-0.1,0.5-0.1c0.2,0,0.3-0.1,0.5-0.2
		C62.3,75.1,62.5,75,62.6,74.9 M66.2,79c0.2,0,0.4,0,0.6,0s0.4-0.1,0.5-0.1c0.2,0,0.3-0.1,0.5-0.2s0.3-0.1,0.5-0.2
		c0.3-0.2,0.5-0.4,0.6-0.6s0.2-0.5,0.2-0.7s-0.1-0.5-0.2-0.7s-0.4-0.4-0.6-0.6c-0.1-0.1-0.3-0.2-0.5-0.2c-0.2-0.1-0.3-0.1-0.5-0.2
		c-0.2,0-0.4-0.1-0.5-0.1c-0.2,0-0.4,0-0.6,0s-0.4,0-0.6,0s-0.4,0.1-0.5,0.1c-0.2,0-0.3,0.1-0.5,0.2s-0.3,0.1-0.5,0.2
		c-0.3,0.2-0.5,0.4-0.6,0.6s-0.2,0.5-0.2,0.7s0.1,0.5,0.2,0.7c0.1,0.2,0.4,0.4,0.6,0.6c0.1,0.1,0.3,0.2,0.5,0.2
		c0.2,0.1,0.3,0.1,0.5,0.2c0.2,0,0.4,0.1,0.5,0.1C65.8,79,66,79,66.2,79 M77.5,79c0.2,0,0.4,0,0.6,0s0.4-0.1,0.5-0.1
		c0.2,0,0.3-0.1,0.5-0.2s0.3-0.1,0.5-0.2c0.3-0.2,0.5-0.4,0.6-0.6s0.2-0.5,0.2-0.7s-0.1-0.5-0.2-0.7s-0.4-0.4-0.7-0.6
		c-0.1-0.1-0.3-0.2-0.5-0.2c-0.2-0.1-0.3-0.1-0.5-0.2c-0.2,0-0.4-0.1-0.5-0.1c-0.2,0-0.4,0-0.6,0s-0.4,0-0.6,0s-0.4,0.1-0.5,0.1
		c-0.2,0-0.3,0.1-0.5,0.2s-0.3,0.1-0.5,0.2c-0.3,0.2-0.5,0.4-0.6,0.6s-0.2,0.5-0.2,0.7s0.1,0.5,0.2,0.7s0.4,0.4,0.7,0.6
		c0.1,0.1,0.3,0.2,0.5,0.2c0.2,0.1,0.3,0.1,0.5,0.2c0.2,0,0.4,0.1,0.5,0.1C77.2,79,77.4,79,77.5,79 M69.8,72.4
		c-0.3,0.2-0.5,0.4-0.6,0.6S69,73.5,69,73.7s0.1,0.5,0.2,0.7s0.4,0.4,0.6,0.6c0.1,0.1,0.3,0.2,0.5,0.2c0.2,0.1,0.3,0.1,0.5,0.2
		c0.2,0,0.4,0.1,0.5,0.1c0.2,0,0.4,0,0.6,0s0.4,0,0.6,0s0.4-0.1,0.5-0.1c0.2,0,0.3-0.1,0.5-0.2s0.3-0.1,0.5-0.2
		c0.3-0.2,0.5-0.4,0.6-0.6s0.2-0.5,0.2-0.7s-0.1-0.5-0.2-0.7s-0.4-0.4-0.6-0.6c-0.1-0.1-0.3-0.2-0.5-0.2c-0.2-0.1-0.3-0.1-0.5-0.2
		c-0.2,0-0.4-0.1-0.5-0.1c-0.2,0-0.4,0-0.6,0s-0.4,0-0.6,0S70.9,72,70.8,72c-0.2,0-0.3,0.1-0.5,0.2C70.1,72.2,69.9,72.3,69.8,72.4
		 M51.1,82.1c0.3-0.2,0.5-0.4,0.7-0.6C52,81.2,52,81,52,80.8s-0.1-0.5-0.2-0.7c-0.1-0.2-0.4-0.4-0.6-0.6c-0.1-0.1-0.3-0.2-0.5-0.2
		c-0.2-0.1-0.3-0.1-0.5-0.2c-0.2,0-0.4-0.1-0.5-0.1c-0.2,0-0.4,0-0.6,0c-0.2,0-0.4,0-0.6,0c-0.1,0-0.3,0-0.5,0s-0.4,0.1-0.5,0.2
		c-0.2,0.1-0.3,0.1-0.5,0.2c-0.3,0.2-0.5,0.4-0.7,0.6s-0.2,0.5-0.2,0.7s0.1,0.5,0.2,0.7c0.1,0.2,0.3,0.4,0.6,0.6
		c0.1,0.1,0.3,0.2,0.5,0.2c0.2,0.1,0.3,0.1,0.5,0.2c0.2,0,0.4,0.1,0.5,0.1c0.2,0,0.4,0,0.6,0c0.2,0,0.4,0,0.6,0
		c0.2,0,0.4-0.1,0.6-0.1c0.2,0,0.4-0.1,0.5-0.2C50.8,82.2,51,82.2,51.1,82.1 M54.8,79c0.2,0,0.4,0,0.6,0c0.2,0,0.4-0.1,0.5-0.1
		c0.2,0,0.4-0.1,0.5-0.2c0.2-0.1,0.3-0.1,0.5-0.2c0.3-0.2,0.5-0.4,0.7-0.6c0.1-0.2,0.2-0.5,0.2-0.7s-0.1-0.5-0.2-0.7
		c-0.1-0.2-0.4-0.4-0.6-0.6c-0.1-0.1-0.3-0.2-0.5-0.2c-0.2-0.1-0.3-0.1-0.5-0.2c-0.2,0-0.4-0.1-0.5-0.1c-0.2,0-0.4,0-0.6,0
		c-0.2,0-0.4,0-0.6,0c-0.2,0-0.4,0.1-0.5,0.1c-0.2,0-0.4,0.1-0.5,0.2c-0.2,0.1-0.3,0.1-0.5,0.2c-0.3,0.2-0.5,0.4-0.7,0.6
		c-0.1,0.2-0.2,0.5-0.2,0.7s0.1,0.5,0.2,0.7c0.1,0.2,0.4,0.4,0.6,0.6c0.1,0.1,0.3,0.2,0.5,0.2c0.2,0.1,0.3,0.1,0.5,0.2
		c0.2,0,0.4,0.1,0.5,0.1C54.4,79,54.6,79,54.8,79 M65.1,58.6c-0.2,0.1-0.3,0.2-0.4,0.3s-0.1,0.2-0.1,0.4c0,0.1,0,0.3,0.1,0.4
		c0.1,0.1,0.2,0.2,0.4,0.3c0.1,0,0.2,0.1,0.3,0.1c0.1,0,0.2,0.1,0.3,0.1c0.1,0,0.2,0,0.3,0.1c0.1,0,0.2,0,0.3,0c0.1,0,0.2,0,0.3,0
		c0.1,0,0.2,0,0.3-0.1c0.1,0,0.2-0.1,0.3-0.1c0.1,0,0.2-0.1,0.3-0.1c0.2-0.1,0.3-0.2,0.4-0.3s0.1-0.2,0.1-0.4c0-0.1,0-0.3-0.1-0.4
		c-0.1-0.1-0.2-0.2-0.4-0.3c-0.1,0-0.2-0.1-0.3-0.1c-0.1,0-0.2-0.1-0.3-0.1c-0.1,0-0.2,0-0.3-0.1c-0.1,0-0.2,0-0.3,0s-0.2,0-0.3,0
		s-0.2,0-0.3,0.1c-0.1,0-0.2,0.1-0.3,0.1C65.2,58.5,65.1,58.6,65.1,58.6 M51,54.3c-0.2,0.1-0.3,0.2-0.4,0.3
		c-0.1,0.1-0.1,0.2-0.1,0.4c0,0.1,0,0.3,0.1,0.4c0.1,0.1,0.2,0.2,0.4,0.3c0.1,0,0.2,0.1,0.3,0.1s0.2,0.1,0.3,0.1s0.2,0,0.3,0.1
		c0.1,0,0.2,0,0.3,0s0.2,0,0.3,0s0.2,0,0.3-0.1c0.1,0,0.2-0.1,0.3-0.1s0.2-0.1,0.3-0.1c0.2-0.1,0.3-0.2,0.4-0.3
		c0.1-0.1,0.1-0.2,0.1-0.4c0-0.1,0-0.3-0.1-0.4c-0.1-0.1-0.2-0.2-0.4-0.3c-0.1,0-0.2-0.1-0.3-0.1s-0.2-0.1-0.3-0.1s-0.2,0-0.3-0.1
		c-0.1,0-0.2,0-0.3,0s-0.2,0-0.3,0s-0.2,0-0.3,0.1c-0.1,0-0.2,0.1-0.3,0.1C51.1,54.2,51,54.3,51,54.3 M54.5,52.2
		c-0.2,0.1-0.3,0.2-0.4,0.3C54,52.6,54,52.7,54,52.9c0,0.1,0,0.3,0.1,0.4c0.1,0.1,0.2,0.2,0.4,0.3c0.1,0,0.2,0.1,0.3,0.1
		s0.2,0.1,0.3,0.1s0.2,0,0.3,0.1c0.1,0,0.2,0,0.3,0s0.2,0,0.3,0s0.2,0,0.3-0.1c0.1,0,0.2-0.1,0.3-0.1s0.2-0.1,0.3-0.1
		c0.2-0.1,0.3-0.2,0.4-0.3c0.1-0.1,0.1-0.2,0.1-0.4c0-0.1,0-0.3-0.1-0.4c-0.1-0.1-0.2-0.2-0.4-0.3c-0.1,0-0.2-0.1-0.3-0.1
		S56.4,52,56.3,52s-0.2,0-0.3-0.1c-0.1,0-0.2,0-0.3,0s-0.2,0-0.3,0s-0.2,0-0.3,0.1c-0.1,0-0.2,0.1-0.3,0.1
		C54.7,52.1,54.6,52.1,54.5,52.2 M54.4,56.5c-0.2,0.1-0.3,0.2-0.4,0.3c-0.1,0.1-0.1,0.2-0.1,0.4c0,0.1,0,0.3,0.1,0.4
		c0.1,0.1,0.2,0.2,0.4,0.3c0.1,0,0.2,0.1,0.3,0.1s0.2,0.1,0.3,0.1s0.2,0,0.3,0.1s0.2,0,0.3,0s0.2,0,0.3,0s0.2,0,0.3-0.1
		c0.1,0,0.2-0.1,0.3-0.1s0.2-0.1,0.3-0.1c0.2-0.1,0.3-0.2,0.4-0.3c0.1-0.1,0.1-0.2,0.1-0.4c0-0.1,0-0.3-0.1-0.4
		c-0.1-0.1-0.2-0.2-0.4-0.3c-0.1,0-0.2-0.1-0.3-0.1s-0.2-0.1-0.3-0.1s-0.2,0-0.3-0.1c-0.1,0-0.2,0-0.3,0s-0.2,0-0.3,0
		s-0.2,0-0.3,0.1c-0.1,0-0.2,0.1-0.3,0.1C54.6,56.4,54.5,56.4,54.4,56.5 M58,58.6c-0.2,0.1-0.3,0.2-0.4,0.3
		c-0.1,0.1-0.1,0.2-0.1,0.4c0,0.1,0,0.3,0.1,0.4c0.1,0.1,0.2,0.2,0.4,0.3c0.1,0,0.2,0.1,0.3,0.1s0.2,0.1,0.3,0.1s0.2,0,0.3,0.1
		s0.2,0,0.3,0s0.2,0,0.3,0s0.2,0,0.3-0.1c0.1,0,0.2-0.1,0.3-0.1s0.2-0.1,0.3-0.1c0.2-0.1,0.3-0.2,0.4-0.3c0.1-0.1,0.1-0.2,0.1-0.4
		c0-0.1,0-0.3-0.1-0.4c-0.1-0.1-0.2-0.2-0.4-0.3c-0.1,0-0.2-0.1-0.3-0.1s-0.2-0.1-0.3-0.1s-0.2,0-0.3-0.1c-0.1,0-0.2,0-0.3,0
		s-0.2,0-0.3,0s-0.2,0-0.3,0.1c-0.1,0-0.2,0.1-0.3,0.1C58.1,58.5,58,58.6,58,58.6 M61.5,60.7c-0.2,0.1-0.3,0.2-0.4,0.3
		C61,61.2,61,61.3,61,61.4c0,0.1,0,0.3,0.1,0.4c0.1,0.1,0.2,0.2,0.4,0.3c0.1,0,0.2,0.1,0.3,0.1s0.2,0.1,0.3,0.1s0.2,0,0.3,0.1
		c0.1,0,0.2,0,0.3,0s0.2,0,0.3,0s0.2,0,0.3-0.1c0.1,0,0.2-0.1,0.3-0.1s0.2-0.1,0.3-0.1c0.2-0.1,0.3-0.2,0.4-0.3s0.1-0.3,0.1-0.4
		c0-0.1,0-0.3-0.1-0.4c-0.1-0.1-0.2-0.2-0.4-0.3c-0.1,0-0.2-0.1-0.3-0.1s-0.2-0.1-0.3-0.1s-0.2,0-0.3-0.1c-0.1,0-0.2,0-0.3,0
		s-0.2,0-0.3,0s-0.2,0-0.3,0.1c-0.1,0-0.2,0.1-0.3,0.1C61.7,60.6,61.6,60.7,61.5,60.7 M72.1,54.3c-0.2,0.1-0.3,0.2-0.4,0.3
		s-0.1,0.2-0.1,0.4c0,0.1,0,0.3,0.1,0.4c0.1,0.1,0.2,0.2,0.4,0.3c0.1,0,0.2,0.1,0.3,0.1s0.2,0.1,0.3,0.1c0.1,0,0.2,0,0.3,0.1
		c0.1,0,0.2,0,0.3,0c0.1,0,0.2,0,0.3,0c0.1,0,0.2,0,0.3-0.1c0.1,0,0.2-0.1,0.3-0.1c0.1,0,0.2-0.1,0.3-0.1c0.2-0.1,0.3-0.2,0.4-0.3
		S75,55.2,75,55c0-0.1,0-0.3-0.1-0.4c-0.1-0.1-0.2-0.2-0.4-0.3c-0.1,0-0.2-0.1-0.3-0.1c-0.1,0-0.2-0.1-0.3-0.1s-0.2,0-0.3-0.1
		c-0.1,0-0.2,0-0.3,0c-0.1,0-0.2,0-0.3,0c-0.1,0-0.2,0-0.3,0.1s-0.2,0.1-0.3,0.1C72.3,54.2,72.2,54.2,72.1,54.3 M65,62.9
		c-0.2,0.1-0.3,0.2-0.4,0.3s-0.1,0.3-0.1,0.4c0,0.1,0,0.3,0.1,0.4s0.2,0.2,0.4,0.3c0.1,0,0.2,0.1,0.3,0.1c0.1,0,0.2,0.1,0.3,0.1
		c0.1,0,0.2,0,0.3,0.1c0.1,0,0.2,0,0.3,0s0.2,0,0.3,0c0.1,0,0.2,0,0.3-0.1c0.1,0,0.2-0.1,0.3-0.1c0.1,0,0.2-0.1,0.3-0.1
		c0.2-0.1,0.3-0.2,0.4-0.3c0.1-0.1,0.1-0.3,0.1-0.4c0-0.1,0-0.3-0.1-0.4c-0.1-0.1-0.2-0.2-0.4-0.3c-0.1,0-0.2-0.1-0.3-0.1
		c-0.1,0-0.2-0.1-0.3-0.1s-0.2,0-0.3-0.1c-0.1,0-0.2,0-0.3,0c-0.1,0-0.2,0-0.3,0c-0.1,0-0.2,0-0.3,0.1s-0.2,0.1-0.3,0.1
		S65.1,62.9,65,62.9 M65.1,54.3c-0.2,0.1-0.3,0.2-0.4,0.3s-0.1,0.2-0.1,0.4c0,0.1,0,0.3,0.1,0.4c0.1,0.1,0.2,0.2,0.4,0.3
		c0.1,0,0.2,0.1,0.3,0.1c0.1,0,0.2,0.1,0.3,0.1c0.1,0,0.2,0,0.3,0.1c0.1,0,0.2,0,0.3,0c0.1,0,0.2,0,0.3,0c0.1,0,0.2,0,0.3-0.1
		c0.1,0,0.2-0.1,0.3-0.1c0.1,0,0.2-0.1,0.3-0.1c0.2-0.1,0.3-0.2,0.4-0.3S68,55.2,68,55c0-0.1,0-0.3-0.1-0.4
		c-0.1-0.1-0.2-0.2-0.4-0.3c-0.1,0-0.2-0.1-0.3-0.1c-0.1,0-0.2-0.1-0.3-0.1c-0.1,0-0.2,0-0.3-0.1c-0.1,0-0.2,0-0.3,0
		c-0.1,0-0.2,0-0.3,0c-0.1,0-0.2,0-0.3,0.1c-0.1,0-0.2,0.1-0.3,0.1C65.2,54.2,65.2,54.3,65.1,54.3 M58,54.3
		c-0.2,0.1-0.3,0.2-0.4,0.3c-0.1,0.1-0.1,0.2-0.1,0.4c0,0.1,0,0.3,0.1,0.4c0.1,0.1,0.2,0.2,0.4,0.3c0.1,0,0.2,0.1,0.3,0.1
		s0.2,0.1,0.3,0.1s0.2,0,0.3,0.1c0.1,0,0.2,0,0.3,0s0.2,0,0.3,0s0.2,0,0.3-0.1c0.1,0,0.2-0.1,0.3-0.1s0.2-0.1,0.3-0.1
		c0.2-0.1,0.3-0.2,0.4-0.3c0.1-0.1,0.1-0.2,0.1-0.4c0-0.1,0-0.3-0.1-0.4c-0.1-0.1-0.2-0.2-0.4-0.3c-0.1,0-0.2-0.1-0.3-0.1
		s-0.2-0.1-0.3-0.1s-0.2,0-0.3-0.1s-0.2,0-0.3,0s-0.2,0-0.3,0s-0.2,0-0.3,0.1c-0.1,0-0.2,0.1-0.3,0.1S58.1,54.3,58,54.3 M61.5,56.4
		c-0.2,0.1-0.3,0.2-0.4,0.3c0,0.2-0.1,0.3-0.1,0.4s0,0.3,0.1,0.4c0.1,0.1,0.2,0.2,0.4,0.3c0.1,0,0.2,0.1,0.3,0.1S62,58,62.1,58
		s0.2,0,0.3,0.1c0.1,0,0.2,0,0.3,0s0.2,0,0.3,0s0.2,0,0.3-0.1c0.1,0,0.2-0.1,0.3-0.1s0.2-0.1,0.3-0.1c0.2-0.1,0.3-0.2,0.4-0.3
		s0.1-0.2,0.1-0.4c0-0.1,0-0.3-0.1-0.4c-0.1-0.1-0.2-0.2-0.4-0.3c-0.1,0-0.2-0.1-0.3-0.1s-0.2-0.1-0.3-0.1s-0.2,0-0.3-0.1
		s-0.2,0-0.3,0s-0.2,0-0.3,0s-0.2,0-0.3,0.1c-0.1,0-0.2,0.1-0.3,0.1S61.6,56.4,61.5,56.4 M75.6,52.1c-0.2,0.1-0.3,0.2-0.3,0.3
		c-0.1,0.1-0.1,0.2-0.1,0.4c0,0.1,0,0.3,0.1,0.4c0.1,0.1,0.2,0.2,0.4,0.3c0.1,0,0.2,0.1,0.3,0.1c0.1,0,0.2,0.1,0.3,0.1
		c0.1,0,0.2,0,0.3,0.1c0.1,0,0.2,0,0.3,0c0.1,0,0.2,0,0.3,0c0.1,0,0.2,0,0.3-0.1c0.1,0,0.2-0.1,0.3-0.1s0.2-0.1,0.3-0.1
		c0.2-0.1,0.3-0.2,0.4-0.3s0.1-0.2,0.1-0.4c0-0.1,0-0.2-0.1-0.4c-0.1-0.1-0.2-0.2-0.4-0.3c-0.1,0-0.2-0.1-0.3-0.1
		c-0.1,0-0.2-0.1-0.3-0.1c-0.1,0-0.2,0-0.3-0.1s-0.2,0-0.3,0c-0.1,0-0.2,0-0.3,0s-0.2,0-0.3,0.1C76.1,52,76,52,75.9,52
		C75.8,52.1,75.7,52.1,75.6,52.1 M79.2,54.3c-0.2,0.1-0.3,0.2-0.4,0.3s-0.1,0.2-0.1,0.4c0,0.1,0,0.3,0.1,0.4
		c0.1,0.1,0.2,0.2,0.4,0.3c0.1,0,0.2,0.1,0.3,0.1c0.1,0,0.2,0.1,0.3,0.1c0.1,0,0.2,0,0.3,0.1c0.1,0,0.2,0,0.3,0s0.2,0,0.3,0
		s0.2,0,0.3-0.1c0.1,0,0.2-0.1,0.3-0.1c0.1,0,0.2-0.1,0.3-0.1c0.2-0.1,0.3-0.2,0.4-0.3s0.1-0.2,0.1-0.4c0-0.1,0-0.3-0.1-0.4
		c-0.1-0.1-0.2-0.2-0.4-0.3c-0.1,0-0.2-0.1-0.3-0.1c-0.1,0-0.2-0.1-0.3-0.1c-0.1,0-0.2,0-0.3-0.1c-0.1,0-0.2,0-0.3,0
		c-0.1,0-0.2,0-0.3,0c-0.1,0-0.2,0-0.3,0.1c-0.1,0-0.2,0.1-0.3,0.1C79.3,54.2,79.3,54.2,79.2,54.3 M47.5,52.2
		c-0.2,0.1-0.3,0.2-0.4,0.3C47,52.6,47,52.8,47,52.9c0,0.1,0,0.3,0.1,0.4c0.1,0.1,0.2,0.2,0.3,0.3c0.1,0,0.2,0.1,0.3,0.1
		s0.2,0.1,0.3,0.1s0.2,0,0.3,0.1c0.1,0,0.2,0,0.3,0s0.2,0,0.3,0s0.2,0,0.3-0.1c0.1,0,0.2-0.1,0.3-0.1s0.2-0.1,0.3-0.1
		c0.2-0.1,0.3-0.2,0.4-0.3c0.1-0.1,0.1-0.2,0.1-0.4c0-0.1,0-0.3-0.1-0.4c-0.1-0.1-0.2-0.2-0.3-0.3c-0.1,0-0.2-0.1-0.3-0.1
		S49.4,52,49.3,52s-0.2,0-0.3-0.1c-0.1,0-0.2,0-0.3,0s-0.2,0-0.3,0s-0.2,0-0.3,0.1c-0.1,0-0.2,0.1-0.3,0.1
		C47.7,52.1,47.6,52.1,47.5,52.2 M84.9,53.5c0.2-0.1,0.3-0.2,0.3-0.3c0.1-0.1,0.1-0.2,0.1-0.4c0-0.1,0-0.3-0.1-0.4
		c-0.1-0.1-0.2-0.2-0.4-0.3c-0.1,0-0.2-0.1-0.3-0.1c-0.1,0-0.2-0.1-0.3-0.1c-0.1,0-0.2,0-0.3-0.1s-0.2,0-0.3,0c-0.1,0-0.2,0-0.3,0
		c-0.1,0-0.2,0-0.3,0.1c-0.1,0-0.2,0.1-0.3,0.1c-0.1,0-0.2,0.1-0.2,0.1c-0.2,0.1-0.3,0.2-0.3,0.3c-0.1,0.1-0.1,0.2-0.1,0.4
		c0,0.1,0,0.3,0.1,0.4c0.1,0.1,0.2,0.2,0.4,0.3c0.1,0,0.2,0.1,0.3,0.1c0.1,0,0.2,0.1,0.3,0.1c0.1,0,0.2,0,0.3,0.1c0.1,0,0.2,0,0.3,0
		c0.1,0,0.2,0,0.3,0s0.2,0,0.3-0.1c0.1,0,0.2-0.1,0.3-0.1C84.8,53.5,84.9,53.5,84.9,53.5 M68.6,56.4c-0.2,0.1-0.3,0.2-0.4,0.3
		s-0.1,0.2-0.1,0.4c0,0.1,0,0.3,0.1,0.4c0.1,0.1,0.2,0.2,0.4,0.3c0.1,0,0.2,0.1,0.3,0.1c0.1,0,0.2,0.1,0.3,0.1c0.1,0,0.2,0,0.3,0.1
		s0.2,0,0.3,0c0.1,0,0.2,0,0.3,0c0.1,0,0.2,0,0.3-0.1c0.1,0,0.2-0.1,0.3-0.1c0.1,0,0.2-0.1,0.3-0.1c0.2-0.1,0.3-0.2,0.4-0.3
		s0.1-0.2,0.1-0.4c0-0.1,0-0.3-0.1-0.4c-0.1-0.1-0.2-0.2-0.4-0.3c-0.1,0-0.2-0.1-0.3-0.1c-0.1,0-0.2-0.1-0.3-0.1
		c-0.1,0-0.2,0-0.3-0.1c-0.1,0-0.2,0-0.3,0s-0.2,0-0.3,0c-0.1,0-0.2,0-0.3,0.1c-0.1,0-0.2,0.1-0.3,0.1
		C68.8,56.3,68.7,56.4,68.6,56.4 M75.7,56.4c-0.2,0.1-0.3,0.2-0.4,0.3s-0.1,0.2-0.1,0.4c0,0.1,0,0.3,0.1,0.4
		c0.1,0.1,0.2,0.2,0.4,0.3c0.1,0,0.2,0.1,0.3,0.1c0.1,0,0.2,0.1,0.3,0.1c0.1,0,0.2,0,0.3,0.1c0.1,0,0.2,0,0.3,0c0.1,0,0.2,0,0.3,0
		c0.1,0,0.2,0,0.3-0.1c0.1,0,0.2-0.1,0.3-0.1c0.1,0,0.2-0.1,0.3-0.1c0.2-0.1,0.3-0.2,0.4-0.3s0.1-0.2,0.1-0.4c0-0.1,0-0.3-0.1-0.4
		c-0.1-0.1-0.2-0.2-0.4-0.3c-0.1,0-0.2-0.1-0.3-0.1c-0.1,0-0.2-0.1-0.3-0.1c-0.1,0-0.2,0-0.3-0.1c-0.1,0-0.2,0-0.3,0
		c-0.1,0-0.2,0-0.3,0c-0.1,0-0.2,0-0.3,0.1s-0.2,0.1-0.3,0.1C75.8,56.3,75.8,56.4,75.7,56.4 M68.6,60.7c-0.2,0.1-0.3,0.2-0.4,0.3
		s-0.1,0.2-0.1,0.4c0,0.1,0,0.3,0.1,0.4c0.1,0.1,0.2,0.2,0.4,0.3c0.1,0,0.2,0.1,0.3,0.1c0.1,0,0.2,0.1,0.3,0.1c0.1,0,0.2,0,0.3,0.1
		c0.1,0,0.2,0,0.3,0c0.1,0,0.2,0,0.3,0c0.1,0,0.2,0,0.3-0.1c0.1,0,0.2-0.1,0.3-0.1c0.1,0,0.2-0.1,0.3-0.1c0.2-0.1,0.3-0.2,0.4-0.3
		s0.1-0.2,0.1-0.4c0-0.1,0-0.3-0.1-0.4c-0.1-0.1-0.2-0.2-0.4-0.3c-0.1,0-0.2-0.1-0.3-0.1c-0.1,0-0.2-0.1-0.3-0.1
		c-0.1,0-0.2,0-0.3-0.1c-0.1,0-0.2,0-0.3,0c-0.1,0-0.2,0-0.3,0c-0.1,0-0.2,0-0.3,0.1c-0.1,0-0.2,0.1-0.3,0.1
		C68.8,60.6,68.7,60.7,68.6,60.7 M72.2,58.6c-0.2,0.1-0.3,0.2-0.4,0.3s-0.1,0.2-0.1,0.4c0,0.1,0,0.3,0.1,0.4
		c0.1,0.1,0.2,0.2,0.4,0.3c0.1,0,0.2,0.1,0.3,0.1c0.1,0,0.2,0.1,0.3,0.1c0.1,0,0.2,0,0.3,0.1c0.1,0,0.2,0,0.3,0s0.2,0,0.3,0
		c0.1,0,0.2,0,0.3-0.1c0.1,0,0.2-0.1,0.3-0.1c0.1,0,0.2-0.1,0.3-0.1c0.2-0.1,0.3-0.2,0.4-0.3s0.1-0.2,0.1-0.4c0-0.1,0-0.3-0.1-0.4
		c-0.1-0.1-0.2-0.2-0.4-0.3c-0.1,0-0.2-0.1-0.3-0.1c-0.1,0-0.2-0.1-0.3-0.1c-0.1,0-0.2,0-0.3-0.1c-0.1,0-0.2,0-0.3,0s-0.2,0-0.3,0
		c-0.1,0-0.2,0-0.3,0.1c-0.1,0-0.2,0.1-0.3,0.1C72.3,58.5,72.2,58.5,72.2,58.6 M68.6,52.2c-0.2,0.1-0.3,0.2-0.4,0.3
		s-0.1,0.2-0.1,0.4c0,0.1,0,0.3,0.1,0.4c0.1,0.1,0.2,0.2,0.4,0.3c0.1,0,0.2,0.1,0.3,0.1c0.1,0,0.2,0.1,0.3,0.1c0.1,0,0.2,0,0.3,0.1
		s0.2,0,0.3,0c0.1,0,0.2,0,0.3,0c0.1,0,0.2,0,0.3-0.1c0.1,0,0.2-0.1,0.3-0.1c0.1,0,0.2-0.1,0.3-0.1c0.2-0.1,0.3-0.2,0.4-0.3
		s0.1-0.2,0.1-0.4c0-0.1,0-0.3-0.1-0.4c-0.1-0.1-0.2-0.2-0.4-0.3c-0.1,0-0.2-0.1-0.3-0.1c-0.1,0-0.2-0.1-0.3-0.1
		c-0.1,0-0.2,0-0.3-0.1c-0.1,0-0.2,0-0.3,0c-0.1,0-0.2,0-0.3,0c-0.1,0-0.2,0-0.3,0.1c-0.1,0-0.2,0.1-0.3,0.1
		C68.8,52.1,68.7,52.1,68.6,52.2 M61.6,52.2c-0.2,0.1-0.3,0.2-0.4,0.3c-0.1,0.1-0.1,0.2-0.1,0.4c0,0.1,0,0.3,0.1,0.4
		c0.1,0.1,0.2,0.2,0.4,0.3c0.1,0,0.2,0.1,0.3,0.1s0.2,0.1,0.3,0.1s0.2,0,0.3,0.1s0.2,0,0.3,0s0.2,0,0.3,0s0.2,0,0.3-0.1
		c0.1,0,0.2-0.1,0.3-0.1s0.2-0.1,0.3-0.1c0.2-0.1,0.3-0.2,0.4-0.3s0.1-0.2,0.1-0.4c0-0.1,0-0.3-0.1-0.4c-0.1-0.1-0.2-0.2-0.4-0.3
		c-0.1,0-0.2-0.1-0.3-0.1S63.5,52,63.4,52s-0.2,0-0.3-0.1c-0.1,0-0.2,0-0.3,0s-0.2,0-0.3,0s-0.2,0-0.3,0.1c-0.1,0-0.2,0.1-0.3,0.1
		C61.7,52.1,61.6,52.1,61.6,52.2"/>
</g>
<radialGradient id="path4176_1_" cx="296.3965" cy="-472.6915" r="2.397" gradientTransform="matrix(0.8198 0 0 -0.8198 -149.7223 -272.7539)" gradientUnits="userSpaceOnUse">
	<stop  offset="0" style="stop-color:#9AF590"/>
	<stop  offset="1" style="stop-color:#74CE6D"/>
</radialGradient>
<circle id="path4176" class="st18" cx="93.3" cy="114.8" r="2"/>
<circle id="path4188" class="st19" cx="93.3" cy="114.8" r="0.5"/>
<g class="st20">
	<path class="st21" d="M96.6,52.1l0.5,10.8l-6.6,10.2h7.1l0.6,11.5c0,0.4-0.1,0.8-0.3,1.2c-0.2,0.4-0.6,0.7-1,1s-0.9,0.5-1.5,0.7
		s-1.2,0.2-1.9,0.2H39c-0.7,0-1.3-0.1-1.9-0.2c-0.6-0.2-1.1-0.4-1.5-0.7c-0.4-0.3-0.8-0.6-1-1s-0.3-0.8-0.3-1.2l0.6-11.5l7.5-10.2
		h-7l0.5-10.8c0-0.4,0.2-0.8,0.4-1.1c0.3-0.3,0.6-0.6,1-0.9c0.4-0.3,0.9-0.5,1.5-0.6s1.2-0.2,1.8-0.2h51.2c0.6,0,1.3,0.1,1.8,0.2
		c0.6,0.1,1.1,0.3,1.5,0.6s0.8,0.6,1,0.9C96.4,51.3,96.6,51.7,96.6,52.1z M74,83.1c0.3-0.2,0.5-0.4,0.6-0.6s0.2-0.5,0.2-0.7
		s-0.1-0.5-0.2-0.7s-0.4-0.4-0.7-0.6c-0.1-0.1-0.3-0.2-0.5-0.2c-0.2-0.1-0.3-0.1-0.5-0.2c-0.2,0-0.4-0.1-0.5-0.1c-0.2,0-0.4,0-0.6,0
		s-0.4,0-0.6,0s-0.3,0-0.4,0c-0.2,0-0.3,0.1-0.5,0.2s-0.3,0.1-0.5,0.2c-0.3,0.2-0.5,0.4-0.6,0.6S69,81.5,69,81.7s0.1,0.5,0.2,0.7
		s0.4,0.4,0.7,0.6c0.1,0.1,0.3,0.2,0.5,0.2c0.2,0.1,0.3,0.1,0.5,0.2c0.2,0,0.4,0.1,0.6,0.1s0.4,0,0.6,0s0.4,0,0.6,0s0.4-0.1,0.5-0.1
		c0.2,0,0.4-0.1,0.5-0.2C73.7,83.3,73.9,83.2,74,83.1 M64.2,69.9c-0.3,0.2-0.5,0.4-0.6,0.6s-0.2,0.4-0.2,0.7c0,0.2,0.1,0.5,0.2,0.7
		c0.1,0.2,0.4,0.4,0.6,0.6c0.1,0.1,0.3,0.2,0.5,0.2c0.2,0.1,0.3,0.1,0.5,0.2c0.2,0,0.4,0.1,0.5,0.1c0.2,0,0.4,0,0.6,0s0.4,0,0.6,0
		s0.4-0.1,0.5-0.1c0.2,0,0.3-0.1,0.5-0.2s0.3-0.1,0.5-0.2c0.3-0.2,0.5-0.4,0.6-0.6s0.2-0.4,0.2-0.7c0-0.2-0.1-0.5-0.2-0.7
		s-0.4-0.4-0.6-0.6c-0.1-0.1-0.3-0.2-0.5-0.2c-0.2-0.1-0.3-0.1-0.5-0.2c-0.2,0-0.4-0.1-0.5-0.1c-0.2,0-0.4,0-0.6,0s-0.4,0-0.6,0
		s-0.4,0.1-0.5,0.1c-0.2,0-0.3,0.1-0.5,0.2C64.5,69.7,64.3,69.8,64.2,69.9 M85.4,83.1c0.3-0.2,0.5-0.4,0.6-0.6s0.2-0.5,0.2-0.7
		s-0.1-0.5-0.2-0.7c-0.2-0.2-0.4-0.4-0.7-0.6c-0.1-0.1-0.3-0.2-0.5-0.2c-0.2-0.1-0.3-0.1-0.5-0.2c-0.2,0-0.4-0.1-0.5-0.1
		c-0.2,0-0.4,0-0.6,0s-0.4,0-0.6,0s-0.4,0.1-0.5,0.1c-0.2,0-0.3,0.1-0.5,0.2s-0.3,0.1-0.5,0.2c-0.3,0.2-0.5,0.4-0.6,0.6
		s-0.2,0.5-0.2,0.7s0.1,0.5,0.2,0.7s0.4,0.4,0.7,0.6c0.1,0.1,0.3,0.2,0.5,0.2c0.2,0.1,0.3,0.1,0.5,0.2c0.2,0,0.4,0.1,0.6,0.1
		s0.4,0,0.6,0s0.4,0,0.6,0s0.4-0.1,0.5-0.1c0.2,0,0.3-0.1,0.5-0.2C85.1,83.3,85.3,83.2,85.4,83.1 M62.6,83.1
		c0.3-0.2,0.5-0.4,0.7-0.6c0.1-0.2,0.2-0.5,0.2-0.7s-0.1-0.5-0.2-0.7c-0.1-0.2-0.4-0.4-0.6-0.6c-0.1-0.1-0.3-0.2-0.5-0.2
		c-0.2-0.1-0.3-0.1-0.5-0.2c-0.2,0-0.4-0.1-0.5-0.1c-0.2,0-0.4,0-0.6,0c-0.2,0-0.4,0-0.6,0c-0.2,0-0.4,0.1-0.5,0.1
		c-0.2,0-0.4,0.1-0.5,0.2c-0.2,0.1-0.3,0.1-0.5,0.2c-0.3,0.2-0.5,0.4-0.7,0.6c-0.1,0.2-0.2,0.5-0.2,0.7s0.1,0.5,0.2,0.7
		c0.1,0.2,0.4,0.4,0.6,0.6c0.1,0.1,0.3,0.2,0.5,0.2c0.2,0.1,0.3,0.1,0.5,0.2c0.2,0,0.4,0.1,0.5,0.1c0.2,0,0.4,0,0.6,0
		c0.2,0,0.4,0,0.6,0c0.2,0,0.4-0.1,0.6-0.1c0.2,0,0.4-0.1,0.5-0.2C62.3,83.3,62.4,83.2,62.6,83.1 M62.6,75.9
		c0.3-0.2,0.5-0.4,0.6-0.6s0.2-0.5,0.2-0.7s-0.1-0.5-0.2-0.7c-0.1-0.2-0.4-0.4-0.6-0.6c-0.1-0.1-0.3-0.2-0.5-0.2
		c-0.1,0-0.2-0.1-0.4-0.1s-0.4-0.1-0.5-0.1c-0.2,0-0.4,0-0.6,0c-0.2,0-0.4,0-0.6,0c-0.2,0-0.4,0.1-0.5,0.1c-0.2,0-0.3,0.1-0.5,0.2
		s-0.3,0.1-0.5,0.2c-0.3,0.2-0.5,0.4-0.6,0.6s-0.2,0.5-0.2,0.7s0.1,0.5,0.2,0.7c0.1,0.2,0.4,0.4,0.6,0.6c0.1,0.1,0.3,0.2,0.5,0.2
		c0.2,0.1,0.3,0.1,0.5,0.2c0.2,0,0.4,0.1,0.5,0.1c0.2,0,0.4,0,0.6,0s0.4,0,0.6,0c0.2,0,0.4-0.1,0.5-0.1c0.2,0,0.3-0.1,0.5-0.2
		C62.3,76.1,62.5,76,62.6,75.9 M66.2,80c0.2,0,0.4,0,0.6,0s0.4-0.1,0.5-0.1c0.2,0,0.3-0.1,0.5-0.2s0.3-0.1,0.5-0.2
		c0.3-0.2,0.5-0.4,0.6-0.6s0.2-0.5,0.2-0.7s-0.1-0.5-0.2-0.7s-0.4-0.4-0.6-0.6c-0.1-0.1-0.3-0.2-0.5-0.2c-0.2-0.1-0.3-0.1-0.5-0.2
		c-0.2,0-0.4-0.1-0.5-0.1c-0.2,0-0.4,0-0.6,0s-0.4,0-0.6,0s-0.4,0.1-0.5,0.1c-0.2,0-0.3,0.1-0.5,0.2s-0.3,0.1-0.5,0.2
		c-0.3,0.2-0.5,0.4-0.6,0.6s-0.2,0.5-0.2,0.7s0.1,0.5,0.2,0.7c0.1,0.2,0.4,0.4,0.6,0.6c0.1,0.1,0.3,0.2,0.5,0.2
		c0.2,0.1,0.3,0.1,0.5,0.2c0.2,0,0.4,0.1,0.5,0.1C65.8,80,66,80,66.2,80 M77.5,80c0.2,0,0.4,0,0.6,0s0.4-0.1,0.5-0.1
		c0.2,0,0.3-0.1,0.5-0.2s0.3-0.1,0.5-0.2c0.3-0.2,0.5-0.4,0.6-0.6s0.2-0.5,0.2-0.7s-0.1-0.5-0.2-0.7s-0.4-0.4-0.7-0.6
		c-0.1-0.1-0.3-0.2-0.5-0.2c-0.2-0.1-0.3-0.1-0.5-0.2c-0.2,0-0.4-0.1-0.5-0.1c-0.2,0-0.4,0-0.6,0s-0.4,0-0.6,0s-0.4,0.1-0.5,0.1
		c-0.2,0-0.3,0.1-0.5,0.2s-0.3,0.1-0.5,0.2c-0.3,0.2-0.5,0.4-0.6,0.6s-0.2,0.5-0.2,0.7s0.1,0.5,0.2,0.7s0.4,0.4,0.7,0.6
		c0.1,0.1,0.3,0.2,0.5,0.2c0.2,0.1,0.3,0.1,0.5,0.2c0.2,0,0.4,0.1,0.5,0.1C77.2,80,77.4,80,77.5,80 M69.8,73.4
		c-0.3,0.2-0.5,0.4-0.6,0.6S69,74.5,69,74.7s0.1,0.5,0.2,0.7s0.4,0.4,0.6,0.6c0.1,0.1,0.3,0.2,0.5,0.2c0.2,0.1,0.3,0.1,0.5,0.2
		c0.2,0,0.4,0.1,0.5,0.1c0.2,0,0.4,0,0.6,0s0.4,0,0.6,0s0.4-0.1,0.5-0.1c0.2,0,0.3-0.1,0.5-0.2s0.3-0.1,0.5-0.2
		c0.3-0.2,0.5-0.4,0.6-0.6s0.2-0.5,0.2-0.7s-0.1-0.5-0.2-0.7s-0.4-0.4-0.6-0.6c-0.1-0.1-0.3-0.2-0.5-0.2c-0.2-0.1-0.3-0.1-0.5-0.2
		c-0.2,0-0.4-0.1-0.5-0.1c-0.2,0-0.4,0-0.6,0s-0.4,0-0.6,0S70.9,73,70.8,73c-0.2,0-0.3,0.1-0.5,0.2C70.1,73.2,69.9,73.3,69.8,73.4
		 M51.1,83.1c0.3-0.2,0.5-0.4,0.7-0.6C52,82.2,52,82,52,81.8s-0.1-0.5-0.2-0.7c-0.1-0.2-0.4-0.4-0.6-0.6c-0.1-0.1-0.3-0.2-0.5-0.2
		c-0.2-0.1-0.3-0.1-0.5-0.2c-0.2,0-0.4-0.1-0.5-0.1c-0.2,0-0.4,0-0.6,0c-0.2,0-0.4,0-0.6,0c-0.1,0-0.3,0-0.5,0s-0.4,0.1-0.5,0.2
		c-0.2,0.1-0.3,0.1-0.5,0.2c-0.3,0.2-0.5,0.4-0.7,0.6s-0.2,0.5-0.2,0.7s0.1,0.5,0.2,0.7c0.1,0.2,0.3,0.4,0.6,0.6
		c0.1,0.1,0.3,0.2,0.5,0.2c0.2,0.1,0.3,0.1,0.5,0.2c0.2,0,0.4,0.1,0.5,0.1c0.2,0,0.4,0,0.6,0c0.2,0,0.4,0,0.6,0
		c0.2,0,0.4-0.1,0.6-0.1c0.2,0,0.4-0.1,0.5-0.2C50.8,83.2,51,83.2,51.1,83.1 M54.8,80c0.2,0,0.4,0,0.6,0c0.2,0,0.4-0.1,0.5-0.1
		c0.2,0,0.4-0.1,0.5-0.2c0.2-0.1,0.3-0.1,0.5-0.2c0.3-0.2,0.5-0.4,0.7-0.6c0.1-0.2,0.2-0.5,0.2-0.7s-0.1-0.5-0.2-0.7
		c-0.1-0.2-0.4-0.4-0.6-0.6c-0.1-0.1-0.3-0.2-0.5-0.2c-0.2-0.1-0.3-0.1-0.5-0.2c-0.2,0-0.4-0.1-0.5-0.1c-0.2,0-0.4,0-0.6,0
		c-0.2,0-0.4,0-0.6,0c-0.2,0-0.4,0.1-0.5,0.1c-0.2,0-0.4,0.1-0.5,0.2c-0.2,0.1-0.3,0.1-0.5,0.2c-0.3,0.2-0.5,0.4-0.7,0.6
		c-0.1,0.2-0.2,0.5-0.2,0.7s0.1,0.5,0.2,0.7c0.1,0.2,0.4,0.4,0.6,0.6c0.1,0.1,0.3,0.2,0.5,0.2c0.2,0.1,0.3,0.1,0.5,0.2
		c0.2,0,0.4,0.1,0.5,0.1C54.4,80,54.6,80,54.8,80 M65.1,59.6c-0.2,0.1-0.3,0.2-0.4,0.3s-0.1,0.2-0.1,0.4c0,0.1,0,0.3,0.1,0.4
		c0.1,0.1,0.2,0.2,0.4,0.3c0.1,0,0.2,0.1,0.3,0.1c0.1,0,0.2,0.1,0.3,0.1c0.1,0,0.2,0,0.3,0.1c0.1,0,0.2,0,0.3,0c0.1,0,0.2,0,0.3,0
		c0.1,0,0.2,0,0.3-0.1c0.1,0,0.2-0.1,0.3-0.1c0.1,0,0.2-0.1,0.3-0.1c0.2-0.1,0.3-0.2,0.4-0.3s0.1-0.2,0.1-0.4c0-0.1,0-0.3-0.1-0.4
		c-0.1-0.1-0.2-0.2-0.4-0.3c-0.1,0-0.2-0.1-0.3-0.1c-0.1,0-0.2-0.1-0.3-0.1c-0.1,0-0.2,0-0.3-0.1c-0.1,0-0.2,0-0.3,0s-0.2,0-0.3,0
		s-0.2,0-0.3,0.1c-0.1,0-0.2,0.1-0.3,0.1C65.2,59.5,65.1,59.6,65.1,59.6 M51,55.3c-0.2,0.1-0.3,0.2-0.4,0.3
		c-0.1,0.1-0.1,0.2-0.1,0.4c0,0.1,0,0.3,0.1,0.4c0.1,0.1,0.2,0.2,0.4,0.3c0.1,0,0.2,0.1,0.3,0.1s0.2,0.1,0.3,0.1s0.2,0,0.3,0.1
		c0.1,0,0.2,0,0.3,0s0.2,0,0.3,0s0.2,0,0.3-0.1c0.1,0,0.2-0.1,0.3-0.1s0.2-0.1,0.3-0.1c0.2-0.1,0.3-0.2,0.4-0.3
		c0.1-0.1,0.1-0.2,0.1-0.4c0-0.1,0-0.3-0.1-0.4c-0.1-0.1-0.2-0.2-0.4-0.3c-0.1,0-0.2-0.1-0.3-0.1s-0.2-0.1-0.3-0.1s-0.2,0-0.3-0.1
		c-0.1,0-0.2,0-0.3,0s-0.2,0-0.3,0s-0.2,0-0.3,0.1c-0.1,0-0.2,0.1-0.3,0.1C51.1,55.2,51,55.3,51,55.3 M54.5,53.2
		c-0.2,0.1-0.3,0.2-0.4,0.3C54,53.6,54,53.7,54,53.9c0,0.1,0,0.3,0.1,0.4c0.1,0.1,0.2,0.2,0.4,0.3c0.1,0,0.2,0.1,0.3,0.1
		s0.2,0.1,0.3,0.1s0.2,0,0.3,0.1c0.1,0,0.2,0,0.3,0s0.2,0,0.3,0s0.2,0,0.3-0.1c0.1,0,0.2-0.1,0.3-0.1s0.2-0.1,0.3-0.1
		c0.2-0.1,0.3-0.2,0.4-0.3c0.1-0.1,0.1-0.2,0.1-0.4c0-0.1,0-0.3-0.1-0.4c-0.1-0.1-0.2-0.2-0.4-0.3c-0.1,0-0.2-0.1-0.3-0.1
		S56.4,53,56.3,53s-0.2,0-0.3-0.1c-0.1,0-0.2,0-0.3,0s-0.2,0-0.3,0s-0.2,0-0.3,0.1c-0.1,0-0.2,0.1-0.3,0.1
		C54.7,53.1,54.6,53.1,54.5,53.2 M54.4,57.5c-0.2,0.1-0.3,0.2-0.4,0.3c-0.1,0.1-0.1,0.2-0.1,0.4c0,0.1,0,0.3,0.1,0.4
		c0.1,0.1,0.2,0.2,0.4,0.3c0.1,0,0.2,0.1,0.3,0.1s0.2,0.1,0.3,0.1s0.2,0,0.3,0.1s0.2,0,0.3,0s0.2,0,0.3,0s0.2,0,0.3-0.1
		c0.1,0,0.2-0.1,0.3-0.1s0.2-0.1,0.3-0.1c0.2-0.1,0.3-0.2,0.4-0.3c0.1-0.1,0.1-0.2,0.1-0.4c0-0.1,0-0.3-0.1-0.4
		c-0.1-0.1-0.2-0.2-0.4-0.3c-0.1,0-0.2-0.1-0.3-0.1s-0.2-0.1-0.3-0.1s-0.2,0-0.3-0.1c-0.1,0-0.2,0-0.3,0s-0.2,0-0.3,0
		s-0.2,0-0.3,0.1c-0.1,0-0.2,0.1-0.3,0.1C54.6,57.4,54.5,57.4,54.4,57.5 M58,59.6c-0.2,0.1-0.3,0.2-0.4,0.3
		c-0.1,0.1-0.1,0.2-0.1,0.4c0,0.1,0,0.3,0.1,0.4c0.1,0.1,0.2,0.2,0.4,0.3c0.1,0,0.2,0.1,0.3,0.1s0.2,0.1,0.3,0.1s0.2,0,0.3,0.1
		s0.2,0,0.3,0s0.2,0,0.3,0s0.2,0,0.3-0.1c0.1,0,0.2-0.1,0.3-0.1s0.2-0.1,0.3-0.1c0.2-0.1,0.3-0.2,0.4-0.3c0.1-0.1,0.1-0.2,0.1-0.4
		c0-0.1,0-0.3-0.1-0.4c-0.1-0.1-0.2-0.2-0.4-0.3c-0.1,0-0.2-0.1-0.3-0.1s-0.2-0.1-0.3-0.1s-0.2,0-0.3-0.1c-0.1,0-0.2,0-0.3,0
		s-0.2,0-0.3,0s-0.2,0-0.3,0.1c-0.1,0-0.2,0.1-0.3,0.1C58.1,59.5,58,59.6,58,59.6 M61.5,61.7c-0.2,0.1-0.3,0.2-0.4,0.3
		C61,62.2,61,62.3,61,62.4c0,0.1,0,0.3,0.1,0.4c0.1,0.1,0.2,0.2,0.4,0.3c0.1,0,0.2,0.1,0.3,0.1s0.2,0.1,0.3,0.1s0.2,0,0.3,0.1
		c0.1,0,0.2,0,0.3,0s0.2,0,0.3,0s0.2,0,0.3-0.1c0.1,0,0.2-0.1,0.3-0.1s0.2-0.1,0.3-0.1c0.2-0.1,0.3-0.2,0.4-0.3s0.1-0.3,0.1-0.4
		c0-0.1,0-0.3-0.1-0.4c-0.1-0.1-0.2-0.2-0.4-0.3c-0.1,0-0.2-0.1-0.3-0.1s-0.2-0.1-0.3-0.1s-0.2,0-0.3-0.1c-0.1,0-0.2,0-0.3,0
		s-0.2,0-0.3,0s-0.2,0-0.3,0.1c-0.1,0-0.2,0.1-0.3,0.1C61.7,61.6,61.6,61.7,61.5,61.7 M72.1,55.3c-0.2,0.1-0.3,0.2-0.4,0.3
		s-0.1,0.2-0.1,0.4c0,0.1,0,0.3,0.1,0.4c0.1,0.1,0.2,0.2,0.4,0.3c0.1,0,0.2,0.1,0.3,0.1s0.2,0.1,0.3,0.1c0.1,0,0.2,0,0.3,0.1
		c0.1,0,0.2,0,0.3,0c0.1,0,0.2,0,0.3,0c0.1,0,0.2,0,0.3-0.1c0.1,0,0.2-0.1,0.3-0.1c0.1,0,0.2-0.1,0.3-0.1c0.2-0.1,0.3-0.2,0.4-0.3
		S75,56.2,75,56c0-0.1,0-0.3-0.1-0.4c-0.1-0.1-0.2-0.2-0.4-0.3c-0.1,0-0.2-0.1-0.3-0.1c-0.1,0-0.2-0.1-0.3-0.1s-0.2,0-0.3-0.1
		c-0.1,0-0.2,0-0.3,0c-0.1,0-0.2,0-0.3,0c-0.1,0-0.2,0-0.3,0.1s-0.2,0.1-0.3,0.1C72.3,55.2,72.2,55.2,72.1,55.3 M65,63.9
		c-0.2,0.1-0.3,0.2-0.4,0.3c-0.1,0.1-0.1,0.3-0.1,0.4s0,0.3,0.1,0.4s0.2,0.2,0.4,0.3c0.1,0,0.2,0.1,0.3,0.1c0.1,0,0.2,0.1,0.3,0.1
		c0.1,0,0.2,0,0.3,0.1c0.1,0,0.2,0,0.3,0s0.2,0,0.3,0c0.1,0,0.2,0,0.3-0.1c0.1,0,0.2-0.1,0.3-0.1c0.1,0,0.2-0.1,0.3-0.1
		c0.2-0.1,0.3-0.2,0.4-0.3c0.1-0.1,0.1-0.3,0.1-0.4s0-0.3-0.1-0.4s-0.2-0.2-0.4-0.3c-0.1,0-0.2-0.1-0.3-0.1c-0.1,0-0.2-0.1-0.3-0.1
		s-0.2,0-0.3-0.1c-0.1,0-0.2,0-0.3,0c-0.1,0-0.2,0-0.3,0c-0.1,0-0.2,0-0.3,0.1s-0.2,0.1-0.3,0.1C65.2,63.8,65.1,63.9,65,63.9
		 M65.1,55.3c-0.2,0.1-0.3,0.2-0.4,0.3s-0.1,0.2-0.1,0.4c0,0.1,0,0.3,0.1,0.4c0.1,0.1,0.2,0.2,0.4,0.3c0.1,0,0.2,0.1,0.3,0.1
		c0.1,0,0.2,0.1,0.3,0.1c0.1,0,0.2,0,0.3,0.1c0.1,0,0.2,0,0.3,0c0.1,0,0.2,0,0.3,0c0.1,0,0.2,0,0.3-0.1c0.1,0,0.2-0.1,0.3-0.1
		c0.1,0,0.2-0.1,0.3-0.1c0.2-0.1,0.3-0.2,0.4-0.3S68,56.2,68,56c0-0.1,0-0.3-0.1-0.4c-0.1-0.1-0.2-0.2-0.4-0.3
		c-0.1,0-0.2-0.1-0.3-0.1c-0.1,0-0.2-0.1-0.3-0.1c-0.1,0-0.2,0-0.3-0.1c-0.1,0-0.2,0-0.3,0c-0.1,0-0.2,0-0.3,0c-0.1,0-0.2,0-0.3,0.1
		c-0.1,0-0.2,0.1-0.3,0.1C65.2,55.2,65.2,55.3,65.1,55.3 M58,55.3c-0.2,0.1-0.3,0.2-0.4,0.3c-0.1,0.1-0.1,0.2-0.1,0.4
		c0,0.1,0,0.3,0.1,0.4c0.1,0.1,0.2,0.2,0.4,0.3c0.1,0,0.2,0.1,0.3,0.1s0.2,0.1,0.3,0.1s0.2,0,0.3,0.1c0.1,0,0.2,0,0.3,0s0.2,0,0.3,0
		s0.2,0,0.3-0.1c0.1,0,0.2-0.1,0.3-0.1s0.2-0.1,0.3-0.1c0.2-0.1,0.3-0.2,0.4-0.3c0.1-0.1,0.1-0.2,0.1-0.4c0-0.1,0-0.3-0.1-0.4
		c-0.1-0.1-0.2-0.2-0.4-0.3c-0.1,0-0.2-0.1-0.3-0.1s-0.2-0.1-0.3-0.1s-0.2,0-0.3-0.1s-0.2,0-0.3,0s-0.2,0-0.3,0s-0.2,0-0.3,0.1
		c-0.1,0-0.2,0.1-0.3,0.1S58.1,55.3,58,55.3 M61.5,57.4c-0.2,0.1-0.3,0.2-0.4,0.3c0,0.2-0.1,0.3-0.1,0.4s0,0.3,0.1,0.4
		c0.1,0.1,0.2,0.2,0.4,0.3c0.1,0,0.2,0.1,0.3,0.1S62,59,62.1,59s0.2,0,0.3,0.1c0.1,0,0.2,0,0.3,0s0.2,0,0.3,0s0.2,0,0.3-0.1
		c0.1,0,0.2-0.1,0.3-0.1s0.2-0.1,0.3-0.1c0.2-0.1,0.3-0.2,0.4-0.3s0.1-0.2,0.1-0.4c0-0.1,0-0.3-0.1-0.4c-0.1-0.1-0.2-0.2-0.4-0.3
		c-0.1,0-0.2-0.1-0.3-0.1s-0.2-0.1-0.3-0.1s-0.2,0-0.3-0.1s-0.2,0-0.3,0s-0.2,0-0.3,0s-0.2,0-0.3,0.1c-0.1,0-0.2,0.1-0.3,0.1
		S61.6,57.4,61.5,57.4 M75.6,53.1c-0.2,0.1-0.3,0.2-0.3,0.3c-0.1,0.1-0.1,0.2-0.1,0.4c0,0.1,0,0.3,0.1,0.4c0.1,0.1,0.2,0.2,0.4,0.3
		c0.1,0,0.2,0.1,0.3,0.1c0.1,0,0.2,0.1,0.3,0.1c0.1,0,0.2,0,0.3,0.1c0.1,0,0.2,0,0.3,0c0.1,0,0.2,0,0.3,0c0.1,0,0.2,0,0.3-0.1
		c0.1,0,0.2-0.1,0.3-0.1s0.2-0.1,0.3-0.1c0.2-0.1,0.3-0.2,0.4-0.3s0.1-0.2,0.1-0.4c0-0.1,0-0.2-0.1-0.4c-0.1-0.1-0.2-0.2-0.4-0.3
		c-0.1,0-0.2-0.1-0.3-0.1c-0.1,0-0.2-0.1-0.3-0.1c-0.1,0-0.2,0-0.3-0.1s-0.2,0-0.3,0c-0.1,0-0.2,0-0.3,0s-0.2,0-0.3,0.1
		C76.1,53,76,53,75.9,53C75.8,53.1,75.7,53.1,75.6,53.1 M79.2,55.3c-0.2,0.1-0.3,0.2-0.4,0.3s-0.1,0.2-0.1,0.4c0,0.1,0,0.3,0.1,0.4
		c0.1,0.1,0.2,0.2,0.4,0.3c0.1,0,0.2,0.1,0.3,0.1c0.1,0,0.2,0.1,0.3,0.1c0.1,0,0.2,0,0.3,0.1c0.1,0,0.2,0,0.3,0s0.2,0,0.3,0
		s0.2,0,0.3-0.1c0.1,0,0.2-0.1,0.3-0.1c0.1,0,0.2-0.1,0.3-0.1c0.2-0.1,0.3-0.2,0.4-0.3s0.1-0.2,0.1-0.4c0-0.1,0-0.3-0.1-0.4
		c-0.1-0.1-0.2-0.2-0.4-0.3c-0.1,0-0.2-0.1-0.3-0.1c-0.1,0-0.2-0.1-0.3-0.1c-0.1,0-0.2,0-0.3-0.1c-0.1,0-0.2,0-0.3,0
		c-0.1,0-0.2,0-0.3,0c-0.1,0-0.2,0-0.3,0.1c-0.1,0-0.2,0.1-0.3,0.1C79.3,55.2,79.3,55.2,79.2,55.3 M47.5,53.2
		c-0.2,0.1-0.3,0.2-0.4,0.3C47,53.6,47,53.8,47,53.9c0,0.1,0,0.3,0.1,0.4c0.1,0.1,0.2,0.2,0.3,0.3c0.1,0,0.2,0.1,0.3,0.1
		s0.2,0.1,0.3,0.1s0.2,0,0.3,0.1c0.1,0,0.2,0,0.3,0s0.2,0,0.3,0s0.2,0,0.3-0.1c0.1,0,0.2-0.1,0.3-0.1s0.2-0.1,0.3-0.1
		c0.2-0.1,0.3-0.2,0.4-0.3c0.1-0.1,0.1-0.2,0.1-0.4c0-0.1,0-0.3-0.1-0.4c-0.1-0.1-0.2-0.2-0.3-0.3c-0.1,0-0.2-0.1-0.3-0.1
		S49.4,53,49.3,53s-0.2,0-0.3-0.1c-0.1,0-0.2,0-0.3,0s-0.2,0-0.3,0s-0.2,0-0.3,0.1c-0.1,0-0.2,0.1-0.3,0.1
		C47.7,53.1,47.6,53.1,47.5,53.2 M84.9,54.5c0.2-0.1,0.3-0.2,0.3-0.3c0.1-0.1,0.1-0.2,0.1-0.4c0-0.1,0-0.3-0.1-0.4
		c-0.1-0.1-0.2-0.2-0.4-0.3c-0.1,0-0.2-0.1-0.3-0.1c-0.1,0-0.2-0.1-0.3-0.1c-0.1,0-0.2,0-0.3-0.1s-0.2,0-0.3,0c-0.1,0-0.2,0-0.3,0
		c-0.1,0-0.2,0-0.3,0.1c-0.1,0-0.2,0.1-0.3,0.1c-0.1,0-0.2,0.1-0.2,0.1c-0.2,0.1-0.3,0.2-0.3,0.3c-0.1,0.1-0.1,0.2-0.1,0.4
		c0,0.1,0,0.3,0.1,0.4c0.1,0.1,0.2,0.2,0.4,0.3c0.1,0,0.2,0.1,0.3,0.1c0.1,0,0.2,0.1,0.3,0.1c0.1,0,0.2,0,0.3,0.1c0.1,0,0.2,0,0.3,0
		c0.1,0,0.2,0,0.3,0s0.2,0,0.3-0.1c0.1,0,0.2-0.1,0.3-0.1C84.8,54.5,84.9,54.5,84.9,54.5 M68.6,57.4c-0.2,0.1-0.3,0.2-0.4,0.3
		s-0.1,0.2-0.1,0.4c0,0.1,0,0.3,0.1,0.4c0.1,0.1,0.2,0.2,0.4,0.3c0.1,0,0.2,0.1,0.3,0.1c0.1,0,0.2,0.1,0.3,0.1c0.1,0,0.2,0,0.3,0.1
		s0.2,0,0.3,0c0.1,0,0.2,0,0.3,0c0.1,0,0.2,0,0.3-0.1c0.1,0,0.2-0.1,0.3-0.1c0.1,0,0.2-0.1,0.3-0.1c0.2-0.1,0.3-0.2,0.4-0.3
		s0.1-0.2,0.1-0.4c0-0.1,0-0.3-0.1-0.4c-0.1-0.1-0.2-0.2-0.4-0.3c-0.1,0-0.2-0.1-0.3-0.1c-0.1,0-0.2-0.1-0.3-0.1
		c-0.1,0-0.2,0-0.3-0.1c-0.1,0-0.2,0-0.3,0s-0.2,0-0.3,0c-0.1,0-0.2,0-0.3,0.1c-0.1,0-0.2,0.1-0.3,0.1
		C68.8,57.3,68.7,57.4,68.6,57.4 M75.7,57.4c-0.2,0.1-0.3,0.2-0.4,0.3s-0.1,0.2-0.1,0.4c0,0.1,0,0.3,0.1,0.4
		c0.1,0.1,0.2,0.2,0.4,0.3c0.1,0,0.2,0.1,0.3,0.1c0.1,0,0.2,0.1,0.3,0.1c0.1,0,0.2,0,0.3,0.1c0.1,0,0.2,0,0.3,0c0.1,0,0.2,0,0.3,0
		c0.1,0,0.2,0,0.3-0.1c0.1,0,0.2-0.1,0.3-0.1c0.1,0,0.2-0.1,0.3-0.1c0.2-0.1,0.3-0.2,0.4-0.3s0.1-0.2,0.1-0.4c0-0.1,0-0.3-0.1-0.4
		c-0.1-0.1-0.2-0.2-0.4-0.3c-0.1,0-0.2-0.1-0.3-0.1c-0.1,0-0.2-0.1-0.3-0.1c-0.1,0-0.2,0-0.3-0.1c-0.1,0-0.2,0-0.3,0
		c-0.1,0-0.2,0-0.3,0c-0.1,0-0.2,0-0.3,0.1s-0.2,0.1-0.3,0.1C75.8,57.3,75.8,57.4,75.7,57.4 M68.6,61.7c-0.2,0.1-0.3,0.2-0.4,0.3
		s-0.1,0.2-0.1,0.4c0,0.1,0,0.3,0.1,0.4c0.1,0.1,0.2,0.2,0.4,0.3c0.1,0,0.2,0.1,0.3,0.1c0.1,0,0.2,0.1,0.3,0.1c0.1,0,0.2,0,0.3,0.1
		c0.1,0,0.2,0,0.3,0c0.1,0,0.2,0,0.3,0c0.1,0,0.2,0,0.3-0.1c0.1,0,0.2-0.1,0.3-0.1c0.1,0,0.2-0.1,0.3-0.1c0.2-0.1,0.3-0.2,0.4-0.3
		s0.1-0.2,0.1-0.4c0-0.1,0-0.3-0.1-0.4c-0.1-0.1-0.2-0.2-0.4-0.3c-0.1,0-0.2-0.1-0.3-0.1c-0.1,0-0.2-0.1-0.3-0.1
		c-0.1,0-0.2,0-0.3-0.1c-0.1,0-0.2,0-0.3,0c-0.1,0-0.2,0-0.3,0c-0.1,0-0.2,0-0.3,0.1c-0.1,0-0.2,0.1-0.3,0.1
		C68.8,61.6,68.7,61.7,68.6,61.7 M72.2,59.6c-0.2,0.1-0.3,0.2-0.4,0.3s-0.1,0.2-0.1,0.4c0,0.1,0,0.3,0.1,0.4
		c0.1,0.1,0.2,0.2,0.4,0.3c0.1,0,0.2,0.1,0.3,0.1c0.1,0,0.2,0.1,0.3,0.1c0.1,0,0.2,0,0.3,0.1c0.1,0,0.2,0,0.3,0s0.2,0,0.3,0
		c0.1,0,0.2,0,0.3-0.1c0.1,0,0.2-0.1,0.3-0.1c0.1,0,0.2-0.1,0.3-0.1c0.2-0.1,0.3-0.2,0.4-0.3s0.1-0.2,0.1-0.4c0-0.1,0-0.3-0.1-0.4
		c-0.1-0.1-0.2-0.2-0.4-0.3c-0.1,0-0.2-0.1-0.3-0.1c-0.1,0-0.2-0.1-0.3-0.1c-0.1,0-0.2,0-0.3-0.1c-0.1,0-0.2,0-0.3,0s-0.2,0-0.3,0
		c-0.1,0-0.2,0-0.3,0.1c-0.1,0-0.2,0.1-0.3,0.1C72.3,59.5,72.2,59.5,72.2,59.6 M68.6,53.2c-0.2,0.1-0.3,0.2-0.4,0.3
		s-0.1,0.2-0.1,0.4c0,0.1,0,0.3,0.1,0.4c0.1,0.1,0.2,0.2,0.4,0.3c0.1,0,0.2,0.1,0.3,0.1c0.1,0,0.2,0.1,0.3,0.1c0.1,0,0.2,0,0.3,0.1
		s0.2,0,0.3,0c0.1,0,0.2,0,0.3,0c0.1,0,0.2,0,0.3-0.1c0.1,0,0.2-0.1,0.3-0.1c0.1,0,0.2-0.1,0.3-0.1c0.2-0.1,0.3-0.2,0.4-0.3
		s0.1-0.2,0.1-0.4c0-0.1,0-0.3-0.1-0.4c-0.1-0.1-0.2-0.2-0.4-0.3c-0.1,0-0.2-0.1-0.3-0.1c-0.1,0-0.2-0.1-0.3-0.1
		c-0.1,0-0.2,0-0.3-0.1c-0.1,0-0.2,0-0.3,0c-0.1,0-0.2,0-0.3,0c-0.1,0-0.2,0-0.3,0.1c-0.1,0-0.2,0.1-0.3,0.1
		C68.8,53.1,68.7,53.1,68.6,53.2 M61.6,53.2c-0.2,0.1-0.3,0.2-0.4,0.3c-0.1,0.1-0.1,0.2-0.1,0.4c0,0.1,0,0.3,0.1,0.4
		c0.1,0.1,0.2,0.2,0.4,0.3c0.1,0,0.2,0.1,0.3,0.1s0.2,0.1,0.3,0.1s0.2,0,0.3,0.1s0.2,0,0.3,0s0.2,0,0.3,0s0.2,0,0.3-0.1
		c0.1,0,0.2-0.1,0.3-0.1s0.2-0.1,0.3-0.1c0.2-0.1,0.3-0.2,0.4-0.3s0.1-0.2,0.1-0.4c0-0.1,0-0.3-0.1-0.4c-0.1-0.1-0.2-0.2-0.4-0.3
		c-0.1,0-0.2-0.1-0.3-0.1S63.5,53,63.4,53s-0.2,0-0.3-0.1c-0.1,0-0.2,0-0.3,0s-0.2,0-0.3,0s-0.2,0-0.3,0.1c-0.1,0-0.2,0.1-0.3,0.1
		C61.7,53.1,61.6,53.1,61.6,53.2"/>
</g>
<g id="g4195">
	<circle id="circle4183" class="st22" cx="94.9" cy="33.5" r="33.4"/>
	<path id="circle4187" class="st23" d="M74.2,7.2C65.8,13.5,60.8,23.4,60.8,34c0,18.4,14.9,33.4,33.4,33.4l0,0
		c4.8,0,9.5-1.1,13.9-3.1l-5.2-52.4c-0.3-2.6-2.1-4.7-4.7-4.7C98.2,7.2,74.2,7.2,74.2,7.2z"/>
	<path id="circle4191" class="st23" d="M74.7,7.2c-9.4,6.2-15,16.6-15,27.8c0,18.4,14.9,33.4,33.4,33.4l0,0c5.2,0,10.3-1.2,15-3.6
		l-5.2-53c-0.3-2.6-2.1-4.7-4.7-4.7L74.7,7.2L74.7,7.2z"/>
	<path id="circle4193" class="st23" d="M75.1,7.2c-10,6-16,16.8-16.1,28.5c0,18.4,15,33.4,33.4,33.4c5.5,0,10.9-1.4,15.7-3.9
		l-5.3-53.3c-0.3-2.6-2.1-4.7-4.7-4.7C98.1,7.2,75.1,7.2,75.1,7.2z"/>
</g>
<path id="circle4189" class="st23" d="M74.4,7.2c-8.9,6.2-14.2,16.4-14.2,27.3c0,18.4,14.9,33.4,33.4,33.4c5,0,10-1.2,14.5-3.3
	l-5.2-52.7c-0.3-2.6-2.1-4.7-4.7-4.7C98.2,7.2,74.4,7.2,74.4,7.2z"/>
<linearGradient id="path4169_1_" gradientUnits="userSpaceOnUse" x1="27.9357" y1="-176.663" x2="32.2503" y2="-230.8346" gradientTransform="matrix(1.0976 0 0 -1.0976 62.2132 -190.2908)">
	<stop  offset="0" style="stop-color:#EBEDEE"/>
	<stop  offset="1" style="stop-color:#D7DADC"/>
</linearGradient>
<circle id="path4169" class="st24" cx="95.2" cy="32.8" r="32.4"/>
<radialGradient id="path4297_1_" cx="95.2" cy="32.8" r="27.2" gradientUnits="userSpaceOnUse">
	<stop  offset="0" style="stop-color:#2A667F"/>
	<stop  offset="1" style="stop-color:#1E495A"/>
</radialGradient>
<circle id="path4297" class="st25" cx="95.2" cy="32.8" r="27.2"/>
<path id="circle4307" class="st26" d="M95.2,5.6C80.1,5.6,68,17.8,68,32.8C68,47.9,80.1,60,95.2,60c15,0,27.2-12.2,27.2-27.2
	C122.4,17.8,110.2,5.6,95.2,5.6z M95.2,7.8c13.8,0,25,11.2,25,25l0,0c0,13.8-11.2,25-25,25l0,0c-13.8,0-25-11.2-25-25l0,0
	C70.1,19,81.3,7.8,95.2,7.8L95.2,7.8z"/>
<path id="circle4311" class="st26" d="M95.2,5.6C80.1,5.6,68,17.8,68,32.8C68,47.9,80.1,60,95.2,60c15,0,27.2-12.2,27.2-27.2
	C122.4,17.8,110.2,5.6,95.2,5.6z M95.2,7C109.4,7,121,18.6,121,32.8l0,0c0,14.3-11.6,25.8-25.8,25.8l0,0
	c-14.3,0-25.8-11.6-25.8-25.8l0,0C69.3,18.6,80.9,7,95.2,7L95.2,7z"/>
<g class="st27">
	<path d="M95.7,16.6c-9,0-16.5,7.2-16.8,16.2h-5.7l9.3,9.3l9.3-9.3h-6.6c0.3-5.5,4.9-10,10.6-10c2.8,0,5.4,1.1,7.4,3.1
		c2,2,3.1,4.7,3.1,7.5c0,2.8-1.1,5.5-3.1,7.5c-2,2-4.7,3.1-7.5,3.1l-1.3,0l0,5.3l0.2,0.9l0.9,0c0.1,0,0.1,0,0.2,0
		c9.3,0,16.8-7.5,16.8-16.8S105,16.6,95.7,16.6z"/>
	<path d="M101,36.1c0.1,0,0.2,0,0.3,0c0.2,0,0.3,0,0.5-0.1c0.5-0.1,1-0.5,1.3-0.9c0.3-0.5,0.4-1,0.2-1.5c-0.1-0.5-0.5-1-0.9-1.3
		c-0.4-0.3-1-0.4-1.4-0.3l-3.9,0l0-6.8c0-0.1,0-0.3,0-0.4l0.2-0.2L96.8,24c-0.1-0.1-0.1-0.2-0.2-0.2c-0.4-0.4-1-0.7-1.5-0.7
		c0,0,0,0,0,0c-1.1,0-2,1-2,2.1v9c0,1.1,0.9,2,2,2H101z"/>
</g>
<path id="Backup_1_" class="st27" d="M95.9,24.4c-0.2-0.2-0.5-0.3-0.8-0.3c-0.6,0-1,0.5-1,1.1v8.9c0,0.6,0.5,1,1,1l6,0
	c0.2,0,0.3,0,0.5,0c0.6-0.1,0.9-0.7,0.8-1.3c-0.1-0.6-0.7-0.9-1.3-0.8l-4.9,0l0-7.9c0-0.2,0-0.4-0.1-0.6l0,0
	C96,24.5,95.9,24.4,95.9,24.4L95.9,24.4z M95.7,17.6c8.7,0,15.8,7.1,15.8,15.8c0,8.7-7.1,15.8-15.8,15.8c-0.1,0-0.2,0-0.3,0v-4.2
	c0.1,0,0.2,0,0.3,0c0,0,0,0,0.1,0c6.4,0,11.5-5.2,11.5-11.6c0,0,0,0,0-0.1c0-6.4-5.2-11.5-11.6-11.5c0,0,0,0-0.1,0
	c-6.4,0-11.5,5.2-11.5,11.6c0,0,0,0,0,0.1c0,0.1,0,0.2,0,0.3h5.2l-6.9,6.9l-6.9-6.9H80c0-0.1,0-0.3,0-0.4
	C79.9,24.7,87,17.6,95.7,17.6z"/>
<linearGradient id="Backup_2_" gradientUnits="userSpaceOnUse" x1="93.575" y1="48.1654" x2="93.575" y2="16.5654">
	<stop  offset="0" style="stop-color:#D7DADC"/>
	<stop  offset="1" style="stop-color:#EBEBEB"/>
</linearGradient>
<path id="Backup" class="st28" d="M95.9,23.4c-0.2-0.2-0.5-0.3-0.8-0.3c-0.6,0-1,0.5-1,1.1v8.9c0,0.6,0.5,1,1,1l6,0
	c0.2,0,0.3,0,0.5,0c0.6-0.1,0.9-0.7,0.8-1.3c-0.1-0.6-0.7-0.9-1.3-0.8l-4.9,0l0-7.9c0-0.2,0-0.4-0.1-0.6l0,0
	C96,23.5,95.9,23.4,95.9,23.4L95.9,23.4z M95.7,16.6c8.7,0,15.8,7.1,15.8,15.8c0,8.7-7.1,15.8-15.8,15.8c-0.1,0-0.2,0-0.3,0v-4.2
	c0.1,0,0.2,0,0.3,0c0,0,0,0,0.1,0c6.4,0,11.5-5.2,11.5-11.6c0,0,0,0,0-0.1c0-6.4-5.2-11.5-11.6-11.5c0,0,0,0-0.1,0
	c-6.4,0-11.5,5.2-11.5,11.6c0,0,0,0,0,0.1c0,0.1,0,0.2,0,0.3h5.2l-6.9,6.9l-6.9-6.9H80c0-0.1,0-0.3,0-0.4
	C79.9,23.7,87,16.6,95.7,16.6z"/>
</svg>
